<svg id="Background" xmlns="http://www.w3.org/2000/svg" xmlns:xlink="http://www.w3.org/1999/xlink" viewBox="0 0 3710 3710"><defs><style>.cls-1{fill:#fff;}.cls-2{fill:url(#linear-gradient);}.cls-3{fill:#91b3fa;}.cls-4{fill:#bdd0fb;}.cls-5{fill:url(#linear-gradient-2);}.cls-6{fill:url(#linear-gradient-3);}.cls-7{fill:url(#linear-gradient-4);}.cls-8{fill:url(#linear-gradient-5);}.cls-9{fill:url(#linear-gradient-6);}.cls-10{fill:url(#linear-gradient-7);}.cls-11{fill:url(#linear-gradient-8);}.cls-12{fill:url(#linear-gradient-9);}.cls-13{fill:url(#linear-gradient-10);}.cls-14{fill:url(#linear-gradient-11);}.cls-15{fill:url(#linear-gradient-12);}.cls-16{fill:url(#linear-gradient-13);}.cls-17{fill:url(#linear-gradient-14);}.cls-18{fill:url(#linear-gradient-15);}.cls-19{fill:url(#linear-gradient-16);}.cls-20{fill:url(#linear-gradient-17);}.cls-21{fill:url(#linear-gradient-18);}.cls-22{fill:url(#linear-gradient-19);}.cls-23{fill:url(#linear-gradient-20);}.cls-24{fill:url(#linear-gradient-21);}.cls-25{fill:url(#linear-gradient-22);}.cls-26{fill:url(#linear-gradient-23);}.cls-27{fill:url(#linear-gradient-24);}</style><linearGradient id="linear-gradient" x1="3489.3" y1="3266.61" x2="1430.41" y2="1465.09" gradientUnits="userSpaceOnUse"><stop offset="0" stop-color="#dae3fe"/><stop offset="1" stop-color="#e9effd"/></linearGradient><linearGradient id="linear-gradient-2" x1="2410.64" y1="2313.89" x2="2033.98" y2="1724.33" gradientTransform="matrix(0.96, 0.27, -0.27, 0.96, 77.79, 799.54)" gradientUnits="userSpaceOnUse"><stop offset="0" stop-color="#4f52ff"/><stop offset="1" stop-color="#4042e2"/></linearGradient><linearGradient id="linear-gradient-3" x1="1974.3" y1="1417.29" x2="2508.41" y2="1417.29" gradientTransform="matrix(0.96, 0.27, -0.27, 0.96, 77.79, 799.54)" gradientUnits="userSpaceOnUse"><stop offset="0" stop-color="#febbba"/><stop offset="1" stop-color="#ff928e"/></linearGradient><linearGradient id="linear-gradient-4" x1="919.14" y1="3214.89" x2="-281.76" y2="4088.28" gradientTransform="translate(-256.14 -882.48) rotate(-16.41)" xlink:href="#linear-gradient-2"/><linearGradient id="linear-gradient-5" x1="1037.07" y1="2320.78" x2="1465.66" y2="1751.55" gradientTransform="matrix(1, 0, 0, 1, 0, 0)" xlink:href="#linear-gradient-3"/><linearGradient id="linear-gradient-6" x1="746.92" y1="2978.1" x2="-453.98" y2="3851.48" gradientTransform="translate(-256.14 -882.48) rotate(-16.41)" xlink:href="#linear-gradient-2"/><linearGradient id="linear-gradient-7" x1="1386.14" y1="2167.06" x2="906.2" y2="2443.86" gradientUnits="userSpaceOnUse"><stop offset="0" stop-color="#09005d"/><stop offset="1" stop-color="#1a0f91"/></linearGradient><linearGradient id="linear-gradient-8" x1="1057.75" y1="3088.84" x2="-298.87" y2="5446.24" gradientTransform="translate(-0.86 -188.15) rotate(-3.91)" xlink:href="#linear-gradient-3"/><linearGradient id="linear-gradient-9" x1="1720.1" y1="1512.44" x2="1282.98" y2="1846.89" gradientTransform="translate(91.64 -164.82) rotate(6.37)" xlink:href="#linear-gradient-3"/><linearGradient id="linear-gradient-10" x1="1413" y1="1248.41" x2="1808.83" y2="1758.04" gradientTransform="translate(91.64 -164.82) rotate(6.37)" xlink:href="#linear-gradient-7"/><linearGradient id="linear-gradient-11" x1="1665.88" y1="1441.58" x2="1228.76" y2="1776.04" gradientTransform="translate(91.64 -164.82) rotate(6.37)" xlink:href="#linear-gradient-3"/><linearGradient id="linear-gradient-12" x1="12820.78" y1="3602.45" x2="12126.07" y2="3792.85" gradientTransform="matrix(-1.05, -0.03, -0.03, 1, 14684.62, -332.2)" xlink:href="#linear-gradient-7"/><linearGradient id="linear-gradient-13" x1="1563.42" y1="1478.27" x2="1221.88" y2="1938.11" gradientTransform="matrix(1, 0, 0, 1, 0, 0)" xlink:href="#linear-gradient-2"/><linearGradient id="linear-gradient-14" x1="1696.95" y1="1599.68" x2="1493.82" y2="1865.32" gradientTransform="matrix(1, 0, 0, 1, 0, 0)" xlink:href="#linear-gradient-2"/><linearGradient id="linear-gradient-15" x1="2039.21" y1="1364.17" x2="525.5" y2="1614.26" gradientTransform="translate(-316.37 156.52) rotate(-9.74)" xlink:href="#linear-gradient-2"/><linearGradient id="linear-gradient-16" x1="1489.52" y1="1308.84" x2="1322.1" y2="1572.25" gradientTransform="matrix(1, 0, 0, 1, 0, 0)" xlink:href="#linear-gradient-2"/><linearGradient id="linear-gradient-17" x1="1332.38" y1="1568.69" x2="1033.25" y2="968.21" gradientTransform="matrix(1, 0, 0, 1, 0, 0)" xlink:href="#linear-gradient-2"/><linearGradient id="linear-gradient-18" x1="1857.58" y1="3507.12" x2="1896.32" y2="2654.93" xlink:href="#linear-gradient-7"/><linearGradient id="linear-gradient-19" x1="2407.31" y1="2056.03" x2="2698.85" y2="2801.54" xlink:href="#linear-gradient-7"/><linearGradient id="linear-gradient-20" x1="2372.2" y1="2352.41" x2="2538.8" y2="3376.98" xlink:href="#linear-gradient-7"/><linearGradient id="linear-gradient-21" x1="2297.2" y1="2948.4" x2="2788.66" y2="3270.48" xlink:href="#linear-gradient-7"/><linearGradient id="linear-gradient-22" x1="1986.41" y1="367.9" x2="-374.44" y2="4778.18" gradientUnits="userSpaceOnUse"><stop offset="0" stop-color="#ff928e"/><stop offset="1" stop-color="#fe7062"/></linearGradient><linearGradient id="linear-gradient-23" x1="2760.68" y1="446.24" x2="399.82" y2="4856.52" xlink:href="#linear-gradient-22"/><linearGradient id="linear-gradient-24" x1="1506.86" y1="111.2" x2="-853.99" y2="4521.47" xlink:href="#linear-gradient-22"/></defs><title>administrator</title><rect class="cls-1" width="3710" height="3710"/><path class="cls-2" d="M3139.4,2331c-266.09,626.54-974.9,977.53-1589.57,882.85-100-15.41-374.23-61.3-617-277.8C465.47,2519.26,365.52,1694,742.52,1112.37c274.39-423.3,766.26-663.26,1233.64-651.26,100.67,2.59,486.49,18.52,825.56,298.11,49.8,41.07,159.65,138.65,258.64,293.46C3292.83,1416.21,3312.81,1922.68,3139.4,2331Z"/><path class="cls-3" d="M1483.18,1374.29a5.72,5.72,0,0,1-4.56-2.89c-3.71-6.55-7.62-13.07-11.62-19.4a5.73,5.73,0,0,1,9.68-6.12c4.1,6.48,8.11,13.17,11.91,19.87A5.72,5.72,0,0,1,1483.18,1374.29Z"/><path class="cls-3" d="M1028.3,2092.76c-8.66-.54-17.54-1.54-26.19-2.65a5.73,5.73,0,0,1-4.95-6.41,5.8,5.8,0,0,1,6.41-4.95c8.44,1.09,17.19,1.94,25.57,2.59,6.21,0.46,12.57.8,18.91,1a5.54,5.54,0,0,1,5.53,5.91,5.72,5.72,0,0,1-5.91,5.53C1041.18,2093.58,1034.66,2093.23,1028.3,2092.76Zm92.42-2.13a5.73,5.73,0,0,1-.25-11.39c14.26-1.7,28.67-4.09,42.81-7.09l1.23-.26a5.72,5.72,0,1,1,2.38,11.2l-1.23.26c-14.48,3.07-29.22,5.52-43.83,7.26A5.77,5.77,0,0,1,1120.72,2090.63Zm114.89-28.2a5.72,5.72,0,0,1-1.61-11.06c13.9-5.28,27.66-11.27,40.93-17.79a5.73,5.73,0,0,1,5.05,10.28c-13.58,6.68-27.68,12.81-41.91,18.21A5.68,5.68,0,0,1,1235.61,2062.43Zm104.53-55.31a5.73,5.73,0,0,1-2.86-10.4c12.13-8.49,24-17.66,35.3-27.27a5.73,5.73,0,1,1,7.42,8.73c-11.56,9.83-23.73,19.23-36.15,27.93A5.71,5.71,0,0,1,1340.15,2007.13ZM1428,1927.9a5.72,5.72,0,0,1-3.89-9.46c9.69-11.19,19-23,27.61-35.06a5.73,5.73,0,0,1,9.31,6.66c-8.83,12.36-18.35,24.43-28.28,35.89A5.72,5.72,0,0,1,1428,1927.9Zm66-98.21a5.66,5.66,0,0,1-2.16-.6,5.73,5.73,0,0,1-2.52-7.7c6.71-13.23,12.86-26.93,18.3-40.71a5.73,5.73,0,0,1,10.65,4.2c-5.56,14.11-11.87,28.13-18.73,41.68A5.73,5.73,0,0,1,1493.92,1829.7Zm40.16-111.27a6.38,6.38,0,0,1-.85-0.12,5.73,5.73,0,0,1-4.32-6.85c3.28-14.48,5.91-29.27,7.81-44a5.66,5.66,0,0,1,6.41-4.94,5.72,5.72,0,0,1,4.94,6.41c-1.95,15-4.64,30.18-8,45A5.73,5.73,0,0,1,1534.08,1718.43Zm11.69-117.76a5.73,5.73,0,0,1-5.29-5.56c-0.37-14.81-1.45-29.79-3.21-44.52a5.73,5.73,0,0,1,11.37-1.36c1.8,15.09,2.91,30.43,3.29,45.59a5.73,5.73,0,0,1-5.58,5.87h-0.57Zm-17.38-117a5.72,5.72,0,0,1-5.09-4.19c-4-14.34-8.62-28.61-13.86-42.42a5.73,5.73,0,1,1,10.71-4.06c5.36,14.14,10.14,28.75,14.19,43.43A5.73,5.73,0,0,1,1528.39,1483.61Z"/><path class="cls-3" d="M930.34,2075.14a5.78,5.78,0,0,1-1.18-.21c-7.36-2.14-14.79-4.48-22.08-7a5.72,5.72,0,1,1,3.7-10.84c7.12,2.43,14.38,4.72,21.57,6.81A5.73,5.73,0,0,1,930.34,2075.14Z"/><path class="cls-3" d="M636.32,1834.27a5.72,5.72,0,0,1-4.66-3.07c-3.51-6.77-6.93-13.77-10.17-20.81a5.73,5.73,0,0,1,10.4-4.79c3.16,6.88,6.5,13.72,9.93,20.33A5.73,5.73,0,0,1,636.32,1834.27Z"/><path class="cls-3" d="M601.15,1746a5.72,5.72,0,0,1-5.07-4.12c-3.24-11.25-6.12-22.78-8.56-34.26q-1-4.74-1.91-9.47a5.73,5.73,0,0,1,11.25-2.17q0.89,4.62,1.87,9.26c2.38,11.21,5.2,22.47,8.36,33.46a5.73,5.73,0,0,1-3.92,7.09A5.65,5.65,0,0,1,601.15,1746Zm-18.67-114.91a5.72,5.72,0,0,1-5.29-5.47c-0.61-14.93-.52-30.06.26-45a5.73,5.73,0,0,1,6-5.42,5.82,5.82,0,0,1,5.42,6c-0.76,14.57-.84,29.34-0.25,43.91a5.72,5.72,0,0,1-5.49,6A5.34,5.34,0,0,1,582.47,1631.13Zm9.47-116a6.79,6.79,0,0,1-.74-0.1,5.73,5.73,0,0,1-4.45-6.77c3-14.63,6.75-29.29,11.11-43.57a5.73,5.73,0,0,1,11,3.34c-4.25,13.95-7.9,28.26-10.85,42.55A5.72,5.72,0,0,1,591.95,1515.08Zm37.13-110.33a5.65,5.65,0,0,1-2-.55,5.72,5.72,0,0,1-2.7-7.63c6.44-13.48,13.58-26.81,21.22-39.64a5.72,5.72,0,1,1,9.83,5.86c-7.46,12.52-14.44,25.55-20.72,38.71A5.73,5.73,0,0,1,629.08,1404.75Zm62.42-98.25a5.73,5.73,0,0,1-4-9.34c9.45-11.54,19.56-22.78,30.05-33.43a5.73,5.73,0,1,1,8.15,8c-10.24,10.39-20.12,21.37-29.35,32.64A5.72,5.72,0,0,1,691.5,1306.51ZM775.58,1226a5.72,5.72,0,0,1-3-10.29c11.94-8.93,24.45-17.42,37.19-25.22a5.73,5.73,0,0,1,6,9.76c-12.44,7.62-24.66,15.91-36.32,24.63A5.7,5.7,0,0,1,775.58,1226Zm101-57.85a5.73,5.73,0,0,1-1.8-11c13.76-5.79,28-11,42.19-15.51a5.73,5.73,0,0,1,3.45,10.92c-13.91,4.39-27.77,9.49-41.2,15.15A5.73,5.73,0,0,1,876.54,1168.19Zm111.92-31.93a5.72,5.72,0,0,1-.47-11.36c14.75-2.36,29.79-4.06,44.68-5.05a5.73,5.73,0,1,1,.76,11.43c-14.55,1-29.23,2.63-43.64,4.93A5.65,5.65,0,0,1,988.46,1136.26Zm160.4,1.46-0.59-.07c-14.38-2.58-29-4.51-43.53-5.73a5.73,5.73,0,0,1,.91-11.41h0.06c14.86,1.26,29.86,3.23,44.59,5.87A5.73,5.73,0,0,1,1148.86,1137.72Z"/><path class="cls-3" d="M1240.46,1163.73a5.85,5.85,0,0,1-1.68-.38c-7-2.75-14.09-5.38-21.22-7.8a5.72,5.72,0,1,1,3.69-10.84c7.3,2.48,14.61,5.17,21.74,8A5.73,5.73,0,0,1,1240.46,1163.73Z"/><path class="cls-3" d="M1242.31,1281.82a5.78,5.78,0,0,0-6.71.07l-56.85,41.5a306.56,306.56,0,0,0-97-21.27l-34.3-61.41a5.78,5.78,0,0,0-6.07-2.87l-83.1,14.89a5.79,5.79,0,0,0-4.69,4.8L942.72,1327a306.6,306.6,0,0,0-83.61,53.63l-67.72-19.19a5.78,5.78,0,0,0-6.32,2.26L736.83,1433a5.78,5.78,0,0,0,.07,6.71l41.5,56.85a306.59,306.59,0,0,0-21.27,97l-61.41,34.3a5.78,5.78,0,0,0-2.87,6.07l14.89,83.1a5.78,5.78,0,0,0,4.8,4.69l69.5,10.85a306.57,306.57,0,0,0,53.63,83.61l-19.19,67.72a5.78,5.78,0,0,0,2.26,6.32L888,1938.51a5.78,5.78,0,0,0,6.71-.08l56.85-41.5a306.57,306.57,0,0,0,97,21.27l34.3,61.41a5.78,5.78,0,0,0,6.07,2.87l83.1-14.89a5.78,5.78,0,0,0,4.69-4.8l10.85-69.5a306.55,306.55,0,0,0,83.61-53.63l67.72,19.19a5.78,5.78,0,0,0,6.32-2.26l48.24-69.29a5.79,5.79,0,0,0-.08-6.71l-41.5-56.85a306.58,306.58,0,0,0,21.27-97l61.41-34.3a5.78,5.78,0,0,0,2.87-6.07l-14.89-83.1a5.78,5.78,0,0,0-4.8-4.7l-69.5-10.85a306.65,306.65,0,0,0-53.63-83.61l19.19-67.72a5.78,5.78,0,0,0-2.26-6.32Z"/><path class="cls-4" d="M1059.06,1693.53a84,84,0,0,1-23.39-5.19A83.08,83.08,0,1,1,1059.06,1693.53Zm11-149.6a66.58,66.58,0,1,0,18.58,4.13A66,66,0,0,0,1070,1543.93Z"/><path class="cls-4" d="M1048.09,1823.49a212.55,212.55,0,0,1-192.8-174.33,213.67,213.67,0,0,1-2.8-53.63,212.56,212.56,0,0,1,174.34-192.78c1.46-.26,2.92-0.51,4.38-0.73a213.56,213.56,0,0,1,36.19-2.6c1.5,0,3,.06,4.51.11l-0.6,17.17a196.43,196.43,0,0,0-41.45,3h0A193.72,193.72,0,0,0,909,1493.52q-2.5,3.29-4.88,6.71a193.91,193.91,0,0,0-34.5,96.6,196.26,196.26,0,0,0,2.57,49.29,195.13,195.13,0,0,0,226.48,157.66c89.41-16,153.75-90.92,160.2-177.59a195.49,195.49,0,0,0-47.42-142.63l12.94-11.29A212.68,212.68,0,0,1,1276,1627.46c-7,94.3-77,175.8-174.31,193.23A213.74,213.74,0,0,1,1048.09,1823.49Z"/><path class="cls-3" d="M2105.56,1152.17a7.61,7.61,0,0,1-6.24-4.15c-4.5-8.83-9.45-17.54-14.73-25.89a7.62,7.62,0,0,1,12.89-8.15c5.53,8.74,10.72,17.87,15.43,27.12A7.62,7.62,0,0,1,2105.56,1152.17Z"/><path class="cls-3" d="M1834.88,1630.65a7.62,7.62,0,0,1,0-15.21,325.19,325.19,0,0,0,44.28-6.27q7.74-1.64,15.31-3.63a7.62,7.62,0,1,1,3.87,14.74q-7.91,2.09-16,3.8a340,340,0,0,1-46.36,6.57A7.18,7.18,0,0,1,1834.88,1630.65Zm152.89-50a7.63,7.63,0,0,1-3.51-14.05,321.18,321.18,0,0,0,47.77-36.89,7.63,7.63,0,1,1,10.41,11.14,337.09,337.09,0,0,1-50,38.65A7.57,7.57,0,0,1,1987.77,1580.61Zm110.89-116.49a7.63,7.63,0,0,1-6.06-11.36,323.82,323.82,0,0,0,24.72-55.1,7.63,7.63,0,0,1,14.44,4.92,339.6,339.6,0,0,1-25.89,57.7A7.62,7.62,0,0,1,2098.66,1464.12ZM2141.38,1309a7.62,7.62,0,0,1-7-7.76,322.89,322.89,0,0,0-4.41-60.23,7.63,7.63,0,0,1,15-2.54,338.51,338.51,0,0,1,4.62,63.08,7.63,7.63,0,0,1-7.78,7.47Z"/><path class="cls-3" d="M1734.68,1622.35a7.82,7.82,0,0,1-1.23-.19c-10.09-2.43-20.16-5.37-29.94-8.72a7.63,7.63,0,1,1,4.94-14.43c9.34,3.2,19,6,28.59,8.32A7.63,7.63,0,0,1,1734.68,1622.35Z"/><path class="cls-3" d="M1519.2,1453.77a7.62,7.62,0,0,1-6.21-4.09c-4.75-9.17-9.15-18.71-13.06-28.35a7.62,7.62,0,1,1,14.13-5.72c3.73,9.19,7.93,18.3,12.47,27A7.63,7.63,0,0,1,1519.2,1453.77Z"/><path class="cls-3" d="M1483.35,1330.22a7.63,7.63,0,0,1-7-6.94,336.72,336.72,0,0,1-.36-54.33q0.3-4,.69-7.89a7.89,7.89,0,0,1,8.34-6.84,7.63,7.63,0,0,1,6.83,8.34c-0.25,2.5-.46,5-0.65,7.52a321.6,321.6,0,0,0,.34,51.87,7.63,7.63,0,0,1-6.93,8.26A7.75,7.75,0,0,1,1483.35,1330.22Zm24.61-156.3a7.5,7.5,0,0,1-2.4-.58,7.62,7.62,0,0,1-4.06-10,340.28,340.28,0,0,1,29.33-54.82,7.63,7.63,0,0,1,12.73,8.4,324.22,324.22,0,0,0-28,52.35A7.63,7.63,0,0,1,1508,1173.92Zm94.55-126.85a7.62,7.62,0,0,1-4.28-13.49,337,337,0,0,1,51.48-34.9,7.63,7.63,0,1,1,7.35,13.36,321.67,321.67,0,0,0-49.14,33.31A7.58,7.58,0,0,1,1602.51,1047.07ZM1745.29,979a7.62,7.62,0,0,1-1-15.07,339.73,339.73,0,0,1,61.79-6.93,7.46,7.46,0,0,1,7.78,7.47,7.62,7.62,0,0,1-7.47,7.77,324.86,324.86,0,0,0-59,6.63A7.52,7.52,0,0,1,1745.29,979Z"/><path class="cls-3" d="M1932.49,995.06a7.78,7.78,0,0,1-2.24-.51c-9.2-3.64-18.68-6.88-28.17-9.64a7.63,7.63,0,0,1,4.26-14.65c9.94,2.89,19.87,6.28,29.51,10.1A7.63,7.63,0,0,1,1932.49,995.06Z"/><path class="cls-3" d="M1934,1072.15a4,4,0,0,0-4.59.05l-38.89,28.39a209.72,209.72,0,0,0-66.38-14.55l-23.46-42a4,4,0,0,0-4.15-2l-56.85,10.18a4,4,0,0,0-3.21,3.28l-7.42,47.54a209.74,209.74,0,0,0-57.2,36.69l-46.33-13.12a4,4,0,0,0-4.32,1.55l-33,47.4a4,4,0,0,0,.05,4.59l28.39,38.89a209.73,209.73,0,0,0-14.55,66.38l-42,23.46a4,4,0,0,0-2,4.15l10.18,56.85a4,4,0,0,0,3.28,3.21l47.54,7.42a209.74,209.74,0,0,0,36.69,57.2l-13.13,46.33a4,4,0,0,0,1.55,4.32l47.4,33a4,4,0,0,0,4.59-.05l38.89-28.39a209.75,209.75,0,0,0,66.38,14.55l23.46,42a4,4,0,0,0,4.15,2l56.85-10.18a4,4,0,0,0,3.21-3.28l7.42-47.54a209.69,209.69,0,0,0,57.2-36.69l46.32,13.13a4,4,0,0,0,4.33-1.55l33-47.4a4,4,0,0,0-.05-4.59L2009,1374.47a209.74,209.74,0,0,0,14.55-66.38l42-23.46a4,4,0,0,0,2-4.15l-10.18-56.85a4,4,0,0,0-3.28-3.21l-47.54-7.42a209.78,209.78,0,0,0-36.69-57.2l13.13-46.33a4,4,0,0,0-1.55-4.33Z"/><path class="cls-4" d="M1808.28,1359.3a62.71,62.71,0,0,1-21.28-119.7h0A62.72,62.72,0,1,1,1808.28,1359.3Zm-11.85-98.85a39.84,39.84,0,1,0,52.72,19.89,39.89,39.89,0,0,0-52.72-19.89h0Z"/><path class="cls-4" d="M1800.74,1448.24a151,151,0,0,1-136.95-123.83,151.74,151.74,0,0,1-2-38.09,151,151,0,0,1,123.84-136.93,151.48,151.48,0,0,1,32-2.29l-0.81,22.86a128.15,128.15,0,0,0-107,51.16l-0.87,1.17c-0.59.81-1.17,1.62-1.74,2.44a127.16,127.16,0,0,0-22.61,63.33,128.61,128.61,0,0,0,1.68,32.31,128,128,0,0,0,253.52-12.79,128.56,128.56,0,0,0-31.1-93.77l17.24-15A150.93,150.93,0,0,1,1800.74,1448.24Z"/><path class="cls-5" d="M1605.94,2682.6c-198.22-43.71-48.89-337.76-41.86-349.14L1208.86,2458.2s-31.72,170.95,189.33,328.26c55.93,39.8,112.51,57,165.86,60.46C1560.4,2778.3,1580.72,2723.44,1605.94,2682.6Z"/><path class="cls-6" d="M2009.41,2696.13c-58.24-71.18-154.88-44.08-154.88-44.08-115.17,35.87-194.69,42.43-248.59,30.55-25.21,40.84-45.54,95.7-41.89,164.32,115.43,7.57,215.65-49,261-79.77,16.31-11.08,38.59-7.47,50.13,8.52,11.72,16.24,21.75,36.77,14.2,53.22-14.91,32.44,21.4,54.43,27.87,43s10.8-89.1,10.8-89.1,56.22,101.61,78.3,140.79,69.4,19.75,69.4,19.75S2067.65,2767.31,2009.41,2696.13Z"/><path class="cls-7" d="M815.28,1935.65s249.42-196.48,903.57,83c0,0,70.75,78,46.64,173.14S1400.72,2816,1402.36,3053.32c0,0-246.15,168.6-589.4,41.77C813,3095.09,658.46,2478.78,815.28,1935.65Z"/><path class="cls-8" d="M1344.5,1670L1255,1879.74a57.75,57.75,0,0,0,10.23,61.71c30.93,33.72,93.66,77.6,193,39.72a89.06,89.06,0,0,0,56.12-68.6l38.08-229.86Z"/><path class="cls-9" d="M809.2,2722.82c-72.19-124,172.52-520,172.52-520l-166.44-267.2S238.09,2625,534.23,2955.49c42.45,47.37,88.66,75.71,136.64,89.63C682.86,2872.48,754,2774,809.2,2722.82Z"/><path class="cls-10" d="M803.23,2722.66a8.18,8.18,0,0,1-9.38-3.74c-73.82-126.79,162.55-512,172.64-528.38a8.19,8.19,0,0,1,13.94,8.61C978,2203.07,739.09,2592.32,808,2710.69A8.19,8.19,0,0,1,803.23,2722.66Z"/><path class="cls-11" d="M1389.5,2709.16c-44.29,12.28-85.49,34.3-130,45.63-49.41,12.58-98.25,27.35-148,38.56-77.41,17.43-179.25,37.4-247.23-15.8-5.73-4.49-51.83-56.61-55.08-54.73-123.43,71.31-147.43,238-147.43,318.8,225,123.06,579-116.56,674.3-186.59a74.59,74.59,0,0,1,54.38-13.87c39,5.35,106.18,12.53,141.62,4.57,51.84-11.65,139.72,168,220.74,105.21C1752.8,2950.94,1658.14,2634.68,1389.5,2709.16Z"/><path class="cls-12" d="M1634.55,1373.56s56.52,183,51.4,275.23,8,153.85-100,160.48-191.36-56.1-229.52-152.75c0,0-60.07-149.08-36.65-204.78S1634.55,1373.56,1634.55,1373.56Z"/><path class="cls-13" d="M1399.95,1594.94l13.39,1.49s-42.56-119.34,8.15-133.82,247.13-32.22,296.17-95.75c47.28-61.24,21.12-150.08-29.54-179.77a7.17,7.17,0,0,0-9.45,2.34l-5.35,7.86a7.24,7.24,0,0,1-13.12-2.84h0c-1-6.09-8.85-8.26-12.68-3.41-15,19-53,48.27-147,55-133.41,9.54-225.72,52.81-237.92,142.91a7.25,7.25,0,0,1-11.8,4.66c-9-7-24.13-11.44-46.7,3.61-39.26,26.18-33.3,106.1,38.19,179.28a7.2,7.2,0,0,1-1.63,11.5c-15.3,7.7-39,27.42,12.79,63,53,36.41,86.72,36.85,99.67,35a7.24,7.24,0,0,0,6.28-6.84l4-80.61a7.24,7.24,0,0,1,8-6.84Z"/><path class="cls-14" d="M1401.37,1612.05s-16.55-114.74-70-89.05,12,127.83,51.73,136.49Z"/><path class="cls-15" d="M1225.83,3056.83c0.69,0,1.39,0,2.09,0l908.17-14.05c22.45-.34,40.29-17.9,39.85-39.21s-19.07-38.67-41.45-38l-908.17,14.05c-22.45.34-40.29,17.9-39.85,39.21C1186.9,3039.53,1204.33,3056.13,1225.83,3056.83Z"/><path class="cls-16" d="M1579.33,1727.24c-161.81,13.72-294.19-113-295.12-114.88V1583.8c0.89,1.82,140.39,142.63,294.19,129.58Z"/><path class="cls-17" d="M1645.29,1720.22c0,10.77-7.77,19.5-17.36,19.5h-46.3c-9.59,0-17.36-8.73-17.36-19.5h0c0-10.77,7.77-19.5,17.36-19.5h46.3c9.59,0,17.36,8.73,17.36,19.5h0Z"/><path class="cls-18" d="M1366.88,1440.12s-37-197.17,191-198.27a2.66,2.66,0,0,0,.61-5.25c-62.44-14.39-243.68-35.7-246.41,200.91C1346.78,1450,1366.88,1440.12,1366.88,1440.12Z"/><path class="cls-19" d="M1325.11,1416.07c-88.95,18.05-78,130.54-78,130.54-6.41,81.63,17.42,122.1,47.95,141.38a70.28,70.28,0,0,0,107.56-54.28c1.64-22.22,3.52-43.33,5.17-50.83C1411.77,1564.7,1414.06,1398,1325.11,1416.07Z"/><path class="cls-20" d="M1333.28,1444.51a40.43,40.43,0,0,0-44.1,23.81c-53.16,123.15,12.11,203.26,44.15,204.94,33.77,1.76,33.09-160.72,25.92-202.38C1356.24,1453.42,1345.15,1446.57,1333.28,1444.51Z"/><path class="cls-21" d="M497.23,3087.88c-1.52-11.22.55-22.82,5.63-31.63s12.64-13.92,20.62-13.92H3226.17c10.49,0,20.26,7.66,25.91,20.32s6.41,28.57,2,42.21l-29.29,90.77c-6.71,20.79-21.24,34.1-37.23,34.1H542c-14.88,0-27.66-15.1-30.49-36Z"/><path class="cls-3" d="M3187.57,3233.08H542c-16.54,0-30.76-16.37-33.8-38.92l-14.3-105.83c-1.62-12,.59-24.28,6-33.75,5.71-9.91,14.28-15.6,23.52-15.6H3226.16c11.91,0,22.74,8.34,29,22.3,6,13.46,6.81,30.13,2.14,44.6L3228,3196.66C3220.85,3218.78,3205,3233.08,3187.57,3233.08Zm-2687-145.64,14.3,105.83c2.59,19.19,14,33.12,27.17,33.12H3187.57c14.45,0,27.81-12.47,34-31.77l29.29-90.77A57.15,57.15,0,0,0,3249,3064c-5.13-11.48-13.67-18.33-22.86-18.33H523.48c-6.78,0-13.24,4.46-17.72,12.24-4.73,8.21-6.63,19-5.21,29.51h0Z"/><path class="cls-22" d="M1926.39,2010.94c-15.27,124.74-83.94,631.56-103.6,776.37a33.24,33.24,0,0,0,34,37.69l1165-33.34a33.3,33.3,0,0,0,31.55-26.06l181.23-816.16A33.3,33.3,0,0,0,3200.1,1909l-1242.6,72.78A33.26,33.26,0,0,0,1926.39,2010.94Z"/><path class="cls-23" d="M2394.69,2522.76L2222.5,3011.47l400.37,8.49,33.34-494.26a38.41,38.41,0,0,0-40.87-40.91l-187,12.41A38.41,38.41,0,0,0,2394.69,2522.76Z"/><path class="cls-3" d="M2626,3023.37l-3.2-.07-405-8.58,173.72-493.07a41.72,41.72,0,0,1,36.62-27.79l187-12.41a41.76,41.76,0,0,1,44.43,44.48Zm-398.8-15.15,392.55,8.32,33.12-491.07a35.06,35.06,0,0,0-37.3-37.34l-187,12.41a35,35,0,0,0-30.75,23.33Z"/><path class="cls-24" d="M2060.19,3018.43h0a20.79,20.79,0,0,0,19.76,27.28h627a20.79,20.79,0,0,0,20.79-20.79V2998a20.79,20.79,0,0,0-21.69-20.78l-627,26.89A20.8,20.8,0,0,0,2060.19,3018.43Z"/><path class="cls-3" d="M2706.95,3049.06h-627a24.14,24.14,0,0,1-22.94-31.67,24.26,24.26,0,0,1,21.9-16.59l627-26.89a24.14,24.14,0,0,1,25.18,24.12v26.89A24.17,24.17,0,0,1,2706.95,3049.06Zm0-68.48-0.77,0-627,26.89a17.53,17.53,0,0,0-15.83,12h0a17.45,17.45,0,0,0,16.58,22.89h627a17.46,17.46,0,0,0,17.45-17.44V2998A17.45,17.45,0,0,0,2707,2980.57Z"/><path class="cls-3" d="M1908.79,2526.54l-8.27-1,57.24-451.42a58.78,58.78,0,0,1,54.74-51.26L3086.31,1958l0.5,8.31L2013,2031.13a50.44,50.44,0,0,0-47,44Z"/><rect class="cls-3" x="1832.91" y="2699.3" width="98.51" height="8.33" transform="matrix(0.13, -0.99, 0.99, 0.13, -1035.46, 4232.76)"/><path class="cls-25" d="M1599.28,521.42V791a60,60,0,0,0,57.17,59.91l337.14,15.84a60,60,0,0,0,62.8-59.92V521.42a60,60,0,0,0-60-60H1659.26A60,60,0,0,0,1599.28,521.42Z"/><path class="cls-1" d="M1944.54,786.12H1712.2a31.61,31.61,0,0,1-31.58-31.58V584.64a31.61,31.61,0,0,1,31.58-31.58h232.34a31.61,31.61,0,0,1,31.58,31.58V754.55A31.61,31.61,0,0,1,1944.54,786.12ZM1712.2,573.87a10.78,10.78,0,0,0-10.77,10.77V754.55a10.78,10.78,0,0,0,10.77,10.77h232.34a10.78,10.78,0,0,0,10.77-10.77V584.64a10.78,10.78,0,0,0-10.77-10.77H1712.2Z"/><path class="cls-1" d="M1828.58,673.34a10.38,10.38,0,0,1-6-1.92L1692.37,579.1a10.4,10.4,0,1,1,12-17l124.17,88.05,122.55-87a10.4,10.4,0,1,1,12.05,17L1834.6,671.42A10.39,10.39,0,0,1,1828.58,673.34Z"/><path class="cls-1" d="M1700,778.86l-3-20.59,1.41,10.31-8.72-5.67c2.41-3.88,49.37-86,80.34-140.26A10.4,10.4,0,0,1,1788.08,633s-20.09,35.18-40.21,70.37c-10.06,17.6-20.14,35.2-27.72,48.4C1705,778.07,1705,778.07,1700,778.86Z"/><path class="cls-1" d="M1956.37,778.85c-5-.8-5-0.8-20.13-27.11-7.58-13.21-17.66-30.8-27.72-48.4-20.13-35.19-40.21-70.37-40.21-70.37a10.41,10.41,0,1,1,18.07-10.32c31,54.25,77.92,136.37,80.34,140.25l-8.72,5.67Z"/><path class="cls-26" d="M2292.64,819.49v237.14a52.76,52.76,0,0,0,50.28,52.7l296.54,13.93a52.76,52.76,0,0,0,55.23-52.7V819.49a52.76,52.76,0,0,0-52.76-52.76H2345.4A52.76,52.76,0,0,0,2292.64,819.49Z"/><path class="cls-1" d="M2368.52,1104.45a16.26,16.26,0,0,1-11.23-4.05l-8.58-7.87c-4.16-3.81-5.88-9.67-4.86-16.48a36.18,36.18,0,0,1,9.41-18.61l5.72-6.24q0.61-.66,1.24-1.29l107-107a2.63,2.63,0,1,1,3.72,3.72l-107,107c-0.37.37-.73,0.75-1.08,1.13l-5.72,6.24a30.89,30.89,0,0,0-8.08,15.83c-0.76,5,.38,9.23,3.21,11.82l8.58,7.87c6,5.53,18.45,2.22,27.13-7.23l5.72-6.24q0.53-.58,1-1.18l85.41-101.59a2.63,2.63,0,0,1,4,3.39l-85.41,101.59q-0.58.69-1.19,1.35l-5.72,6.24C2385,1100.35,2376.15,1104.45,2368.52,1104.45Zm2.59-16.78a10.89,10.89,0,0,1-7.55-2.72c-6-5.46-4-17,4.55-26.27a30.48,30.48,0,0,1,13.19-8.73c5.09-1.54,9.56-.85,12.59,1.93s4.1,7.17,3,12.38a30.48,30.48,0,0,1-7.56,13.89C2383.71,1084.28,2376.84,1087.67,2371.12,1087.67Zm15.26-33.25a12.68,12.68,0,0,0-3.55.57,25.18,25.18,0,0,0-10.82,7.25c-6.18,6.74-8.46,15.54-4.87,18.82,3.19,2.92,11.5,1,18.33-6.48h0a25.16,25.16,0,0,0,6.29-11.41c0.4-1.92.75-5.43-1.41-7.42A5.71,5.71,0,0,0,2386.37,1054.42Zm133.18-114.29a2.63,2.63,0,0,1-2-4.33l30.81-36.65,1.93,1.18c24,14.61,52.78,10.62,71.63-9.93a62.28,62.28,0,0,0,16.27-48.56,5.77,5.77,0,0,0-4-5,6,6,0,0,0-6.4,1.65l-33.2,36.2a14,14,0,0,1-11.44,4.45l-17.86-1.54a13.92,13.92,0,0,1-12.51-11.47l-3.07-17.66a14,14,0,0,1,3.45-11.78l33.2-36.2a6,6,0,0,0,1.09-6.52,5.77,5.77,0,0,0-5.3-3.6,62.37,62.37,0,0,0-47,20.39c-18.85,20.55-20.34,49.57-3.72,72.22l1.34,1.82-39.92,39.92a2.63,2.63,0,0,1-3.72-3.72l36.75-36.75c-16.75-24.45-14.69-55.15,5.39-77a67.41,67.41,0,0,1,51-22.1,11.05,11.05,0,0,1,10,6.79,11.23,11.23,0,0,1-2.05,12.15l-33.2,36.2a8.69,8.69,0,0,0-2.14,7.32l3.07,17.66a8.64,8.64,0,0,0,7.77,7.13l17.86,1.54a8.67,8.67,0,0,0,7.11-2.77l33.2-36.2a11.24,11.24,0,0,1,11.93-3.09,11.05,11.05,0,0,1,7.63,9.42A67.56,67.56,0,0,1,2625.79,894c-20.09,21.9-50.49,26.59-76.29,12l-27.93,33.21A2.63,2.63,0,0,1,2519.55,940.13Z"/><path class="cls-1" d="M2599.72,1105.81q-1.05,0-2.11-.09a24.28,24.28,0,0,1-16.9-8.91L2481.47,975.3a12.44,12.44,0,0,1,1.46-17.32l19.57-17.08a12.44,12.44,0,0,1,17.35.9l106.93,114.81a24.48,24.48,0,0,1-1.82,35.13l-9.21,8A24.25,24.25,0,0,1,2599.72,1105.81Zm-92.6-159.61-19.57,17.08a5.45,5.45,0,0,0-.64,7.58l99.25,121.51a17.45,17.45,0,0,0,25,2.11l9.21-8a17.45,17.45,0,0,0,1.3-25L2514.72,946.6a5.45,5.45,0,0,0-7.6-.39h0Z"/><path class="cls-1" d="M2487.71,960.16l-86.14-100.75a6.24,6.24,0,0,1-3.66-1.27l-25.84-19.82a5.9,5.9,0,0,1-1.68-2l-11.45-22.66A7.23,7.23,0,0,1,2361,805l6.45-5.63a7.23,7.23,0,0,1,8.81-.9l20.93,14.44a5.87,5.87,0,0,1,1.71,1.81l16.72,27.72a6.4,6.4,0,0,1,.65,4.95L2505,947.11Zm-84-106.36L2488.5,953l8.81-6.63-87.25-98,0.9-1.63a1.61,1.61,0,0,0,.18-1.5l-16.72-27.72a0.63,0.63,0,0,0-.19-0.2l-20.93-14.44a2.15,2.15,0,0,0-2.36.53l-6.45,5.63a2.15,2.15,0,0,0-.84,2.26l11.45,22.66a0.65,0.65,0,0,0,.19.23L2401.11,854a1.39,1.39,0,0,0,1.08.14Z"/><path class="cls-27" d="M875.09,692.25V975.8a63.09,63.09,0,0,0,60.12,63l354.59,16.66a63.09,63.09,0,0,0,66-63V692.25a63.09,63.09,0,0,0-63.09-63.09H938.17A63.09,63.09,0,0,0,875.09,692.25Z"/><path class="cls-1" d="M1128.6,867.29c0,25.2-1.76,50.45-6.18,75.29-1.12,6.21-2.42,12.38-4,18.5a178.52,178.52,0,0,1-5.54,18.1,86,86,0,0,1-8.26,17.06,34,34,0,0,1-6.2,7.26,17.67,17.67,0,0,1-4.06,2.63,12.13,12.13,0,0,1-4.74,1.12,11.92,11.92,0,0,1-4.79-.88,16.59,16.59,0,0,1-4.15-2.48,32.28,32.28,0,0,1-6.33-7.14,83.13,83.13,0,0,1-8.38-17,174.73,174.73,0,0,1-5.6-18.08c-1.56-6.11-2.87-12.28-4-18.49-2.25-12.41-3.79-24.94-4.83-37.5s-1.55-25.17-1.61-37.78c0-6.3.14-12.6,0.36-18.9s0.58-12.59,1-18.88c0.93-12.57,2.32-25.11,4.38-37.55,1-6.22,2.24-12.41,3.69-18.54a178.66,178.66,0,0,1,5.24-18.17c1.05-3,2.21-5.92,3.52-8.79a64.5,64.5,0,0,1,4.51-8.34,31,31,0,0,1,6.2-7.19,15.78,15.78,0,0,1,4.1-2.46,11.5,11.5,0,0,1,4.71-.84,12.44,12.44,0,0,1,4.65,1.09,18.16,18.16,0,0,1,4,2.53,34.6,34.6,0,0,1,6.33,7.07,85.23,85.23,0,0,1,8.68,16.8,172.91,172.91,0,0,1,5.95,18c1.67,6.08,3.09,12.23,4.32,18.41A396.55,396.55,0,0,1,1128.6,867.29Zm-1.86,0c0-12.55-.45-25.11-1.49-37.63a363.68,363.68,0,0,0-4.89-37.32c-1.15-6.17-2.5-12.3-4.1-18.37a172,172,0,0,0-5.72-17.91,84.4,84.4,0,0,0-8.41-16.73,33.88,33.88,0,0,0-6.12-7,17.57,17.57,0,0,0-3.88-2.49,11.56,11.56,0,0,0-4.43-1.08,10.84,10.84,0,0,0-4.47.84,15.17,15.17,0,0,0-3.91,2.41,30.38,30.38,0,0,0-6,7.1,63.59,63.59,0,0,0-4.36,8.28c-1.27,2.86-2.38,5.79-3.39,8.75a177.76,177.76,0,0,0-5,18.12c-1.38,6.12-2.51,12.3-3.47,18.5-1.92,12.41-3.17,24.92-4,37.45s-1.07,25.1-1,37.65,0.38,25.11,1.31,37.63,2.37,25,4.52,37.37c1.08,6.18,2.33,12.33,3.84,18.42a173.2,173.2,0,0,0,5.41,18,82,82,0,0,0,8.12,16.82,31.29,31.29,0,0,0,6.06,7,15.56,15.56,0,0,0,3.88,2.36,10.64,10.64,0,0,0,4.38.84,11.07,11.07,0,0,0,4.34-1.07,16.64,16.64,0,0,0,3.8-2.5,33,33,0,0,0,5.94-7.07,84.81,84.81,0,0,0,8-16.88,177.51,177.51,0,0,0,5.35-18c1.49-6.09,2.73-12.24,3.8-18.42,2.13-12.37,3.55-24.86,4.49-37.37S1126.74,879.85,1126.74,867.29Z"/><path class="cls-1" d="M1089.3,1010.92a15.66,15.66,0,0,1-5.8-1.16,20,20,0,0,1-5.06-3,35.34,35.34,0,0,1-7.08-8,86,86,0,0,1-8.78-17.77,177.79,177.79,0,0,1-5.72-18.47c-1.51-5.89-2.84-12-4.06-18.74-2.16-11.9-3.75-24.28-4.87-37.86-1-12.34-1.56-25.14-1.62-38.06,0-6.75.16-13.42,0.36-19,0.24-6.4.59-12.8,1.05-19,1-13.65,2.45-26,4.42-37.88,1.12-6.75,2.35-12.89,3.74-18.79a181.24,181.24,0,0,1,5.35-18.54c1.19-3.37,2.38-6.35,3.64-9.1a68,68,0,0,1,4.76-8.81,34.17,34.17,0,0,1,7-8,19.4,19.4,0,0,1,5.06-3,15.28,15.28,0,0,1,6.19-1.09,16,16,0,0,1,6,1.4,21.56,21.56,0,0,1,4.87,3,37.63,37.63,0,0,1,7,7.81,88,88,0,0,1,9.08,17.54,175.08,175.08,0,0,1,6.08,18.35c1.63,5.91,3.06,12,4.38,18.68,4.61,23.51,6.89,48.34,7,75.91h0c0,27.74-2.08,52.58-6.24,75.93-1.21,6.71-2.53,12.84-4,18.76a181,181,0,0,1-5.65,18.48,89,89,0,0,1-8.63,17.8,37.1,37.1,0,0,1-6.89,8,21.33,21.33,0,0,1-4.91,3.17,15.67,15.67,0,0,1-6.18,1.44h-0.42Zm-1.91-278.48a7.26,7.26,0,0,0-2.77.57,11.56,11.56,0,0,0-3,1.85,26.3,26.3,0,0,0-5.22,6.24,59.67,59.67,0,0,0-4.1,7.8c-1.13,2.54-2.2,5.3-3.28,8.45a173.39,173.39,0,0,0-4.91,17.74c-1.29,5.73-2.41,11.7-3.43,18.26-1.8,11.61-3.08,23.75-3.92,37.11-0.73,11.42-1.07,23.66-1,37.42,0,12.7.41,25.26,1.3,37.37,1,13.29,2.46,25.39,4.48,37,1.13,6.5,2.37,12.44,3.79,18.16a169.61,169.61,0,0,0,5.3,17.6,77.8,77.8,0,0,0,7.74,16.06,27.18,27.18,0,0,0,5.31,6.13,11.86,11.86,0,0,0,2.94,1.81,7.76,7.76,0,0,0,2.89.57,7.47,7.47,0,0,0,2.93-.74,13.05,13.05,0,0,0,2.95-2,28.93,28.93,0,0,0,5.25-6.29,80.46,80.46,0,0,0,7.63-16.13,172.86,172.86,0,0,0,5.23-17.62c1.39-5.69,2.62-11.64,3.75-18.17,2-11.51,3.44-23.62,4.45-37,0.92-12.08,1.39-24.65,1.38-37.36h0c0-12.67-.47-25.22-1.48-37.32a357.23,357.23,0,0,0-4.84-36.95c-1.2-6.44-2.53-12.36-4-18.11a167.45,167.45,0,0,0-5.59-17.52,80.1,80.1,0,0,0-8-16,29.86,29.86,0,0,0-5.43-6.23,14,14,0,0,0-3.06-2,7.83,7.83,0,0,0-3-.75h-0.21Z"/><path class="cls-1" d="M1191.92,867.29a184.4,184.4,0,0,1-6.49,48.11,155.2,155.2,0,0,1-20.05,44.12,127.06,127.06,0,0,1-15.31,18.83,107.59,107.59,0,0,1-18.85,15.23,90.73,90.73,0,0,1-22,10.1,82,82,0,0,1-47.83,0,90.74,90.74,0,0,1-22-10.08,107.58,107.58,0,0,1-18.88-15.22,127,127,0,0,1-15.34-18.82,155.41,155.41,0,0,1-20.1-44.13,175.42,175.42,0,0,1-4.87-23.85,180.14,180.14,0,0,1,0-48.58,175.21,175.21,0,0,1,4.88-23.85,155.32,155.32,0,0,1,20.13-44.1,126.91,126.91,0,0,1,15.35-18.8,107.19,107.19,0,0,1,18.87-15.2,91.11,91.11,0,0,1,22-10,81.38,81.38,0,0,1,47.75,0,91,91,0,0,1,22,10.06A107.16,107.16,0,0,1,1150,756.3a126.83,126.83,0,0,1,15.32,18.8,155.09,155.09,0,0,1,20.08,44.08A184.38,184.38,0,0,1,1191.92,867.29Zm-2.13,0a182.25,182.25,0,0,0-6.23-47.59,154.5,154.5,0,0,0-19.41-43.81,125.6,125.6,0,0,0-15-18.77,104.65,104.65,0,0,0-18.52-15.24,89.28,89.28,0,0,0-21.71-10.08,79.36,79.36,0,0,0-47.28,0,89.2,89.2,0,0,0-21.7,10.09,104.64,104.64,0,0,0-18.49,15.25,125.6,125.6,0,0,0-14.94,18.77,154.28,154.28,0,0,0-19.36,43.8,176.59,176.59,0,0,0-4.66,23.57,184,184,0,0,0,0,48,176.23,176.23,0,0,0,4.67,23.56,154.21,154.21,0,0,0,19.39,43.77,125.49,125.49,0,0,0,14.94,18.75A104.24,104.24,0,0,0,1040,992.57a89.58,89.58,0,0,0,21.68,10.06,78.79,78.79,0,0,0,47.2,0,89.61,89.61,0,0,0,21.7-10,104.39,104.39,0,0,0,18.51-15.21,125.53,125.53,0,0,0,15-18.75,154.45,154.45,0,0,0,19.44-43.78A182.25,182.25,0,0,0,1189.79,867.29Z"/><path class="cls-1" d="M1085.31,1010.92a86.36,86.36,0,0,1-25-3.71,94.17,94.17,0,0,1-22.9-10.49A111.09,111.09,0,0,1,1017.91,981a131.26,131.26,0,0,1-15.79-19.36,158.67,158.67,0,0,1-20.59-45.18,179.71,179.71,0,0,1-5-24.37,183.67,183.67,0,0,1,0-49.56,179.31,179.31,0,0,1,5-24.35A158.62,158.62,0,0,1,1002.18,773,130.66,130.66,0,0,1,1018,753.65a110.94,110.94,0,0,1,19.52-15.71,94.62,94.62,0,0,1,22.88-10.45,85,85,0,0,1,49.86,0A94.6,94.6,0,0,1,1133.1,738a111.07,111.07,0,0,1,19.5,15.73,130.71,130.71,0,0,1,15.76,19.35,158.34,158.34,0,0,1,20.56,45.13,187.93,187.93,0,0,1,6.66,49.08v0a187.84,187.84,0,0,1-6.63,49.07,158.4,158.4,0,0,1-20.54,45.18,130.57,130.57,0,0,1-15.76,19.37,111.36,111.36,0,0,1-19.5,15.75,94.39,94.39,0,0,1-22.89,10.5A86.52,86.52,0,0,1,1085.31,1010.92Zm0-279a78.18,78.18,0,0,0-22.56,3.45,85.72,85.72,0,0,0-20.81,9.69,101,101,0,0,0-17.83,14.71,122.14,122.14,0,0,0-14.5,18.23,150.29,150.29,0,0,0-18.89,42.75,174,174,0,0,0-4.56,23.08,180.24,180.24,0,0,0,0,47,173.5,173.5,0,0,0,4.57,23.07,150.25,150.25,0,0,0,18.92,42.72,121.58,121.58,0,0,0,14.5,18.21A100.94,100.94,0,0,0,1042,989.48a85.94,85.94,0,0,0,20.78,9.64,75.16,75.16,0,0,0,45.07,0,86.11,86.11,0,0,0,20.81-9.64,100.83,100.83,0,0,0,17.85-14.68,122.32,122.32,0,0,0,14.53-18.2,150.52,150.52,0,0,0,19-42.74,180.72,180.72,0,0,0,0-93.22,150.56,150.56,0,0,0-18.94-42.77,122.32,122.32,0,0,0-14.53-18.22A101.2,101.2,0,0,0,1128.7,745a85.55,85.55,0,0,0-20.81-9.66A78.13,78.13,0,0,0,1085.3,731.88Z"/><path class="cls-1" d="M960.9,811.91l32-.26,32-.15,64-.12,64,0.13,32,0.16,32,0.28a0.09,0.09,0,0,1,.09.1,0.17,0.17,0,0,1-.09.09l-32,.28-32,.16-64,.13-64-.12-32-.15-32-.26a0.22,0.22,0,0,1-.14-0.06C960.76,812,960.82,811.91,960.9,811.91Z"/><polygon class="cls-1" points="1088.97 816.38 992.9 816.12 959.35 815.84 957.11 813.6 957.11 811.96 957.19 808.37 960.87 808.23 1024.91 807.83 1088.96 807.71 1185.04 808 1220.69 808.31 1220.79 815.72 1217.03 815.81 1153.02 816.25 1088.97 816.38"/><path class="cls-1" d="M998,758.07c7.58-.12,15.15-0.17,22.73-0.26l22.73-.15c7.58-.06,15.15-0.06,22.73-0.08l22.73,0,45.46,0.13,22.73,0.16c7.58,0.1,15.15.15,22.73,0.28a0.15,0.15,0,0,1,.09,0c0,0.1,0,.14-0.09.14-7.58.13-15.15,0.18-22.73,0.28l-22.73.16-45.46.13-22.73,0c-7.58,0-15.15,0-22.73-.08l-22.73-.15c-7.58-.09-15.15-0.14-22.73-0.26A0.14,0.14,0,0,1,998,758.07Z"/><path class="cls-1" d="M1089,762.55l-28.64-.06c-5.62,0-11.24,0-16.86-.06l-30.31-.23c-5.06-.05-10.12-0.1-15.18-0.18l-3.6-.06-0.14-7.43,3.74-.14c4.9-.08,9.79-0.13,14.69-0.18l30.81-.23q8-.06,16-0.06l29.47-.06,76.5,0.38c4.83,0.05,9.66.1,14.49,0.19l3.73,0.06-0.17,7.38-3.62.09c-5,.09-10.06.14-15.12,0.19l-30.32.25Z"/><path class="cls-1" d="M949.77,865.74l34.8-.26,34.8-.15,69.6-.12,69.6,0.13,34.8,0.16,34.8,0.28a0.09,0.09,0,0,1,.09.09,0.17,0.17,0,0,1-.09.09l-34.8.28-34.8.16-69.6.13-69.6-.12-34.8-.15-34.8-.26A0.14,0.14,0,0,1,949.77,865.74Z"/><polygon class="cls-1" points="1088.97 870.22 984.56 869.95 946.12 869.66 945.98 862.21 949.75 862.07 1019.36 861.66 1088.96 861.54 1193.38 861.83 1229.72 862.12 1231.93 864.38 1231.79 869.55 1228.16 869.65 1158.58 870.09 1088.97 870.22"/><path class="cls-1" d="M960.9,919.57l32-.26,32-.15,64-.12,64,0.13,32,0.16,32,0.28a0.15,0.15,0,0,1,.09,0c0,0.1,0,.15-0.09.15l-32,.28-32,.16-64,.13-64-.12-32-.15-32-.26A0.14,0.14,0,0,1,960.9,919.57Z"/><polygon class="cls-1" points="1088.97 924.05 992.9 923.78 959.35 923.51 957.11 921.27 957.11 919.63 957.19 916.04 960.87 915.9 1024.92 915.49 1088.96 915.37 1185.04 915.66 1220.69 915.98 1220.79 923.38 1217.03 923.48 1153.02 923.92 1088.97 924.05"/><path class="cls-1" d="M1184.47,974H1002.62a0.49,0.49,0,0,1,0-1h181.85A0.49,0.49,0,0,1,1184.47,974Z"/><path class="cls-1" d="M1184.47,977.71H1002.63a4.16,4.16,0,0,1,0-8.33h181.84A4.16,4.16,0,0,1,1184.47,977.71Z"/><path class="cls-1" d="M1089,1013.8c-82.46,0-149.54-66.35-149.54-147.91S1006.5,718,1089,718s149.54,66.35,149.54,147.91S1171.41,1013.8,1089,1013.8Zm0-282.69c-75.22,0-136.42,60.46-136.42,134.78s61.2,134.78,136.42,134.78,136.41-60.46,136.41-134.78S1164.17,731.11,1089,731.11Z"/><path class="cls-1" d="M1232.72,746.22h-42.94V735.1L1204,714.95a144.34,144.34,0,0,0,8.05-12.35,37.6,37.6,0,0,0,3.23-7.72,28.09,28.09,0,0,0,1-7.64q0-4.6-2.05-6.9a6.82,6.82,0,0,0-5.34-2.3,10.25,10.25,0,0,0-5.42,1.53,30.58,30.58,0,0,0-6.13,5.53l-8.33-8.76q5.75-6.52,10.68-8.93a24,24,0,0,1,10.68-2.41q9.69,0,15.14,5.7t5.45,15.83a37.22,37.22,0,0,1-1,8.71,40.84,40.84,0,0,1-3,8.24,69.87,69.87,0,0,1-5,8.6q-3,4.47-15.55,20.46V733h26.24v13.25Z"/><path class="cls-1" d="M1287.93,729.41h-8.11v16.81h-14V729.41h-26.13V717.3l24.21-51.16h15.94v50.94h8.11v12.32Zm-22.13-12.32V700.21l0.27-7.45,0.38-7.12H1266a92.82,92.82,0,0,1-4.16,10.79l-9.64,20.65h13.58Z"/></svg>