<svg id="Слой_1" data-name="Слой 1" xmlns="http://www.w3.org/2000/svg" viewBox="0 0 2000 2000"><defs><style>.cls-1{fill:#fff;}.cls-2{fill:#d7e9f4;}.cls-3{fill:#0e2549;}.cls-4{fill:#a1c5e2;}.cls-5{fill:#e2474b;}.cls-6{fill:#1e5272;}.cls-7{fill:#2e6b99;}.cls-8{fill:#ebf4fe;}.cls-9{fill:#d2ebfc;}</style></defs><title>karyawan-1</title><rect class="cls-1" width="2000" height="2000"/><path class="cls-2" d="M112.62,1611.79s166.89-704,353.55-763.28S701.35,915.32,790,907.21s386-256.5,492.22-355.05c180.91-167.84,688.6-265.18,582.7-10.05-88.66,213.59-404.32,551.51-358,644.26,9,18,201.28-105.13,253.17-89.07,232.62,72-78.3,515.19-78.3,515.19Z"/><path class="cls-1" d="M1917,630.4H1739.15V566.34H1786a1.5,1.5,0,0,0,0-3H1677.15V503H1841a1.5,1.5,0,0,0,0-3H1527a1.5,1.5,0,0,0,0,3h33.49v60.32H1472a1.5,1.5,0,0,0,0,3h158.16V630.4H1603a1.5,1.5,0,0,0,0,3h314A1.5,1.5,0,0,0,1917,630.4Zm-353.54-67.06V503h110.67v60.32H1563.48Zm172.67,67.06h-103V566.34h103V630.4Z"/><path class="cls-1" d="M436.5,1404.31H348V1344H381.5a1.5,1.5,0,0,0,0-3H175a1.5,1.5,0,0,0,0,3h56.36v60.32H122.48a1.5,1.5,0,0,0,0,3h46.87v64.06H120a1.5,1.5,0,1,0,0,3H305.5a1.5,1.5,0,0,0,0-3H278.34v-64.06H436.5A1.5,1.5,0,0,0,436.5,1404.31Zm-161.16,67.06h-103v-64.06h103v64.06Zm-41-67.06V1344H345v60.32H234.34Z"/><polygon class="cls-1" points="1144.66 1542.29 1144.61 1573.7 1101.09 1573.7 1097.46 1543.9 1144.66 1542.29"/><path class="cls-3" d="M1146.23,1575.33h-46.58l-4-33,50.66-1.73Zm-43.7-3.25H1143L1143,1544l-43.74,1.49Z"/><path class="cls-4" d="M1147,1571.81s62.89,20,65.06,36.41H1099.28v-36.41H1147Z"/><polygon class="cls-1" points="969.24 1542.98 968.06 1574.75 924.54 1574.75 922.48 1542.29 969.24 1542.98"/><path class="cls-3" d="M969.62,1576.38H923l-2.27-35.74,50.19,0.74Zm-43.56-3.25h40.42l1.07-28.55-43.34-.63Z"/><path class="cls-4" d="M970.44,1572.86s62.89,20,65.06,36.41H922.73v-36.41h47.71Z"/><polygon class="cls-3" points="1039.61 1603.02 1039.61 1612.48 919.79 1612.48 919.79 1601.66 1039.61 1603.02"/><polygon class="cls-3" points="1095.76 1601.35 1095.76 1611.43 1215.58 1611.43 1215.58 1600.61 1095.76 1601.35"/><polygon class="cls-3" points="983.68 1548.76 914.41 1548.76 908.51 993.62 1108.15 1028.1 1155.67 1548.76 1089 1548.76 1019.2 1202.83 1027.19 1126.98 983.68 1548.76"/><path class="cls-4" d="M936.57,1538.17h0a1.63,1.63,0,0,1-1.59-1.66l10.23-459.78a1.65,1.65,0,0,1,1.66-1.59,1.63,1.63,0,0,1,1.59,1.66L938.2,1536.58A1.63,1.63,0,0,1,936.57,1538.17Z"/><path class="cls-4" d="M1104.7,1536.26l-71-403.54a1.62,1.62,0,0,0-.77-1.11l3.86-22.8,0-.13v-45.5a1.63,1.63,0,0,0-3.25,0v45.23l-16,94.15a1.63,1.63,0,0,0,1.33,1.88l0.27,0a1.63,1.63,0,0,0,1.6-1.36l10.78-63.6,69.91,397.32a1.63,1.63,0,0,0,1.6,1.34l0.28,0A1.63,1.63,0,0,0,1104.7,1536.26Z"/><path class="cls-1" d="M1057.86,1063.18s-0.67,46-8.67,47.46h-76.5c-2.5-2.41-6.5-16.14,17.5-16.64s31.14,0,31.14,0l-1.14-30.82h37.67Z"/><path class="cls-3" d="M1049.32,1112H972.13l-0.4-.39c-1.72-1.66-3.26-6.13-1.66-10.2,1.52-3.87,6.23-8.54,20.1-8.83,18.06-.38,26.55-0.19,29.72-0.07l-1.14-30.75h40.53l0,1.41c-0.16,11-1.34,47.22-9.8,48.81Zm-76-2.79H1049c4.1-1.13,7-23.68,7.4-44.67h-34.8l1.14,30.92-1.55-.11c-0.07,0-7.41-.49-31,0-12.33.26-16.36,4-17.56,7.06A7.86,7.86,0,0,0,973.34,1109.25Z"/><path class="cls-1" d="M1150.58,695.52s-18.47,49.74-15.89,56.48,3,32.72,3,32.72l-50.11,96.34-82.21-30.65,17.55-87.84s46.88-21.11,50.92-26.93c5.59-8.06,18.3-55.69,18.3-55.69Z"/><path class="cls-3" d="M1088.32,883l-84.71-31.58,18-89.9,0.72-.33c18.69-8.41,47.5-22.39,50.29-26.41,5.38-7.75,18-54.74,18.08-55.21a1.54,1.54,0,1,1,3,.79c-0.52,2-12.84,48-18.52,56.18-4,5.77-43.49,23.81-50.83,27.13l-17.14,85.77,79.7,29.71,49.3-94.78c-0.07-3.25-.61-25.84-2.9-31.81-2.65-6.93,12.76-49.17,15.88-57.57a1.54,1.54,0,0,1,2.89,1.07c-7.06,19-17.62,50.88-15.89,55.39,2.65,6.91,3.09,32.18,3.11,33.25v0.39l-0.18.35Z"/><path class="cls-3" d="M1170.48,590.24c10,4.57,34.43,15.37,28.22,33.92-7.08,21.16-19.76,47.17-26.68,60.78a12.14,12.14,0,0,1-14.68,6l-63.88-21.38a12.15,12.15,0,0,1-8-14.05c4.32-20.36,13.84-63.36,18.26-68.84C1118.75,568,1154.65,583,1170.48,590.24Z"/><path class="cls-1" d="M1093.78,685.05c-2.25-4.74,1.11-19.38,6.13-35.68a1.42,1.42,0,0,0-.28-1.34c-3.36-3.9-7.64-11.28-4.78-19.24,2.48-6.9,7-3.76,10.21-.2a1.12,1.12,0,0,0,1.89-.43c6.84-19.4,13.63-36.14,13.63-36.14l75.91,25.41s-6,17.34-13.23,36.6c-0.33.86-19.08,46.32-22.32,49.92a13.69,13.69,0,0,1-7.37,3.92s-6.2,2.35-33.79-6.88Z"/><path class="cls-3" d="M1150.88,709.68c-4.25,0-13.35-1.13-31.57-7.23a1.55,1.55,0,0,1,1-2.94c26.12,8.74,32.74,6.9,32.8,6.88l0.16,0a12.18,12.18,0,0,0,6.56-3.45c2.91-3.24,21.33-47.63,22-49.43,6-15.81,11.1-30.49,12.7-35.08l-73-24.45c-1.75,4.36-7.42,18.71-13.07,34.72a2.7,2.7,0,0,1-2,1.78,2.62,2.62,0,0,1-2.47-.82c-2.13-2.37-4.05-3.6-5.26-3.35s-1.89,1.77-2.34,3c-2.86,8,2.19,15,4.49,17.71a3,3,0,0,1,.58,2.8c-7.75,25.15-7.22,32.45-6.22,34.57a1.55,1.55,0,1,1-2.8,1.33c-2.15-4.54-.18-16.55,6-36.74-2.68-3.13-8.4-11.29-5-20.72,1.06-2.94,2.62-4.64,4.66-5,2.28-.45,4.86.83,7.67,3.78,6.7-18.95,13.37-35.42,13.44-35.58l0.55-1.35,78.77,26.36-0.51,1.48c-0.06.17-6.06,17.58-13.24,36.64-0.17.44-19,46.42-22.61,50.41a15.14,15.14,0,0,1-8.12,4.38A11.09,11.09,0,0,1,1150.88,709.68Z"/><path class="cls-3" d="M1140.39,647.69a2.63,2.63,0,0,1-2.45-3.59l0.6-1.54a2.63,2.63,0,1,1,4.9,1.92l-0.6,1.54A2.63,2.63,0,0,1,1140.39,647.69Z"/><path class="cls-3" d="M1171.93,659.64a2.63,2.63,0,0,1-2.49-3.49l0.64-1.84a2.63,2.63,0,1,1,5,1.72l-0.64,1.84A2.63,2.63,0,0,1,1171.93,659.64Z"/><path class="cls-3" d="M1128.91,631.88a2.1,2.1,0,0,1-1.5-3.58c8-8.11,21.36-3.77,21.93-3.58a2.1,2.1,0,0,1-1.33,4h0c-0.11,0-11.46-3.69-17.6,2.54A2.1,2.1,0,0,1,1128.91,631.88Z"/><path class="cls-3" d="M1154.51,670.17a21.55,21.55,0,0,1-2.34-.13,1.77,1.77,0,0,1,.39-3.53c2.75,0.3,5.49-.15,5.81-0.73,0.45-1,1.16-7.34,1.74-12.41,1.09-9.71,1.84-15.74,2.9-17.58a3.65,3.65,0,0,1,2.71-1.8c5.26-.83,14.7,7.49,16.55,9.16a1.77,1.77,0,0,1-2.38,2.63c-7.86-7.14-13-8.79-13.78-8.24-0.79,1.38-1.79,10.31-2.46,16.23-1,8.78-1.46,12.48-2.16,13.73C1160.26,669.72,1156.95,670.17,1154.51,670.17Z"/><path class="cls-3" d="M1177.4,620.26c10,2.7,29.71,5.1,34.19-14.86S1210,591.2,1210,591.2s-5.44,3-7,2.65,1.21,1.79,1.34-15.95c0,0-13.63-7.53-22.9-.45s-12.09.51-12.94-4.85c-0.73-4.56-8.51-1.51-11,2.08-3.72,3.73-25.26-5.93-33-4.78-12.17,1.83-16.51,2.87-20.8,16.78-0.82,2.67-5.18,29.93-5.18,29.93l17.36-24.4S1161.09,615.84,1177.4,620.26Z"/><path class="cls-3" d="M1157,681c0.52,1.3-1.51,5.27-5.16,3.69-9.36-4.07-15.59-14.12-13.48-12.75,0.83,0.54,6.4,4.23,10.28,6.2C1153.95,680.78,1156.45,679.49,1157,681Z"/><path class="cls-5" d="M1076.05,737.51s63.23,22.35,65.72,22.51-39.35,286.39-39.35,286.39l-132.89-42.67Z"/><path class="cls-1" d="M988,840.83v0Z"/><path class="cls-3" d="M988,1076.9a1.61,1.61,0,0,1-1.61-1.61V840.83a1.61,1.61,0,0,1,3.22,0v234.46A1.61,1.61,0,0,1,988,1076.9Z"/><path class="cls-1" d="M1170,891c4.77,8.49,108.17-67.39,109.71-73.17,3.52-13.25-5-25.52-4-29.44,1.5-6.14,14.24,13.16,17,18.77,0.47,1,1.22,1,2.15.51,11.15-6.23,40.65-24.09,42.2-17.87,1.42,5.7-28.06,19.8-27.83,21.2,0.61,3.69,3.32,17.19-11.5,23.17-9.57,3.86-35.51,96-85.46,86.3S1165.19,882.47,1170,891Z"/><path class="cls-3" d="M1219.63,922.79a40.32,40.32,0,0,1-7.74-.76c-37-7.21-45.76-24.57-46-30.65-0.11-2.68,1.25-3.36,1.84-3.52s2.17-.2,3.55,2.15c2.5,0.59,16.72-5.55,55.24-32.6,27.29-19.16,50.05-37.22,51.6-40.1,2.13-8.13-.52-15.92-2.46-21.61-1.17-3.43-2-5.9-1.57-7.73a2.84,2.84,0,0,1,2.44-2.41h0.25c5.48,0,16.07,18.58,17.23,20.67h0c1.37-.77,3-1.71,4.88-2.77,21-12,33.31-18.17,37.83-16.24a3.14,3.14,0,0,1,1.86,2.17c1.06,4.24-6.39,9.5-21.44,18.31-2.44,1.43-5.16,3-6.24,3.8,1.86,11.9-2.38,20-12.63,24.16-2,.82-6.45,9.61-10.73,18.1C1274.32,880,1252.79,922.79,1219.63,922.79Zm-50.27-30.12a14.78,14.78,0,0,0,1.38,3.38c2.68,4.92,12.1,17,41.77,22.79,35.17,6.86,58.31-39.1,72.13-66.56,6.25-12.41,9.38-18.43,12.42-19.66,13.22-5.34,11.21-17.19,10.56-21.08l-0.05-.31c-0.26-1.56.67-2.1,7.93-6.36,4.27-2.5,9.59-5.62,13.74-8.58,6.44-4.6,6.19-6.12,6.18-6.13s-2.1-1-13.59,4.54c-7.11,3.44-15.33,8.14-21.33,11.57-1.86,1.06-3.52,2-4.9,2.78a3.28,3.28,0,0,1-2.63.4,3,3,0,0,1-1.77-1.62c-2.82-5.74-11.07-17.45-14-18.91-0.08,1,.73,3.41,1.51,5.71,2,5.76,4.93,14.45,2.51,23.57-1.17,4.41-35.7,29.7-48.91,39.07-14.61,10.37-49.7,34.62-59.93,35.92A4.26,4.26,0,0,1,1169.36,892.67Zm108.74-75.3h0Zm-0.78-28.82h0Z"/><path class="cls-4" d="M865.4,1019.26s84.53-260.69,120-284.39,46.72-19.82,75.7-19.59,29.4,75.6,20.17,101.29c-11.73,32.64-72.85,234.87-72.85,234.87Z"/><path class="cls-4" d="M1074.35,1066.29s30.06-205.79,42.32-247.5c7.7-26.2,14.92-81.46,30.07-76.66,32.69,10.36,51.49,127.13,51.49,127.13l65.54-53.68,39.34,56.07s-64.26,107-113,106.52c-21.49-.21-47.1-58.6-47.1-58.6l-19,157.89Z"/><polygon class="cls-4" points="993.72 833.15 987.96 1083.22 1061.08 1084.23 1065.12 815.83 993.72 833.15"/><path class="cls-3" d="M1062.8,1086l-76.63-1.06L992,833.11a1.73,1.73,0,0,1,1.79-1.71,1.75,1.75,0,0,1,1.71,1.79l-5.72,248.31,69.61,1,4-266.65a1.75,1.75,0,0,1,1.75-1.72h0a1.75,1.75,0,0,1,1.72,1.78Z"/><path class="cls-3" d="M1142.44,911.4h-0.23a1.75,1.75,0,0,1-1.51-2l9.94-77.08a1.75,1.75,0,0,1,3.47.45l-9.94,77.08A1.75,1.75,0,0,1,1142.44,911.4Z"/><path class="cls-4" d="M587,1351.62H408.37A43.41,43.41,0,0,1,365,1308.2V941.09a43.41,43.41,0,0,1,43.41-43.41H550.11a43.41,43.41,0,0,1,43.41,43.41v332.2l36.87,34.91A43.41,43.41,0,0,1,587,1351.62Z"/><path class="cls-3" d="M587,1353.37H408.37a45.21,45.21,0,0,1-45.16-45.16V941.09a45.21,45.21,0,0,1,45.16-45.16H550.11a45.21,45.21,0,0,1,45.16,45.16v331.45l36.87,34.91v0.75A45.21,45.21,0,0,1,587,1353.37ZM408.37,899.42a41.71,41.71,0,0,0-41.66,41.66V1308.2a41.71,41.71,0,0,0,41.66,41.66H587A41.71,41.71,0,0,0,628.64,1309L591.77,1274v-333a41.71,41.71,0,0,0-41.66-41.66H408.37Z"/><path class="cls-3" d="M489,1286.48h0l-74.48,1.27C424.38,1167,394.84,987,394.54,985.19a1.75,1.75,0,0,0-3.45.57c0.3,1.8,29.83,181.68,19.87,302l-15.88.27a1.75,1.75,0,0,0,0,3.5h0L489,1290A1.75,1.75,0,0,0,489,1286.48Z"/><path class="cls-3" d="M533.82,1576.89H517.27V1372.11c10.52-2.14,18.37-10.49,18.37-20.49H488.29c0,10,7.85,18.35,18.37,20.49v204.78H490.11a29.76,29.76,0,0,0-29.76,29.76v5.83H563.59v-5.83A29.76,29.76,0,0,0,533.82,1576.89Z"/><polygon class="cls-1" points="854.45 1493.64 883.18 1565.6 833.24 1565.6 808.62 1519.67 854.45 1493.64"/><path class="cls-3" d="M886,1567.52H832.08L806,1518.92l49.39-28.05Zm-51.64-3.86h45.94l-26.86-67.26-42.27,24Z"/><path class="cls-5" d="M885.92,1563.27s72.18,24.45,74.67,44.59H831.16v-44.59h54.76Z"/><polygon class="cls-1" points="691.82 1526.42 685.98 1566.18 638.71 1566.18 643.71 1522.9 691.82 1526.42"/><path class="cls-3" d="M687.65,1568.1h-51.1l5.46-47.27,52,3.82Zm-46.77-3.86h43.44l5.3-36.05-44.2-3.24Z"/><path class="cls-5" d="M688.72,1563.85s72.18,24.45,74.67,44.59H634v-44.59h54.76Z"/><polygon class="cls-3" points="768.1 1600.79 768.1 1612.37 630.58 1612.37 630.58 1599.13 768.1 1600.79"/><polygon class="cls-3" points="827.12 1599.44 827.12 1611.79 964.64 1611.79 964.64 1598.55 827.12 1599.44"/><path class="cls-3" d="M693.57,1580.17a1.77,1.77,0,0,1-.54-3.46l25-8a1.77,1.77,0,0,1,1.08,3.37l-25,8A1.79,1.79,0,0,1,693.57,1580.17Z"/><path class="cls-3" d="M706,1588.13a1.77,1.77,0,0,1-.54-3.46l25-8a1.77,1.77,0,0,1,1.08,3.37l-25,8A1.79,1.79,0,0,1,706,1588.13Z"/><path class="cls-3" d="M723.34,1596.1a1.77,1.77,0,0,1-.54-3.46l25-8a1.77,1.77,0,0,1,1.08,3.37l-25,8A1.79,1.79,0,0,1,723.34,1596.1Z"/><path class="cls-3" d="M887.23,1576.88a1.77,1.77,0,0,1-.54-3.46l25-8a1.77,1.77,0,0,1,1.08,3.37l-25,8A1.79,1.79,0,0,1,887.23,1576.88Z"/><path class="cls-3" d="M899.71,1584.84a1.77,1.77,0,0,1-.54-3.46l25-8a1.77,1.77,0,0,1,1.08,3.37l-25,8A1.79,1.79,0,0,1,899.71,1584.84Z"/><path class="cls-3" d="M917,1592.81a1.77,1.77,0,0,1-.54-3.46l25-8a1.77,1.77,0,0,1,1.08,3.37l-25,8A1.79,1.79,0,0,1,917,1592.81Z"/><path class="cls-6" d="M638.81,1194.32s158.65-7,162.65,31.75-93.25,313.1-93.25,313.1L632,1528.34s54.86-201.15,52.48-215.58c-9.4-57.08-228.65-126.4-228.65-126.4Z"/><path class="cls-7" d="M427.12,1164.07s-19.07,125.18,72.1,132.89c92.06,7.79,180.38,6.4,200.42,26.06,5.87,5.76,109.18,216.14,109.18,216.14L881,1510.71s-120.74-260.34-130-272.86c-16.68-22.54-29.32-34.71-112.17-43.53C564,1186.35,427.12,1164.07,427.12,1164.07Z"/><path class="cls-1" d="M644.67,828.62s-16.57,48.86-13.56,55.23,25.36,21.48,25.36,21.48l-67.52,105.24L502.39,984.9l13.7-85.56s47.4-22.58,51.28-28.39c5.37-8,16.1-54.59,16.1-54.59Z"/><path class="cls-3" d="M589.61,1012.39l-1.11-.33L500.65,986l14-87.7,0.73-.35c18.18-8.66,48-23.88,50.67-27.85,5.16-7.71,15.77-53.62,15.88-54.08a1.54,1.54,0,0,1,3,.69c-0.44,1.91-10.85,46.92-16.32,55.1-3.85,5.76-43.75,25-51.17,28.58l-13.36,83.42,84.14,25,66.09-103c-5.08-3.5-21.86-15.36-24.64-21.25-3.12-6.6,10.7-48.13,13.5-56.38a1.54,1.54,0,1,1,2.92,1C639.8,847.78,630.5,879,632.5,883.2c2.32,4.92,18.71,16.73,24.83,20.86l1.25,0.84Z"/><path class="cls-3" d="M651.41,726.79c10.77,3.44,37,11.48,32.56,29.9-5.12,21-15.51,47.22-21.24,61a12.77,12.77,0,0,1-14.5,7.19l-68-14.43c-6.23-1.32-10.4-6.8-9.7-12.74,2.36-20,7.75-62.21,11.75-67.91C595.85,710.41,634.36,721.35,651.41,726.79Z"/><path class="cls-1" d="M582.15,825.26c-2.8-4.34-.84-18.73,2.65-34.88a1.31,1.31,0,0,0-.42-1.26c-3.86-3.43-9-10.11-6.9-18,1.84-6.87,6.84-4.29,10.5-1.17a1.19,1.19,0,0,0,1.91-.6c5.05-19.3,10.33-36,10.33-36L681,750.42s-4.37,17.24-9.87,36.44c-0.25.86-14.9,46.34-17.86,50.11a14.26,14.26,0,0,1-7.19,4.48s-6.15,2.86-35.52-3.38Z"/><path class="cls-3" d="M640,843.65c-5.3,0-14.42-.82-29.75-4.07a1.55,1.55,0,0,1,.64-3c27.89,5.92,34.52,3.49,34.59,3.47l0.15-.06a12.75,12.75,0,0,0,6.44-4c2.63-3.35,17.06-47.78,17.59-49.59,4.48-15.66,8.25-30.17,9.45-34.83l-77.85-16.52c-1.35,4.35-5.72,18.69-9.9,34.62a2.74,2.74,0,0,1-4.41,1.38c-2.5-2.12-4.67-3.12-5.93-2.72-1.11.35-1.74,1.88-2.07,3.11-2.11,7.85,3.79,14.14,6.43,16.48a2.87,2.87,0,0,1,.91,2.75c-5.38,24.86-4.11,31.79-2.87,33.71a1.55,1.55,0,1,1-2.6,1.68c-1-1.54-4-6.21,2.41-35.91-3.11-2.79-9.8-10.09-7.27-19.51,0.77-2.88,2.17-4.65,4.14-5.27,2.31-.72,5.13.27,8.41,2.95,5-18.88,10.16-35.38,10.21-35.55l0.42-1.34,83.75,17.77-0.4,1.56c0,0.17-4.44,17.48-9.88,36.49-0.12.44-14.85,46.46-18.13,50.64a15.68,15.68,0,0,1-7.88,5C646.1,843.12,644.32,843.65,640,843.65Z"/><path class="cls-3" d="M617.64,784.92a2.63,2.63,0,0,1-2.52-3.39l0.46-1.54a2.63,2.63,0,1,1,5,1.51L620.16,783A2.63,2.63,0,0,1,617.64,784.92Z"/><path class="cls-3" d="M654.84,792.92a2.63,2.63,0,0,1-2.55-3.28l0.47-1.83a2.63,2.63,0,1,1,5.1,1.3l-0.47,1.83A2.63,2.63,0,0,1,654.84,792.92Z"/><path class="cls-3" d="M626.61,774a2.09,2.09,0,0,1-1.21-.39,18.93,18.93,0,0,0-12.43-2.8,2.1,2.1,0,0,1-.61-4.16,23,23,0,0,1,15.48,3.53A2.1,2.1,0,0,1,626.61,774Z"/><path class="cls-3" d="M619.77,810.22c-1.71,1.49,3.34,8.9,11,10.19,12.48,2.11,18.23-5,15.11-5-1.22,0-6.29,1.4-13.73,0C624.11,813.85,620.91,809.22,619.77,810.22Z"/><path class="cls-3" d="M635.13,807.29H634.9a1.77,1.77,0,0,1,0-3.55h0.19c2.86,0,5.5-.68,5.82-1.27,0.63-1.36.67-1.45-.66-9.73-0.3-1.85-.65-4.09-1.08-6.82l0-.15c0-.63-0.39-6.23,1.27-9.67,0.6-1.25,2-2.1,4.11-2.52,5.43-1.08,14.75.62,19.45,4.8a1.77,1.77,0,0,1-2.36,2.65c-3.44-3.06-10.5-4.53-15.06-4.15-2,.17-2.84.65-3,0.81-1,2.13-1,6.26-.91,7.77,0.42,2.69.77,4.9,1.06,6.73,1.38,8.64,1.49,9.34.37,11.77C642.75,807,637.17,807.29,635.13,807.29Z"/><path class="cls-3" d="M591.61,730.27s-0.65-20.38,13-17.94,16-11.09,28.77-8.7,5.62,5.84,18.75,9.82,20.14-3.13,23.24,7.5,13.64,8.57,17.86,15.89,2.27,15.43-4.39,17.74,3,8.49-2.6,14-27.65,3.58-30.89-5.23-4.88-14.79-13.08-15.71-18.42,2.72-23.9.8-12.7-8.34-15.83-7-6.62,6.3-9.6,5.72S581.21,736.25,591.61,730.27Z"/><path class="cls-3" d="M604.45,733.24s-3.65,9.8-7.62,14-9.37,6.95-9.29,14-16.85-3.75-12.15-11.05c9.69-15-4.92-19.49,4.68-27,5.73-4.46,15.8-3.7,15.8-3.7Z"/><path class="cls-3" d="M604.45,733.24s-3.65,9.8-7.62,14-9.37,6.95-9.29,14-16.85-3.75-12.15-11.05c9.69-15-4.92-19.49,4.68-27,5.73-4.46,15.8-3.7,15.8-3.7Z"/><path class="cls-5" d="M542.15,869.57c-17.59-9.07-128.56,67.6-159.92,168.68-35.19,113.47,93.8,81.6,93.8,81.6l-19.92-126.6L424,1175.11l206.81,19.22,21.74-135.1s-9.62,59.77,67.22,61.05c33.84,0.57,81.74,0,81.74,0L807,1068.6l-86.21-12.26s-7.81-97.44-42-132.8c-16.11-16.69-29.37-26.52-36.33-28.21C621.55,890.22,631.49,915.66,542.15,869.57Z"/><path class="cls-1" d="M665.34,1099.26l41-4.35,13.31,3.47,1.94,4.94s-21.89-1.29-34.83,2.65-22.76,2.68-22.76,2.68l-0.7-3Z"/><path class="cls-1" d="M658.53,1112.64c-18.19-1.56-96.13,9-96.13,9l6.57-42.1s85,14.47,91.46,12.62c12.08-3.47,28.08-5.58,42.35-6.14,18.88-.74,36.5,3.78,36.21,8.92-0.15,2.77-25.58.56-32.09,3.18C688.51,1105.47,671.49,1113.76,658.53,1112.64Z"/><path class="cls-3" d="M559.87,1124.1l7.34-47,2.11,0.36c32.53,5.54,85.87,13.88,90.52,12.67,11.45-3.29,27.47-5.62,42.85-6.22,16.25-.63,32.05,2.49,36.76,7.27a5.06,5.06,0,0,1,1.65,3.88c-0.19,3.38-4.9,3.46-16.27,3.65-6.38.11-14.33,0.24-17.14,1.37s-5.86,2.39-8.73,3.58c-15,6.22-29.22,12.1-40.61,11.12h0c-17.75-1.53-94.89,8.86-95.67,9ZM570.73,1082l-5.81,37.19c14.34-1.9,77.33-10,93.79-8.61h0c10.37,0.9,24.1-4.79,38.63-10.82,2.88-1.19,5.81-2.41,8.77-3.59,3.54-1.42,11.22-1.55,18.65-1.67,3.92-.07,9-0.15,11.48-0.52-3.69-3.33-17.73-6.44-33.37-5.82-15.06.59-30.7,2.85-41.85,6.06C654.73,1096,588.84,1085,570.73,1082Z"/><path class="cls-1" d="M669.39,1101.64l42.44-6.26-2,.64s40.3,6.68-19,11.57c-13.61,1.12-24.61-.16-23.91,1.24l0.39-.78Z"/><path class="cls-3" d="M675.14,1112.46a2.12,2.12,0,0,1-.29-4.21c4.89-.69,9.32-1.72,13.22-2.63,4.77-1.11,8.88-2.06,12.48-2.11,4.36-.05,17.34-0.21,19.6-1.76l-0.06-.11c-1-1.32-9.39-4.55-17.77-4.61a56.32,56.32,0,0,0-18.31,3.22,2.12,2.12,0,0,1-1.51-4,60.69,60.69,0,0,1,19.52-3.5h0.32c8.07,0.06,19.44,3.11,21.46,6.82a4,4,0,0,1,.14,4.16c-1.68,2.87-6.92,3.76-23.36,4-3.14,0-7,.95-11.57,2-4,.93-8.51,2-13.59,2.7Z"/><polygon class="cls-5" points="524.03 873.55 553.08 859.11 600.64 890.75 579.97 907.21 524.03 873.55"/><polygon class="cls-5" points="657.76 903.11 644.04 881.02 600.64 890.75 611.9 912.1 657.76 903.11"/><path class="cls-3" d="M661.17,904.6l-16.12-26-44,9.87-47.82-31.82-33.6,16.7,60.51,36.41,18.32-14.59c-2,33-14.85,235.77-31.31,289a1.91,1.91,0,1,0,3.64,1.13C587,1133,599.65,938.11,602.11,898.07l8.66,16.41Zm-81.37,0-51.37-30.91,24.5-12.17L597,890.9ZM643,883.41l11.31,18.21-41.3,8.1-9.24-17.51Z"/><path class="cls-5" d="M453.82,1045.66l145.11,26-16.9,50s-100.5,2.91-122,0c-40.05-5.41-82.87-40.69-82.87-40.69Z"/><path class="cls-3" d="M582.92,1121a2,2,0,0,1-1.87-2.61l15.26-45.12L463,1052.09l37.92-63.86a2,2,0,1,1,3.39,2l-34.95,58.86,132.21,21-16.76,49.55A2,2,0,0,1,582.92,1121Z"/><path class="cls-8" d="M1660.54,1137.65l-1197-1.62a12,12,0,0,1-12-12v-1.4a12,12,0,0,1,12-12l1197,1.62a12,12,0,0,1,12,12v1.4A12,12,0,0,1,1660.54,1137.65Z"/><path class="cls-3" d="M1660.54,1139.15h0l-1197-1.62A13.51,13.51,0,0,1,450,1124v-1.4a13.52,13.52,0,0,1,13.5-13.5l1197,1.62a13.51,13.51,0,0,1,13.5,13.5v1.4A13.51,13.51,0,0,1,1660.54,1139.15Zm-1197-27a10.51,10.51,0,0,0-10.5,10.5v1.4a10.51,10.51,0,0,0,10.5,10.5l1197,1.62a10.51,10.51,0,0,0,10.5-10.5v-1.4a10.51,10.51,0,0,0-10.5-10.5Z"/><polygon class="cls-8" points="422.7 1612.48 397.3 1612.48 514.41 1136.23 539.82 1136.23 422.7 1612.48"/><path class="cls-3" d="M423.81,1613.89H395.5l0.43-1.75,117.38-477.32h28.31l-0.43,1.75Zm-24.71-2.82h22.5L538,1137.64h-22.5Z"/><polygon class="cls-8" points="1656.3 1612.48 1681.7 1612.48 1611.65 1137.65 1586.24 1137.65 1656.3 1612.48"/><path class="cls-3" d="M1683.44,1614H1655l-0.19-1.28-70.31-476.54h28.44l0.19,1.28Zm-25.85-3H1680l-69.61-471.82H1588Z"/><circle class="cls-4" cx="801.58" cy="559.02" r="96.68"/><path class="cls-3" d="M801.7,560.73L743.88,534a1.5,1.5,0,1,1,1.26-2.72l56.31,26,65.2-42.24a1.5,1.5,0,0,1,1.63,2.52Z"/><polygon class="cls-8" points="1000.98 956 966.09 1097.29 762.29 1097.29 803.55 956 1000.98 956"/><path class="cls-3" d="M967.26,1098.79h-207L802.42,954.5H1002.9l-0.46,1.86Zm-203-3H964.91L999.07,957.5H804.67Z"/><rect class="cls-4" x="701.21" y="1097.29" width="264.7" height="13.35" transform="translate(1667.11 2207.93) rotate(180)"/><path class="cls-3" d="M967.4,1112.14H699.71v-16.35H967.4v16.35Zm-264.7-3H964.4v-10.35H702.71v10.35Z"/><path class="cls-3" d="M880.42,1053.48c-0.42,0-.84,0-1.27-0.05a16.22,16.22,0,0,1-12-7.43,23.75,23.75,0,0,1-3.78-15.39c1-11.75,9.72-20.65,19.46-19.8s16.82,11.07,15.81,22.83C897.66,1044.86,889.63,1053.48,880.42,1053.48Zm1.12-39.73c-7.66,0-14.37,7.43-15.2,17.11a20.75,20.75,0,0,0,3.27,13.45,13.29,13.29,0,0,0,9.8,6.13c8.06,0.67,15.35-7,16.22-17.07s-5-18.89-13.08-19.58C882.21,1013.76,881.88,1013.75,881.54,1013.75Z"/><path class="cls-5" d="M1238.19,1110.64h0a44,44,0,0,1-44-44v-26.71h88v26.71A44,44,0,0,1,1238.19,1110.64Z"/><path class="cls-5" d="M1272.68,1095.5q-1,0-1.93-.06l0.2-3c9.6,0.66,18.34-4.14,24-13.12,5-7.92,6.35-17.6,3.28-23a6.25,6.25,0,0,0-4.56-3.36c-6.11-1-15.42,5.75-18.48,8.45l-2-2.25c0.49-.43,12.19-10.62,21-9.16a9.2,9.2,0,0,1,6.67,4.84c3.64,6.42,2.27,17.15-3.35,26.09C1291.61,1090.26,1282.65,1095.5,1272.68,1095.5Z"/><path class="cls-1" d="M1223.52,1097.89a1.28,1.28,0,0,1-.62-0.16c-19.83-10.94-17.44-44.44-17.33-45.86a1.31,1.31,0,0,1,1.38-1.18,1.28,1.28,0,0,1,1.18,1.38c0,0.33-2.37,33.27,16,43.41A1.28,1.28,0,0,1,1223.52,1097.89Z"/><path class="cls-3" d="M1216.32,1032.91a1.5,1.5,0,0,1-1.06-2.56c7.79-7.73,10-10.35,9.89-19.16-0.12-7.95-3.78-11.31-7.66-14.88-3-2.79-6.17-5.67-7.77-10.69-3.78-11.88,10.91-22.95,11.54-23.41a1.5,1.5,0,0,1,1.79,2.41c-0.14.1-13.6,10.25-10.46,20.09,1.35,4.26,4.07,6.75,6.94,9.39,4.17,3.84,8.49,7.81,8.63,17,0.15,10-2.65,13.27-10.78,21.34A1.5,1.5,0,0,1,1216.32,1032.91Z"/><path class="cls-3" d="M1255.42,1032.91a1.5,1.5,0,0,1-1.06-2.56c7.79-7.73,10-10.35,9.89-19.16-0.12-7.95-3.78-11.31-7.66-14.88-3-2.79-6.17-5.67-7.77-10.69-3.78-11.88,10.91-22.95,11.54-23.41a1.5,1.5,0,0,1,1.79,2.41c-0.14.1-13.6,10.25-10.46,20.09,1.35,4.26,4.07,6.75,6.94,9.39,4.17,3.84,8.49,7.81,8.63,17,0.15,10-2.65,13.27-10.78,21.34A1.5,1.5,0,0,1,1255.42,1032.91Z"/><path class="cls-3" d="M1234.52,1025a1.5,1.5,0,0,1-1.06-2.56c7.79-7.73,10-10.35,9.89-19.16-0.12-7.95-3.78-11.31-7.66-14.88-3-2.79-6.17-5.67-7.77-10.69-3.78-11.88,10.91-22.95,11.54-23.41a1.5,1.5,0,0,1,1.79,2.41c-0.14.1-13.6,10.25-10.46,20.09,1.35,4.26,4.07,6.75,6.94,9.39,4.17,3.84,8.49,7.81,8.63,17,0.15,10-2.65,13.27-10.78,21.34A1.5,1.5,0,0,1,1234.52,1025Z"/><polygon class="cls-1" points="1303.83 1524.02 1308.94 1573.59 1352.32 1573.59 1358.93 1520.52 1303.83 1524.02"/><path class="cls-3" d="M1353.75,1575.21h-46.28l-5.43-52.7,58.73-3.73ZM1310.4,1572h40.49l6.19-49.7-51.46,3.27Z"/><path class="cls-5" d="M1306.56,1571.7s-62.7,19.9-64.86,36.3h112.42v-36.3h-47.56Z"/><polygon class="cls-1" points="1443.92 1518.65 1433.57 1572.57 1476.95 1572.57 1484.73 1520.31 1443.92 1518.65"/><path class="cls-3" d="M1478.35,1574.2h-46.74l11-57.22,44,1.8Zm-42.82-3.24h40l7.31-49.09-37.61-1.54Z"/><path class="cls-5" d="M1431.19,1570.68s-62.7,19.9-64.86,36.3h112.42v-36.3h-47.56Z"/><polygon class="cls-3" points="1361.06 1602.76 1361.06 1612.37 1480.51 1612.37 1480.51 1601.38 1361.06 1602.76"/><polygon class="cls-3" points="1357.63 1600.97 1357.63 1612.37 1238.19 1612.37 1238.19 1600.14 1357.63 1600.97"/><path class="cls-3" d="M1455.69,1602.87a1.49,1.49,0,0,1-1.49-1.49V1579.6a1.49,1.49,0,1,1,3,0v21.78A1.49,1.49,0,0,1,1455.69,1602.87Z"/><path class="cls-3" d="M1331.06,1603.89a1.49,1.49,0,0,1-1.49-1.49v-21.78a1.49,1.49,0,1,1,3,0v21.78A1.49,1.49,0,0,1,1331.06,1603.89Z"/><path class="cls-3" d="M1504,1174L1397.71,1274.1,1375,1540.92l-78.87,2s5.4-275.26,13.87-301.07c9-27.44,141.28-192.77,141.28-192.77l182.71-22.4s22.82,73.3,8.2,108.75-148.52,411.17-148.52,411.17L1405,1542Z"/><path class="cls-4" d="M1505,1175.27a1.37,1.37,0,0,1-1.33-1.72l17.33-66.67a1.38,1.38,0,1,1,2.66.69l-17.33,66.67A1.38,1.38,0,0,1,1505,1175.27Z"/><polygon class="cls-5" points="1506.84 811.55 1523.52 799.01 1541.15 809.43 1533.41 823.41 1564.88 1010.84 1542.65 1062.02 1516.05 1014.53 1517.67 824.23 1506.84 811.55"/><path class="cls-3" d="M1520.8,629c10.18-.69,34.89-2.68,38,15.16,3.56,20.35,4.7,47.12,5.06,61.26a11.26,11.26,0,0,1-9.32,11.38L1493,727.59a11.26,11.26,0,0,1-12.75-7.9c-5.46-18.49-15.16-58.31-14-64.73C1470.3,633.13,1504.69,630.1,1520.8,629Z"/><path class="cls-1" d="M1554.27,722s6.58,48,11.76,52.67,29.44,13.2,29.44,13.2l-66.95,60.65-53.29-38.6s22.33-14.84,23.52-21.53c1.64-9.25-7-55.43-7-55.43Z"/><path class="cls-3" d="M1528.63,850.44l-56-40.59,1.8-1.2c8.43-5.6,22.09-16.13,22.87-20.54,1.57-8.88-7-54.43-7-54.89a1.5,1.5,0,1,1,3-.56c0.36,1.9,8.71,46.56,7,56-1.09,6.18-16.74,17.43-22.38,21.31l50.56,36.62,64.18-58.14c-6.31-2.3-23.17-8.66-27.58-12.66-5.32-4.82-11.13-45.48-12.24-53.58a1.5,1.5,0,0,1,3-.41c2.52,18.34,7.8,48.61,11.28,51.76,4.06,3.68,16,12.93,22.66,15.27l3.74,2.9Z"/><path class="cls-1" d="M1532.29,742.36c-17.11,5.08-39.5,5.6-46.61.61-4.17-2.93-8.05-16.71-11.26-32.66-0.09-.46-8.64-57.47-8.64-57.47l78.11-13.68s2.86,17.25,5.49,36.69a1.11,1.11,0,0,0,1.82.71c3.71-3.11,9.06-6.06,10.49,1.14,1.78,9-5.29,16-9.09,18.65a1.32,1.32,0,0,0-.55,1.23c1.48,13.78,2.23,25.78,1.09,30.28a13.28,13.28,0,0,1-4.61,6.67Z"/><path class="cls-3" d="M1503.63,748c-8,0-15.06-1.14-18.81-3.77-4-2.81-7.89-13.8-11.87-33.59-0.09-.46-6.65-44.16-8.65-57.55l-0.22-1.45,81.05-14.19,0.25,1.5c0,0.17,2.83,17.08,5.41,36,3.47-2.77,6.37-3.76,8.65-3,1.9,0.67,3.16,2.49,3.74,5.41,1.71,8.6-4.09,16.19-9.61,20.11,1.76,16.48,2.1,26.53,1,30.71a14.72,14.72,0,0,1-5.1,7.45,1.5,1.5,0,1,1-1.94-2.3,11.81,11.81,0,0,0,4.13-5.89c0.66-2.6,1-9.87-1.12-29.75a2.83,2.83,0,0,1,1.19-2.62c1.06-.75,10.37-7.6,8.47-17.12-0.25-1.24-.76-2.79-1.79-3.15-1.26-.44-3.54.6-6.26,2.88a2.62,2.62,0,0,1-4.28-1.66c-2.16-15.93-4.49-30.54-5.24-35.14l-75.17,13.16c3,19.82,8.28,55.15,8.42,56,4.94,24.54,8.79,30.39,10.64,31.69,6.5,4.57,28.53,4.17,45.31-.82a1.5,1.5,0,1,1,.86,2.88A108.37,108.37,0,0,1,1503.63,748Z"/><path class="cls-3" d="M1489.19,695.92a2.21,2.21,0,0,1-2.16-1.8l-0.34-1.83a2.21,2.21,0,0,1,4.34-.81l0.34,1.83A2.21,2.21,0,0,1,1489.19,695.92Z"/><path class="cls-3" d="M1524.18,690.14a2.21,2.21,0,0,1-2.17-1.85l-0.3-1.83a2.21,2.21,0,0,1,4.35-.72l0.3,1.83a2.21,2.21,0,0,1-1.82,2.53Z"/><path class="cls-3" d="M1515,676.68a1.32,1.32,0,0,1-.35-2.6c0.44-.12,10.83-2.92,16.82-0.43a1.32,1.32,0,0,1-1,2.44c-5.16-2.14-15,.51-15.11.54A1.32,1.32,0,0,1,1515,676.68Z"/><path class="cls-1" d="M1493.51,679.14s-6.24-2.12-14.69,3.42Z"/><path class="cls-3" d="M1478.82,683.89a1.32,1.32,0,0,1-.73-2.43c8.88-5.83,15.56-3.66,15.84-3.57a1.32,1.32,0,0,1-.84,2.51c-0.24-.08-5.81-1.8-13.54,3.27A1.32,1.32,0,0,1,1478.82,683.89Z"/><path class="cls-3" d="M1506.74,709.76h-0.07c-1.67-.06-7.22-0.52-8.41-3.72-0.89-2.4-.75-3.09.93-11.49,0.36-1.81.8-4,1.33-6.65a1.69,1.69,0,1,1,3.32.65c-0.52,2.67-1,4.86-1.33,6.67-1.64,8.15-1.61,8.23-1.08,9.65,0.22,0.59,2.75,1.41,5.38,1.52A1.69,1.69,0,0,1,1506.74,709.76Z"/><path class="cls-3" d="M1552,696.13s-1.91,2.71-5.94,8.31c-4.65,6.47-57,12.55-61,11.34-8.74-2.66-7.9-10.05-10.8-8.91-3.6,1.41,7,37.4,11.73,41.89s42.72-.31,62.21-8C1564.37,734.41,1552,696.13,1552,696.13Z"/><path class="cls-3" d="M1544.71,643.2s-55.36,27.06-85.32,11.16,11.79-24.07,37.44-25.92S1558.71,625.51,1544.71,643.2Z"/><path class="cls-1" d="M1350.71,876.74c22.51,1.64,126.28-80.06,138.86-79.84,1.05,0,33.15,3.25,33.89,2.78,7.27-4.59,12.88-4.78,17.13-1.48,16.39-5,38.93-13.07,40-12.88,46.47,8.49,98.65,138,101.63,146.86,10.71,32-29.21,48.66-29.21,48.66-0.36,3.6,12.52,94.41,12.52,94.41l-146.36,4.8h0l-97.88,4.37s11.07-158,8-203.89c-1.53-22.56-37.53,95.72-69.84,48.88C1319.47,871.55,1333.89,875.52,1350.71,876.74Z"/><path class="cls-3" d="M1419.6,1086l0.12-1.72c0.11-1.58,11-158.46,8-203.68,0-.38-0.06-0.69-0.1-0.93-1.77,2-5.22,8.34-8.32,14-10.24,18.86-25.7,47.35-42.65,48.26-6.68.35-12.9-3.59-18.51-11.72-26.39-38.25-27.62-47.68-25-52.17,2.39-4.14,8.38-3.66,15.32-3.09l2.42,0.19h0l0.63,0c13.26,0,53.67-27.12,86.25-49,28.5-19.13,46.29-30.88,51.83-30.88h0.06c0.33,0,2,.16,6.93.63,7.84,0.74,23.89,2.23,26.41,2.21,7.11-4.4,13.14-5,17.93-1.69,7.61-2.36,16.55-5.35,23.77-7.76,14.23-4.76,15.39-5.08,16.19-4.93,19.93,3.64,42.87,28.55,68.19,74,19.88,35.72,33.4,70.19,34.62,73.83,10.08,30.07-23,47.23-29.1,50.12,0.54,7.6,7.61,58.87,12.48,93.22l0.24,1.7-148.07,4.86ZM1428,876.09a2.34,2.34,0,0,1,.5.06c2,0.44,2.18,3.13,2.26,4.27,2.91,42.86-6.65,185.07-7.84,202.39l96.16-4.29,144.66-4.75c-2.1-14.86-12.64-89.58-12.29-93.09l0.09-.91,0.84-.35c1.58-.66,38.47-16.52,28.34-46.75-1.15-3.44-14.93-38.35-34.39-73.31-24.42-43.87-47.18-68.92-65.86-72.48-1.34.26-8.21,2.56-14.86,4.79-7.48,2.5-16.78,5.61-24.58,8l-0.76.23-0.63-.49c-3.89-3-8.91-2.5-15.37,1.57-0.71.45-1,.61-28-1.93-3.41-.32-6.36-0.6-6.71-0.61h0c-4.84,0-27.84,15.43-50.08,30.36-35.24,23.66-75.22,50.47-88.81,49.48l-2.45-.19c-5.65-.46-11-0.89-12.41,1.57-2.71,4.68,5.44,20.67,24.9,48.88,5,7.19,10.28,10.7,15.81,10.39,15.23-.81,30.81-29.51,40.11-46.65C1423,880.35,1425.48,876.09,1428,876.09Zm152.61-89.24h0Z"/><path class="cls-5" d="M1523.45,798.38l-6.86,266.24Z"/><path class="cls-3" d="M1516.59,1066.06h0a1.44,1.44,0,0,1-1.41-1.48L1522,798.34a1.44,1.44,0,0,1,2.89.07L1518,1064.66A1.44,1.44,0,0,1,1516.59,1066.06Z"/><polygon class="cls-5" points="1506.88 812.15 1523.57 799.61 1542.46 808.26 1530.62 824.94 1542.55 991.84 1520.32 1043.02 1493.72 995.53 1517.72 824.83 1506.88 812.15"/><path class="cls-1" d="M1574.71,871.32s21.77,48.13,16.77,56.7-107.73,17.81-107.73,17.81l5.59,42.67s99.85,10.25,154.68-9Z"/><path class="cls-3" d="M1549,992.6c-32.95,0-59.32-2.63-59.84-2.69l-1.12-.12-5.93-45.26,1.48-.13c0.26,0,26-2.35,51.94-5.69,48.17-6.19,54-10.31,54.69-11.42,3.37-5.78-8.54-37-16.84-55.39a1.42,1.42,0,1,1,2.59-1.17c2.26,5,21.92,49.06,16.7,58-1,1.63-3.48,6-56.79,12.81-22.47,2.89-44.73,5-50.57,5.56l5.25,40.08c11.13,1,102.15,8.81,152.95-9a1.42,1.42,0,0,1,.94,2.69C1617.88,990.2,1580.47,992.6,1549,992.6Z"/><polygon class="cls-1" points="1523.45 798.38 1555.35 814.96 1593.98 786.41 1573.08 778.12 1523.45 798.38"/><polygon class="cls-1" points="1523.45 798.38 1502.27 817.94 1472.14 805.47 1483.32 792.91 1523.45 798.38"/><path class="cls-3" d="M1597.05,786l-24-9.51-49.88,20.36-40.43-5.14-14.55,15.37,32.64,12.61,22.7-19.57,31.94,16.59Zm-96.87,30.17-26.56-10.26,10.42-11,35.57,4.52ZM1527,798.54l46.06-18.8,17.82,7.07-35.7,26.37Z"/><polygon class="cls-1" points="1496.71 851.21 1497.35 860.3 1463.75 862.72 1463.1 853.6 1496.71 851.21"/><path class="cls-3" d="M1462.35,864.33l-0.86-12.13,36.61-2.6,0.86,12.1Zm2.35-9.34,0.43,6.12,30.61-2.2-0.43-6.1Z"/><polygon class="cls-8" points="1271.41 821.48 1306.31 962.76 1510.11 962.76 1468.85 821.48 1271.41 821.48"/><path class="cls-3" d="M1512.11,964.26h-207l-0.28-1.14L1269.5,820H1470l0.31,1.08Zm-204.62-3h200.62L1467.72,823H1273.33Z"/><rect class="cls-4" x="1306.49" y="962.76" width="264.7" height="13.35"/><path class="cls-3" d="M1572.69,977.62H1305V961.26h267.7v16.35Zm-264.7-3h261.7V964.26H1308v10.35Z"/><path class="cls-3" d="M1392,919c-9.21,0-17.23-8.61-18.2-19.85-1-11.75,6.08-22,15.81-22.83a16.24,16.24,0,0,1,13.12,5.28,23.75,23.75,0,0,1,6.35,14.52h0a23.74,23.74,0,0,1-3.78,15.39,16.23,16.23,0,0,1-12,7.43Q1392.61,919,1392,919Zm-1.11-39.73q-0.51,0-1,0c-8.08.69-13.94,9.48-13.08,19.58s8.12,17.74,16.22,17.07a13.29,13.29,0,0,0,9.8-6.13,20.74,20.74,0,0,0,3.27-13.45h0a20.75,20.75,0,0,0-5.51-12.69A13.5,13.5,0,0,0,1390.86,879.22Z"/><path class="cls-1" d="M1348.2,979.3s-3.74-24.78-9.12-26-3.65,22-4.18,22.15c-0.85.18-.41-27.32-5.38-28.9s-4.35,25.49-4.83,25.43c-0.71-.09.76-17.42-3.88-21.09s-2.64,18.8-3.56,18.44c-0.61-.24,1.54-15.1-3.17-15.9-2.93-.49-6.35,16.93-6.35,16.93s-1.94,11.1,10.2,13.66C1321.11,984.66,1344.35,990.3,1348.2,979.3Z"/><path class="cls-3" d="M1333.65,987.43a73.54,73.54,0,0,1-15.48-2l-0.53-.11c-13.31-2.81-11.31-15.14-11.28-15.27,3.68-18.79,6.89-18.25,8-18.07a3.71,3.71,0,0,1,2.41,1.52c0.4-2.36,1.07-3.74,2.17-4.27a2.54,2.54,0,0,1,2.79.48,9.28,9.28,0,0,1,2.75,4.85c0.6-4.81,1.55-7.94,3.13-9.06a2.66,2.66,0,0,1,2.37-.37c2.46,0.78,3.81,4.7,4.69,11.61a7.72,7.72,0,0,1,2.16-4.3,3,3,0,0,1,2.6-.59c5.84,1.36,9.27,21.15,10.18,27.19l0.05,0.34-0.11.33C1348.17,983.6,1344.19,987.43,1333.65,987.43Zm-19.59-32.59c-1.25,1.16-3.47,8.18-5,15.76-0.06.37-1.52,9.78,9.12,12l0.55,0.12c15.74,3.45,25.65,2.17,28-3.6-1.75-11.38-5.28-23.9-8-24.53a0.22,0.22,0,0,0-.23.05c-2.14,1.7-2.12,13.47-2.11,17.34s0,4.51-1.23,4.77l-0.62.13-0.54-.4c-0.72-.55-0.77-1.09-1.1-6.75-0.81-13.9-2.08-21.27-3.78-21.91-1,.63-2.27,4.73-2.81,20.37-0.14,4.21-.15,4.29-0.72,4.78l-0.47.4-0.62-.07c-1.4-.17-1.41-1.07-1.48-4.85-0.08-4.26-.27-14.2-3-16.5-1,1.75-1,9.55-1,12.59,0,4.6,0,5.3-.86,5.87l-0.61.41-0.74-.26c-1.08-.42-1.05-1.19-1-4.07C1316,959.34,1315.41,955.41,1314.06,954.84Z"/><path class="cls-1" d="M1499.72,722.85c-0.93,1.26.14,6.1,4.52,5.42,11.22-1.75,20.76-10.82,18.1-9.94-1,.35-8.08,2.75-12.81,3.78C1503.1,723.52,1500.77,721.42,1499.72,722.85Z"/><polygon class="cls-9" points="1662 1380.23 1703 1313.23 1775 1346.73 1766.9 1401.23 1662 1380.23"/><path class="cls-3" d="M1768.15,1403l-108.55-21.73,42.82-70,74.23,34.54Zm-103.75-23.83,101.25,20.27,7.7-51.83-69.77-32.46Z"/><polygon class="cls-9" points="1573.58 1381.32 1587.49 1339.38 1685.14 1369.74 1665.88 1407.68 1573.58 1381.32"/><path class="cls-3" d="M1666.66,1409.47l-95-27.13,14.87-44.82,100.76,31.32Zm-91.16-29.16,89.61,25.6,17.9-35.26-94.55-29.39Z"/><polygon class="cls-7" points="1561.18 1374.35 1783.9 1374.35 1757.23 1612.41 1586.52 1612.92 1561.18 1374.35"/><path class="cls-3" d="M1847.88,1614H83a1.5,1.5,0,0,1,0-3h1764.9A1.5,1.5,0,0,1,1847.88,1614Z"/></svg>