<svg id="Background" xmlns="http://www.w3.org/2000/svg" xmlns:xlink="http://www.w3.org/1999/xlink" viewBox="0 0 3710 3710"><defs><style>.cls-1,.cls-9{fill:#fff;}.cls-2{fill:url(#linear-gradient);}.cls-3{fill:#bdd0fb;}.cls-4{fill:url(#linear-gradient-2);}.cls-5{fill:#91b3fa;}.cls-6{fill:url(#linear-gradient-3);}.cls-7{fill:url(#linear-gradient-4);}.cls-8,.cls-9{opacity:0.6;}.cls-10{fill:url(#linear-gradient-5);}.cls-11{fill:url(#linear-gradient-6);}.cls-12{fill:url(#linear-gradient-7);}.cls-13{fill:url(#linear-gradient-8);}.cls-14{fill:url(#linear-gradient-9);}.cls-15{fill:url(#linear-gradient-10);}.cls-16{fill:url(#linear-gradient-11);}.cls-17{fill:url(#linear-gradient-12);}.cls-18{fill:url(#linear-gradient-13);}.cls-19{fill:url(#linear-gradient-14);}.cls-20{fill:url(#linear-gradient-15);}.cls-21{fill:url(#linear-gradient-16);}.cls-22{fill:url(#linear-gradient-17);}.cls-23{fill:url(#linear-gradient-18);}.cls-24{fill:url(#linear-gradient-19);}.cls-25{fill:url(#linear-gradient-20);}.cls-26{fill:url(#linear-gradient-21);}.cls-27{fill:url(#linear-gradient-22);}.cls-28{fill:url(#linear-gradient-23);}.cls-29{fill:url(#linear-gradient-24);}.cls-30{fill:url(#linear-gradient-25);}.cls-31{fill:url(#linear-gradient-26);}.cls-32{fill:url(#linear-gradient-27);}.cls-33{fill:url(#linear-gradient-28);}.cls-34{fill:url(#linear-gradient-29);}.cls-35{fill:url(#linear-gradient-30);}.cls-36{fill:url(#linear-gradient-31);}.cls-37{fill:url(#linear-gradient-32);}.cls-38{fill:url(#linear-gradient-33);}.cls-39{fill:url(#linear-gradient-34);}.cls-40{fill:url(#linear-gradient-35);}.cls-41{fill:url(#linear-gradient-36);}.cls-42{fill:url(#linear-gradient-37);}.cls-43{fill:url(#linear-gradient-38);}.cls-44{fill:url(#linear-gradient-39);}.cls-45{fill:url(#linear-gradient-40);}.cls-46{fill:url(#linear-gradient-41);}.cls-47{fill:url(#linear-gradient-42);}.cls-48{fill:url(#linear-gradient-43);}.cls-49{fill:#666694;}.cls-50{fill:url(#linear-gradient-44);}.cls-51{fill:url(#linear-gradient-45);}.cls-52{fill:url(#linear-gradient-46);}.cls-53{fill:url(#linear-gradient-47);}.cls-54{fill:url(#linear-gradient-48);}.cls-55{fill:url(#linear-gradient-49);}.cls-56{fill:url(#linear-gradient-50);}</style><linearGradient id="linear-gradient" x1="3460.18" y1="3229.58" x2="1487.99" y2="1503.92" gradientUnits="userSpaceOnUse"><stop offset="0" stop-color="#dae3fe"/><stop offset="1" stop-color="#e9effd"/></linearGradient><linearGradient id="linear-gradient-2" x1="5362.86" y1="1394.48" x2="4099.86" y2="2206.8" gradientTransform="translate(-2475.44 131.31) rotate(-2.97)" xlink:href="#linear-gradient"/><linearGradient id="linear-gradient-3" x1="1364.94" y1="1914.48" x2="2307.72" y2="-511.32" gradientUnits="userSpaceOnUse"><stop offset="0" stop-color="#09005d"/><stop offset="1" stop-color="#1a0f91"/></linearGradient><linearGradient id="linear-gradient-4" x1="599.37" y1="1821.32" x2="2147.48" y2="1821.32" gradientUnits="userSpaceOnUse"><stop offset="0" stop-color="#4f52ff"/><stop offset="1" stop-color="#4042e2"/></linearGradient><linearGradient id="linear-gradient-5" x1="755.5" y1="3616.31" x2="-27.59" y2="4952.86" gradientTransform="translate(493.17 -2996.26) rotate(-0.85)" gradientUnits="userSpaceOnUse"><stop offset="0" stop-color="#ff928e"/><stop offset="1" stop-color="#fe7062"/></linearGradient><linearGradient id="linear-gradient-6" x1="1260.26" y1="-20.14" x2="653.01" y2="778.69" gradientTransform="translate(592.39 -165.31) rotate(29.12)" xlink:href="#linear-gradient-3"/><linearGradient id="linear-gradient-7" x1="1186" y1="3217.38" x2="559.16" y2="4041.98" gradientTransform="translate(537.59 -2897.66) rotate(1.01)" xlink:href="#linear-gradient-3"/><linearGradient id="linear-gradient-8" x1="1107.02" y1="3267.81" x2="674.19" y2="4062.57" gradientTransform="translate(537.59 -2897.66) rotate(1.01)" xlink:href="#linear-gradient-3"/><linearGradient id="linear-gradient-9" x1="2847.9" y1="2818.34" x2="1633.77" y2="1484.79" gradientTransform="matrix(1, 0, 0, 1, 0, 0)" xlink:href="#linear-gradient-5"/><linearGradient id="linear-gradient-10" x1="3128.53" y1="3389.89" x2="1715.58" y2="2474.46" gradientTransform="matrix(1, 0, 0, 1, 0, 0)" xlink:href="#linear-gradient-5"/><linearGradient id="linear-gradient-11" x1="2268.5" y1="3563.32" x2="683" y2="1871.67" gradientTransform="matrix(1, 0, 0, 1, 0, 0)" xlink:href="#linear-gradient-5"/><linearGradient id="linear-gradient-12" x1="-687.08" y1="929.34" x2="-499.87" y2="1355.3" gradientTransform="matrix(-0.92, -0.39, -0.39, 0.92, 1017.7, 669.78)" gradientUnits="userSpaceOnUse"><stop offset="0" stop-color="#febbba"/><stop offset="1" stop-color="#ff928e"/></linearGradient><linearGradient id="linear-gradient-13" x1="-253.27" y1="3253.74" x2="1508.21" y2="1800.77" gradientTransform="matrix(1, 0, 0, 1, 0, 0)" xlink:href="#linear-gradient-5"/><linearGradient id="linear-gradient-14" x1="-395.05" y1="1559.22" x2="-293.71" y2="1813.42" gradientTransform="matrix(-1, 0, 0, 1, 620.97, 0)" xlink:href="#linear-gradient-3"/><linearGradient id="linear-gradient-15" x1="-24.6" y1="3186.68" x2="61.33" y2="3186.68" gradientTransform="matrix(-1, 0, 0, 1, 620.97, 0)" xlink:href="#linear-gradient-3"/><linearGradient id="linear-gradient-16" x1="-387.71" y1="3525.55" x2="-264.04" y2="2080.25" gradientTransform="matrix(-1, 0, 0, 1, 620.97, 0)" xlink:href="#linear-gradient-12"/><linearGradient id="linear-gradient-17" x1="-423.83" y1="3171" x2="-284.79" y2="3171" gradientTransform="matrix(-1, 0, 0, 1, 620.97, 0)" xlink:href="#linear-gradient-3"/><linearGradient id="linear-gradient-18" x1="-138.95" y1="3547.06" x2="-15.26" y2="2101.37" gradientTransform="matrix(-1, 0, 0, 1, 620.97, 0)" xlink:href="#linear-gradient-12"/><linearGradient id="linear-gradient-19" x1="1082.01" y1="2040.9" x2="1767.39" y2="1436.52" xlink:href="#linear-gradient-4"/><linearGradient id="linear-gradient-20" x1="-482.07" y1="1925.52" x2="-55.33" y2="3407.25" gradientTransform="matrix(-1, 0, 0, 1, 620.97, 0)" xlink:href="#linear-gradient-3"/><linearGradient id="linear-gradient-21" x1="1200.55" y1="1794.91" x2="523.93" y2="2063.57" gradientTransform="matrix(1, 0, 0, 1, 0, 0)" xlink:href="#linear-gradient-12"/><linearGradient id="linear-gradient-22" x1="1152.11" y1="2020.57" x2="425.73" y2="2433.51" gradientTransform="matrix(1, 0, 0, 1, 0, 0)" xlink:href="#linear-gradient-12"/><linearGradient id="linear-gradient-23" x1="-459.9" y1="1881.81" x2="-257.22" y2="1521.1" gradientTransform="matrix(-1, 0, 0, 1, 620.97, 0)" xlink:href="#linear-gradient-12"/><linearGradient id="linear-gradient-24" x1="-416.31" y1="1567.69" x2="-314.97" y2="1821.9" gradientTransform="matrix(-1, 0, 0, 1, 620.97, 0)" xlink:href="#linear-gradient-3"/><linearGradient id="linear-gradient-25" x1="-416.76" y1="1906.05" x2="-214.08" y2="1545.35" gradientTransform="matrix(-1, 0, 0, 1, 620.97, 0)" xlink:href="#linear-gradient-12"/><linearGradient id="linear-gradient-26" x1="2849.78" y1="2131.71" x2="3730.38" y2="1042.15" xlink:href="#linear-gradient-4"/><linearGradient id="linear-gradient-27" x1="3176.65" y1="2395.9" x2="4057.26" y2="1306.33" xlink:href="#linear-gradient-4"/><linearGradient id="linear-gradient-28" x1="2835.36" y1="2120.06" x2="3715.97" y2="1030.5" xlink:href="#linear-gradient-4"/><linearGradient id="linear-gradient-29" x1="2835.36" y1="2120.06" x2="3715.97" y2="1030.5" xlink:href="#linear-gradient-4"/><linearGradient id="linear-gradient-30" x1="2954.26" y1="2216.16" x2="3834.87" y2="1126.6" xlink:href="#linear-gradient-4"/><linearGradient id="linear-gradient-31" x1="2957.98" y1="2219.16" x2="3838.58" y2="1129.59" xlink:href="#linear-gradient-4"/><linearGradient id="linear-gradient-32" x1="3073.17" y1="2312.26" x2="3953.77" y2="1222.69" xlink:href="#linear-gradient-4"/><linearGradient id="linear-gradient-33" x1="3077.75" y1="2315.97" x2="3958.36" y2="1226.4" xlink:href="#linear-gradient-4"/><linearGradient id="linear-gradient-34" x1="3235.66" y1="2443.59" x2="4116.27" y2="1354.02" xlink:href="#linear-gradient-4"/><linearGradient id="linear-gradient-35" x1="3199.43" y1="2414.31" x2="4080.04" y2="1324.74" xlink:href="#linear-gradient-4"/><linearGradient id="linear-gradient-36" x1="-2497.32" y1="1024.7" x2="-2331.4" y2="1024.7" gradientTransform="matrix(-1, 0, 0, 1, -64.59, 0)" xlink:href="#linear-gradient-12"/><linearGradient id="linear-gradient-37" x1="1381.81" y1="327.49" x2="2143.01" y2="1302.62" gradientTransform="matrix(1, 0, 0, 1, 0, 0)" xlink:href="#linear-gradient-5"/><linearGradient id="linear-gradient-38" x1="-2591.28" y1="928.99" x2="-2682.11" y2="1431.21" gradientTransform="matrix(-1, 0, 0, 1, -64.59, 0)" xlink:href="#linear-gradient-4"/><linearGradient id="linear-gradient-39" x1="-3034.06" y1="2403.32" x2="-2923.37" y2="2403.32" gradientTransform="matrix(-1, 0, 0, 1, -64.59, 0)" xlink:href="#linear-gradient-3"/><linearGradient id="linear-gradient-40" x1="-3022.83" y1="2351.89" x2="-2977.94" y2="2351.89" gradientTransform="matrix(-1, 0, 0, 1, -64.59, 0)" xlink:href="#linear-gradient-12"/><linearGradient id="linear-gradient-41" x1="-2798.66" y1="2401.55" x2="-2624.98" y2="2401.55" gradientTransform="matrix(-1, 0, 0, 1, -64.59, 0)" xlink:href="#linear-gradient-3"/><linearGradient id="linear-gradient-42" x1="-2796.02" y1="2331.95" x2="-2751.38" y2="2331.95" gradientTransform="matrix(-1, 0, 0, 1, -64.59, 0)" xlink:href="#linear-gradient-12"/><linearGradient id="linear-gradient-43" x1="-3050.72" y1="1935.94" x2="-2746.36" y2="1935.94" gradientTransform="matrix(-1, 0, 0, 1, -64.59, 0)" xlink:href="#linear-gradient-3"/><linearGradient id="linear-gradient-44" x1="2858.21" y1="1170.54" x2="2097.97" y2="2145.21" xlink:href="#linear-gradient-4"/><linearGradient id="linear-gradient-45" x1="-2121.62" y1="1060.87" x2="-2480.13" y2="1506.9" gradientTransform="matrix(-1, 0, 0, 1, -64.59, 0)" xlink:href="#linear-gradient-12"/><linearGradient id="linear-gradient-46" x1="-2053.65" y1="1115.51" x2="-2412.16" y2="1561.53" gradientTransform="matrix(-1, 0, 0, 1, -64.59, 0)" xlink:href="#linear-gradient-12"/><linearGradient id="linear-gradient-47" x1="-2524.95" y1="791.32" x2="-2872.17" y2="1429.3" gradientTransform="matrix(-1, 0, 0, 1, -64.59, 0)" xlink:href="#linear-gradient-12"/><linearGradient id="linear-gradient-48" x1="-1846.96" y1="1557.17" x2="-2000.42" y2="1760.18" gradientTransform="matrix(-0.82, -0.58, -0.58, 0.82, 1958.84, -1428.5)" xlink:href="#linear-gradient-12"/><linearGradient id="linear-gradient-49" x1="-1964.16" y1="1606.14" x2="-1780.86" y2="1606.14" gradientTransform="matrix(-0.82, -0.58, -0.58, 0.82, 1958.84, -1428.5)" xlink:href="#linear-gradient-3"/><linearGradient id="linear-gradient-50" x1="-2071.71" y1="1717.94" x2="-1948.63" y2="1591.66" gradientTransform="matrix(-0.82, -0.58, -0.58, 0.82, 1958.84, -1428.5)" xlink:href="#linear-gradient-12"/></defs><title>others-fitur</title><rect class="cls-1" width="3710" height="3710"/><path class="cls-2" d="M3125,2333.37c-254.89,600.16-933.85,936.37-1522.64,845.68-95.81-14.76-358.47-58.72-591-266.1C563.67,2513.7,467.93,1723.16,829.06,1166c262.84-405.48,734-635.33,1181.7-623.84,96.43,2.48,466,17.74,790.8,285.56,47.71,39.34,152.93,132.81,247.75,281.11C3272,1457.09,3291.12,1942.24,3125,2333.37Z"/><path class="cls-3" d="M2028,2237.54s-16.56-215.7,165.57-453.76c169-220.88,587.18-734.58,669-1004.16,3.62-11.94,19.91-10.13,21.24,2.39,14.27,134.32,25.22,473.45-160.18,830.05C2484.53,2071.92,2028,2237.54,2028,2237.54Z"/><path class="cls-4" d="M2812.29,1027.59c-0.69,29.86-4.89,59.5-10.6,88.68-0.7,3.65-1.32,7.33-2.07,11l-2.46,10.87-4.93,21.76-5.78,21.51c-2,7.15-3.7,14.41-6.1,21.41a1085.55,1085.55,0,0,1-65.4,164.6c-6,13.48-13.4,26.17-20.29,39.14-7.08,12.85-13.63,26.07-21.45,38.43l-22.68,37.63c-3.65,6.37-7.92,12.28-12,18.36l-12.25,18.14-12.25,18.14-6.15,9.05-6.54,8.73L2575.21,1590c-4.4,5.78-8.63,11.74-13.17,17.37l-13.59,16.92-27.18,33.84c-36.61,44.77-73.53,89.28-111.47,132.77-18.81,21.9-37.95,43.47-57,65.14l-57.72,64.34c-38.51,42.83-77.07,85.58-114.23,129.58-9.44,10.87-18.34,22.21-27.43,33.39-4.61,5.54-8.85,11.38-13.22,17.12s-8.78,11.45-13,17.34c-8.12,11.95-16.69,23.61-24,36.15-8,12.11-14.43,25.17-21.29,38l0,0.08a1.59,1.59,0,0,1-2.25.64,1.84,1.84,0,0,1-.67-2.31c12.27-26.85,27.22-52.17,43.59-76.34,4.08-6,8.43-11.86,12.64-17.81s8.4-11.91,12.9-17.59c8.87-11.48,17.57-23.14,26.78-34.29,36.38-45.09,74.66-88.25,112.51-131.74l56.81-65.18c18.87-21.78,37.85-43.44,56.5-65.43q56.26-65.64,110.87-132.83l27.1-33.78,13.55-16.89c4.52-5.62,8.75-11.46,13.14-17.17l26.11-34.47,6.53-8.62,6.14-8.93,12.24-17.9c33.22-47.3,62.6-97.55,89.46-149.23a1072.65,1072.65,0,0,0,68.27-161.64c2.53-6.9,4.36-14.06,6.6-21.06l6.44-21.14,5.6-21.41,2.8-10.72c0.87-3.59,1.61-7.21,2.42-10.82,1.54-7.23,3.29-14.42,4.66-21.69l3.94-21.87c2.19-14.65,4.51-29.35,5.29-44.21a0.21,0.21,0,0,1,.21-0.21A0.22,0.22,0,0,1,2812.29,1027.59Z"/><path class="cls-5" d="M2372.36,521c-4.2-10.08-18.24-7.88-18.92,3-6.54,105-31.86,379.47-122.61,540-147.76,261.43-203.55,650.44-43.14,815.43C2187.7,1879.48,2829.78,1619.73,2372.36,521Z"/><path class="cls-3" d="M2381.4,667.32c0.36,3.15.44,6,.64,8.92l0.4,8.75,0.62,17.49c0.35,11.66.59,23.31,0.79,35q0.52,35,.29,69.91c-0.32,46.59-1.78,93.14-3.93,139.63s-5.36,92.9-9.5,139.18l-1.53,17.36-1.74,17.33c-1.21,11.55-2.22,23.13-3.61,34.65l-4,34.6-4.45,34.52c-12.31,92-29.17,183.17-52.12,272.56-0.72,2.79-1.39,5.6-2.14,8.38l-2.32,8.33-4.64,16.65-4.64,16.65c-1.61,5.53-3.36,11-5,16.51l-5.08,16.49c-1.74,5.48-3.28,11-5.21,16.44l-11.11,32.61c-15.59,43.15-33,85.55-53.11,126.42a1,1,0,0,1-1.43.44,1.18,1.18,0,0,1-.47-1.5h0A1326,1326,0,0,0,2259,1627.51l10.76-32.63c1.87-5.41,3.36-11,5-16.45l4.91-16.49c1.62-5.5,3.31-11,4.87-16.51l4.47-16.65,4.47-16.65,2.23-8.32c0.73-2.78,1.37-5.59,2.06-8.38l8.18-33.53c2.66-11.2,5-22.48,7.56-33.71,1.23-5.63,2.53-11.24,3.7-16.88l3.39-17,3.39-17c1.15-5.65,2.26-11.31,3.24-17,8.56-45.36,15.41-91.11,21.82-136.93,12.49-91.72,20.54-184.22,25.8-277q3.84-69.57,5.14-139.35,0.69-34.88.71-69.79c0-11.64-.11-23.27-0.29-34.91L2380.07,685l-0.28-8.72c-0.14-2.88-.22-5.88-0.47-8.54l0-.25a1.06,1.06,0,0,1,.95-1.19A1.11,1.11,0,0,1,2381.4,667.32Z"/><path class="cls-6" d="M672.84,743.43l1362.61,23.93a141.19,141.19,0,0,1,138.63,136.46L2240,2881.12a104.11,104.11,0,0,1-104,107.58l-1562.22,1a98.83,98.83,0,0,1-98.87-100.56L509.8,900.85A160.26,160.26,0,0,1,672.84,743.43Z"/><path class="cls-5" d="M802.54,2960.8h0l-174.71-5.33C569,2953.68,522,2904.36,523,2845.53l4.63-263.84a4.45,4.45,0,0,1,4.53-4.37,4.51,4.51,0,0,1,4.37,4.53l-4.63,263.84c-0.95,54,42.19,99.24,96.15,100.88l174.71,5.33A4.45,4.45,0,0,1,802.54,2960.8Z"/><path class="cls-5" d="M533.44,2504.5a4.45,4.45,0,0,1-4.33-4.53l0.75-42.73a4.45,4.45,0,0,1,4.53-4.37h0a4.45,4.45,0,0,1,4.35,4.53L538,2500.13a4.45,4.45,0,0,1-4.53,4.37h0Z"/><path class="cls-7" d="M677.32,727.49C862.95,756,1501.45,845.28,2031.19,814a43,43,0,0,1,45.63,41.4l70.62,1986.18a49.53,49.53,0,0,1-47.44,51.27c-222.73,9.26-1140,44.07-1466.2,4.1a39.24,39.24,0,0,1-34.43-39.45L623.71,773A46.55,46.55,0,0,1,677.32,727.49Z"/><path class="cls-5" d="M696.34,779.32c178.64,27.43,793.1,113.35,1302.9,83.2a41.42,41.42,0,0,1,43.92,39.85l68,1911.39a47.67,47.67,0,0,1-45.66,49.34c-214.34,8.91-1097,42.41-1411,3.94a37.77,37.77,0,0,1-33.13-38l23.42-2006A44.8,44.8,0,0,1,696.34,779.32Z"/><g class="cls-8"><path class="cls-1" d="M1981.78,1030a12.29,12.29,0,0,0,12.62-13l0-1a14.55,14.55,0,0,0-13.91-13.59L823.9,973c-7.29-.19-9.63,4.4-5.18,10.19l12.49,16.26c4.44,5.79,14.05,10.63,21.35,10.76Z"/></g><g class="cls-8"><path class="cls-1" d="M822.56,1049.34c-7.29-.19-9.63,4.4-5.18,10.19l12.49,16.26c4.44,5.79,14.05,10.63,21.35,10.76l1129.23,19.83a12.29,12.29,0,0,0,12.62-13l0-1a14.55,14.55,0,0,0-13.91-13.59Z"/></g><path class="cls-1" d="M1009.85,1746.45h-0.42l-153.38.8c-22.1.11-40.57-14.83-43-34.76L797.71,1584a28.32,28.32,0,0,1,6.38-21.4,34,34,0,0,1,23.55-12.06h0c12.92-1.07,30.72-2.86,50.3-4.81,42.63-4.27,90.95-9.11,119.36-9.88l0.63,0c20.33-.3,38,11.84,43.12,29.69,8.44,29.47,8.57,85.42,7.93,145C1048.76,1730.12,1031.25,1746.14,1009.85,1746.45ZM828.67,1563a21.44,21.44,0,0,0-14.89,7.49,15.91,15.91,0,0,0-3.65,12L825.53,1711c1.63,13.62,14.73,23.82,30.46,23.74l153.38-.8h0.3c14.66-.22,26.65-10.71,26.79-23.51,0.63-58.65.53-113.6-7.45-141.46-3.54-12.33-17-21.33-31.37-20.6-28,.76-78.14,5.79-118.46,9.82-19.66,2-37.53,3.76-50.5,4.84h0Z"/><path class="cls-9" d="M845.33,1575.7c32.18-2.68,102.1-10.83,135.3-11.73,14.07-.38,26.54,7.94,30,20.09,6.76,23.6,6.61,70.85,6.14,114.47-0.14,13.06-12,23.66-26.62,23.74l-122.57.64c-15.07.08-27.74-10-29.34-23.38L826,1596.87C824.7,1586.25,833.4,1576.7,845.33,1575.7Z"/><g class="cls-8"><path class="cls-1" d="M1143.17,1610.94c-7.3-.07-11.66,5.63-9.69,12.66l14.2,50.78c2,7,9.54,12.69,16.84,12.58l770.82-11.42a13,13,0,0,0,12.78-13.46l-1.13-30.67a14.06,14.06,0,0,0-13.75-13.38Z"/></g><path class="cls-1" d="M1019,1402.1h-0.42l-153.38.8c-22.1.11-40.57-14.83-43-34.76l-15.39-128.48a28.33,28.33,0,0,1,6.38-21.4,34,34,0,0,1,23.55-12.06h0c12.92-1.07,30.72-2.86,50.3-4.82,42.63-4.27,90.95-9.11,119.36-9.88l0.63,0c20.33-.3,38,11.84,43.12,29.68,8.44,29.47,8.57,85.42,7.93,145C1057.91,1385.77,1040.41,1401.79,1019,1402.1ZM837.82,1218.69a21.44,21.44,0,0,0-14.89,7.49,15.9,15.9,0,0,0-3.65,12l15.39,128.48c1.63,13.62,14.73,23.82,30.46,23.74l153.38-.8h0.3c14.66-.22,26.65-10.71,26.79-23.51,0.63-58.65.53-113.6-7.45-141.46-3.54-12.33-17-21.33-31.37-20.6-28,.76-78.14,5.79-118.46,9.82-19.66,2-37.53,3.76-50.5,4.84h0Z"/><path class="cls-9" d="M854.49,1231.35c32.18-2.68,102.1-10.83,135.3-11.73,14.07-.38,26.54,7.94,30,20.09,6.76,23.6,6.61,70.85,6.14,114.47-0.14,13.06-12,23.66-26.62,23.74l-122.57.64c-15.07.08-27.74-10-29.34-23.38l-12.3-102.66C833.85,1241.9,842.56,1232.35,854.49,1231.35Z"/><g class="cls-8"><path class="cls-1" d="M1152.32,1266.59c-7.3-.07-11.66,5.63-9.69,12.66l14.2,50.78c2,7,9.54,12.69,16.84,12.58l770.82-11.42a13,13,0,0,0,12.78-13.46l-1.13-30.67a14.06,14.06,0,0,0-13.75-13.38Z"/></g><path class="cls-10" d="M861.31,1251.43h0a23.54,23.54,0,0,1,32.6,8.35L925,1313.56a7.56,7.56,0,0,0,13.49-.78L1011,1144.64c3.62-8.39,16.07-5.75,16.07,3.38,0,51.1-12.13,148.42-92.55,230.92,0,0-45.25-16.82-82.65-95.84A24.7,24.7,0,0,1,861.31,1251.43Z"/><path class="cls-1" d="M934.51,1385.57a6.67,6.67,0,0,1-2.31-.41c-1.95-.73-48.22-18.68-86.34-99.22a31.24,31.24,0,0,1,12-40.18h0a30.17,30.17,0,0,1,41.78,10.71l31.05,53.77a0.93,0.93,0,0,0,1.65-.09L1004.91,1142a14.69,14.69,0,0,1,16.79-8.76,14.94,14.94,0,0,1,12,14.76c0,51.8-12.29,151.28-94.44,235.55A6.63,6.63,0,0,1,934.51,1385.57ZM864.75,1257.1a18,18,0,0,0-6.9,23.16c29.6,62.53,63.89,84.73,75.17,90.65,75.94-80.17,87.4-173.81,87.41-222.9a1.62,1.62,0,0,0-1.42-1.77,1.53,1.53,0,0,0-1.92,1L944.54,1315.4a14.19,14.19,0,0,1-25.32,1.47l-31.05-53.77a16.9,16.9,0,0,0-23.41-6h0Z"/><path class="cls-1" d="M1014.72,2075.13h-0.42l-153.38.8c-22.1.11-40.57-14.83-43-34.76l-15.39-128.47A28.33,28.33,0,0,1,809,1891.3a34,34,0,0,1,23.55-12.06h0c12.93-1.07,30.72-2.86,50.3-4.82,42.63-4.27,90.95-9.11,119.36-9.89h0.62c20.33-.3,38,11.84,43.13,29.69,8.44,29.47,8.57,85.42,7.93,145C1053.63,2058.8,1036.12,2074.82,1014.72,2075.13ZM833.54,1891.72a21.44,21.44,0,0,0-14.89,7.49,15.91,15.91,0,0,0-3.65,12l15.39,128.47c1.63,13.62,14.73,23.82,30.47,23.74l153.38-.8h0.3c14.66-.22,26.65-10.71,26.79-23.51,0.63-58.65.53-113.6-7.45-141.45-3.54-12.34-17-21.18-31.38-20.61-28,.76-78.14,5.79-118.46,9.82-19.66,2-37.53,3.76-50.5,4.84h0Z"/><path class="cls-9" d="M850.2,1904.39c32.18-2.68,102.1-10.83,135.3-11.73,14.07-.38,26.54,7.94,30,20.09,6.76,23.6,6.61,70.85,6.14,114.47-0.14,13.06-12,23.66-26.62,23.74l-122.57.64c-15.07.08-27.74-10-29.34-23.37l-12.3-102.66C829.57,1914.93,838.27,1905.38,850.2,1904.39Z"/><g class="cls-8"><path class="cls-1" d="M1148,1939.62c-7.3-.07-11.66,5.63-9.69,12.66l14.2,50.78c2,7,9.54,12.69,16.84,12.58l770.83-11.42a13,13,0,0,0,12.78-13.46l-1.13-30.67a14.06,14.06,0,0,0-13.75-13.38Z"/></g><path class="cls-1" d="M1005,2391h-0.41l-153.38.79c-22.1.12-40.57-14.82-43-34.76L792.9,2228.53a28.34,28.34,0,0,1,6.38-21.41,34.05,34.05,0,0,1,23.55-12.06h0c12.91-1.07,30.69-2.85,50.25-4.81,40.54-4.06,91-9.11,119.42-9.88,20.18-.4,38.58,11.63,43.75,29.67,8.44,29.47,8.57,85.42,7.93,145C1044,2374.62,1026.44,2390.65,1005,2391ZM823.87,2207.54A21.47,21.47,0,0,0,809,2215a15.92,15.92,0,0,0-3.64,12l15.39,128.47c1.63,13.62,14.73,23.82,30.46,23.74l153.38-.79c14.45-.47,26.95-10.64,27.09-23.52,0.63-58.65.53-113.59-7.45-141.45-3.54-12.33-17-21-31.37-20.6-28,.76-78.18,5.78-118.51,9.82-19.64,2-37.49,3.75-50.45,4.83h0Z"/><path class="cls-9" d="M840.53,2220.21c32.18-2.68,102.1-10.82,135.3-11.73,14.07-.38,26.54,7.93,30,20.09,6.76,23.6,6.61,70.85,6.14,114.47-0.14,13.06-12,23.66-26.62,23.74l-122.57.64c-15.07.08-27.74-10-29.34-23.38l-12.3-102.66C819.9,2230.75,828.6,2221.2,840.53,2220.21Z"/><g class="cls-8"><path class="cls-1" d="M1138.37,2255.45c-7.3-.07-11.66,5.63-9.69,12.66l14.2,50.78c2,7,9.54,12.69,16.84,12.58L1930.54,2320a13,13,0,0,0,12.78-13.46l-1.13-30.67a14.06,14.06,0,0,0-13.75-13.38Z"/></g><path class="cls-1" d="M992.45,2716.7H992l-153.38.8c-22.1.11-40.57-14.83-43-34.76l-15.39-128.48a28.33,28.33,0,0,1,6.38-21.4,34,34,0,0,1,23.55-12.06h0c12.93-1.07,30.72-2.86,50.3-4.82,42.63-4.27,90.95-9.11,119.36-9.88,20.84,0,38.59,11.64,43.75,29.67,8.44,29.47,8.57,85.43,7.93,145C1031.36,2700.36,1013.85,2716.38,992.45,2716.7ZM811.27,2533.28a21.44,21.44,0,0,0-14.89,7.49,15.91,15.91,0,0,0-3.65,12l15.39,128.48c1.63,13.62,14.73,23.82,30.46,23.74l153.38-.8h0.3c14.66-.22,26.65-10.71,26.79-23.51,0.63-58.65.53-113.6-7.45-141.46-3.54-12.34-17-20.86-31.37-20.6-28,.76-78.14,5.79-118.46,9.82-19.66,2-37.53,3.76-50.5,4.84h0Z"/><path class="cls-9" d="M827.93,2545.94c32.18-2.68,102.1-10.83,135.3-11.73,14.07-.38,26.54,7.94,30,20.09,6.76,23.6,6.61,70.85,6.14,114.47-0.14,13.06-12,23.66-26.62,23.74l-122.57.64c-15.07.08-27.74-10-29.34-23.38l-12.3-102.66C807.3,2556.49,816,2546.94,827.93,2545.94Z"/><g class="cls-8"><path class="cls-1" d="M1125.77,2581.18c-7.3-.07-11.66,5.63-9.69,12.66l14.2,50.78c2,7,9.54,12.69,16.84,12.58l770.83-11.42a13,13,0,0,0,12.78-13.46l-1.13-30.67a14.06,14.06,0,0,0-13.75-13.38Z"/></g><path class="cls-11" d="M1443.39,487.53c-48.62-35.1-91.43-35.18-121.71-26.82a60.1,60.1,0,0,0-43.79,62.43l10.5,142,154.36,16.43S1538.73,556.38,1443.39,487.53Zm-70,113.21a38.56,38.56,0,1,1,39.23-37.87A38.56,38.56,0,0,1,1373.39,600.74Z"/><path class="cls-5" d="M1302.19,609.21a7.66,7.66,0,0,1-4.88-6.58L1295.64,580a7.66,7.66,0,0,1,15.27-1.12l1.67,22.62A7.66,7.66,0,0,1,1302.19,609.21Zm-3.28-44.33a7.65,7.65,0,0,1-4.88-6.58l-1.27-17.18a61.3,61.3,0,0,1,44.6-63.54,119.55,119.55,0,0,1,58.45-1.38,7.66,7.66,0,0,1-3.34,15,104.32,104.32,0,0,0-51,1.19A46,46,0,0,0,1308,540l1.27,17.18A7.66,7.66,0,0,1,1298.92,564.88Z"/><path class="cls-12" d="M1075.77,753.12l1.25-71.3a43.51,43.51,0,0,1,45.76-42.69l491.28,25.47a42.32,42.32,0,0,1,40.09,40.47l2.91,68.58Z"/><path class="cls-5" d="M1239.42,668.77a4.45,4.45,0,0,1,.2-8.9l21.14,0.37a4.4,4.4,0,0,1,4.37,4.53,4.45,4.45,0,0,1-4.53,4.37l-21.14-.37h0Z"/><path class="cls-5" d="M1100.08,734.61a7.66,7.66,0,0,1-4.89-7.28l0.5-28.84a44.36,44.36,0,0,1,45.12-43.57l77.72,1.37a7.66,7.66,0,0,1-.27,15.32l-77.72-1.37A29.06,29.06,0,0,0,1111,698.76l-0.51,28.84A7.65,7.65,0,0,1,1100.08,734.61Z"/><path class="cls-13" d="M922.2,724.32l859.61,15.07a63.54,63.54,0,0,1,61.68,53.8l0.65,4.21a54.57,54.57,0,0,1-54.89,62.93L907.35,844.85A35.48,35.48,0,0,1,872.57,807l2.59-39.44A46.33,46.33,0,0,1,922.2,724.32Z"/><path class="cls-14" d="M2255.83,2455.57c15.36,24.53,31.55,59.69,27.65,94.86-7.1,63.94-105.17,92.36-191.12,56.83-61.39-25.37-35.08-108.74-15-154.3,6.31-14.34-4.4-30.41-20.06-30.41H1835.91V2173.23a28.94,28.94,0,0,1,42.34-25.7c23.13,12.07,53.53,24.88,85.53,29.93,67.49,10.66,135-63.94,127.88-135s-74.59-124.32-145.64-120.77c-24.57,1.23-45,11.5-61.25,24.42-18.69,14.87-46.36.72-46.36-23.17V1705h234.16c12.91,0,20.05-15.11,11.74-25-113-134.13,113.89-264.44,170.75-177.49,43.57,66.63,11.87,142.51-9.16,179.61a15.27,15.27,0,0,0,13.26,22.86h226.79v225.42c0,23.9-27.63,38-46.4,23.16-19.56-15.43-44.72-29.08-74.38-31.9-74.59-7.11-117.22,63.94-131.85,120.77S2283.48,2181,2351,2170.36c36.39-5.75,73.82-16.36,100.58-24.92a28.94,28.94,0,0,1,37.7,27.82l-1.54,249.3H2274.46C2257.51,2422.56,2246.83,2441.21,2255.83,2455.57Z"/><path class="cls-1" d="M2169.86,2629.45a211.34,211.34,0,0,1-80-16.05c-17.47-7.22-29.71-19.3-36.39-35.91-15.05-37.45,1.38-89.84,17.81-127.2a14.67,14.67,0,0,0-1.2-14.16,15.23,15.23,0,0,0-12.79-6.94H1835.91a6.63,6.63,0,0,1-6.63-6.63V2173.22a35.58,35.58,0,0,1,52-31.58c29.3,15.3,57.39,25.15,83.5,29.27,27,4.25,56.19-6.28,80.15-28.91,28.17-26.61,43.53-64.49,40.09-98.86-6.57-65.66-70-118.17-138.7-114.81-20.23,1-39.55,8.75-57.45,23a34.49,34.49,0,0,1-36.73,4,35.67,35.67,0,0,1-20.39-32.33V1705a6.63,6.63,0,0,1,6.63-6.63h234.16a8.48,8.48,0,0,0,7.85-5,8.3,8.3,0,0,0-1.18-9.05c-41.22-48.93-36.06-93-24.48-121.43,19.85-48.65,76.07-89.3,130.78-94.56,33.43-3.21,60.07,7.66,75.07,30.59,19.36,29.61,43.95,93.22-8.94,186.51a8.63,8.63,0,0,0,0,8.69,8.43,8.43,0,0,0,7.46,4.27h226.79a6.63,6.63,0,0,1,6.63,6.63v225.42a35.63,35.63,0,0,1-20.29,32.26,34.64,34.64,0,0,1-36.85-3.89c-22.73-17.93-46.59-28.19-70.9-30.51-68.51-6.54-110,58.32-124.79,115.82-6.58,25.57,4.59,59.06,28.46,85.32,23.52,25.87,54,38.71,81.72,34.35,36.59-5.78,74.35-16.61,99.59-24.68a35.57,35.57,0,0,1,46.35,34.18l-1.54,249.3a6.63,6.63,0,0,1-6.63,6.59H2274.46a15.09,15.09,0,0,0-13.35,7.9,14.55,14.55,0,0,0,.34,15c15.35,24.51,32.79,61.61,28.62,99.12-2.68,24.08-16.87,44.36-41,58.66C2227,2622.88,2199.19,2629.45,2169.86,2629.45Zm-327.32-213.53h214.72a28.46,28.46,0,0,1,23.9,13,28.11,28.11,0,0,1,2.23,26.76c-12.62,28.68-31.68,82-17.65,116.91,5.37,13.35,14.9,22.71,29.15,28.59,50.27,20.78,109.5,19.68,147.38-2.73,14.26-8.43,31.83-23.72,34.61-48.7,3.74-33.71-12.44-67.88-26.68-90.61h0a27.65,27.65,0,0,1-.7-28.42,28.55,28.55,0,0,1,25-14.74h206.66l1.49-242.71a22.3,22.3,0,0,0-29-21.46c-25.68,8.21-64.15,19.24-101.57,25.15-32.06,5.08-67.07-9.34-93.61-38.53-26.79-29.48-39.16-67.77-31.49-97.56,16.1-62.57,62.13-133,138.9-125.72,26.9,2.57,53.09,13.77,77.86,33.3a21.2,21.2,0,0,0,22.85,2.36,22.46,22.46,0,0,0,12.81-20.32V1711.67H2259.15a21.9,21.9,0,0,1-19-32.76c21.21-37.42,50.64-109.61,9.38-172.71-12.17-18.61-34.45-27.37-62.69-24.64-50.16,4.82-101.65,41.95-119.77,86.36-14.63,35.85-6.91,73.15,22.34,107.86a21.87,21.87,0,0,1-16.81,35.89H1845V1923a22.51,22.51,0,0,0,12.89,20.38,21,21,0,0,0,22.71-2.4c20.11-16,42-24.7,65.05-25.85,76.65-3.89,145.2,53,152.57,126.73,3.84,38.38-13.09,80.46-44.18,109.83-27,25.48-60.26,37.28-91.33,32.37-27.53-4.35-57-14.64-87.57-30.61a22.31,22.31,0,0,0-32.64,19.82v242.7Z"/><path class="cls-15" d="M2274.27,3055.74c21.74-38.77,25.29-94.35-76-143-146.22-70.18-175.93,61.87-138.65,146.41,9.44,21.41-6.43,45.4-29.83,45.4H1835.91V2895.76c0-20.67-21.06-35.09-40.09-27a245.81,245.81,0,0,1-84.79,19.14c-77.59,3.55-136.65-60.39-124.88-149.19s87.31-110.12,124.13-99.46c19.23,5.57,52.62,26.9,80.15,46,19.22,13.35,45.49-.42,45.49-23.82V2422.56h221.36c15.66,0,26.37,16.07,20.06,30.41-20,45.57-46.36,128.93,15,154.3,85.95,35.52,184,7.11,191.12-56.83,3.91-35.17-12.29-70.33-27.65-94.86-9-14.36,1.69-33,18.63-33h213.25l-1.34,217c-0.16,26.08-29.24,40.88-50.89,26.35-20.15-13.52-44.66-25.23-70.31-26.66-63.94-3.55-127.88,46.18-131.63,110.12s42.83,145.64,113.87,142.08c33.58-1.68,68-19.23,94.86-37.27,21.59-14.48,50.52,1.06,50.37,27.06l-1.34,223.34H2302.4C2277.33,3104.57,2262,3077.61,2274.27,3055.74Z"/><path class="cls-1" d="M2491.31,3111.2h-188.9a38.6,38.6,0,0,1-33.64-19.23,39.32,39.32,0,0,1-.28-39.48h0c11.64-20.76,14.55-40.77,8.64-59.48-8.66-27.4-36.17-52.39-81.76-74.28-52.45-25.17-93.46-25.63-118.6-1.28-24.6,23.82-36.85,80.65-11.1,139a39.08,39.08,0,0,1-35.9,54.71H1835.91a6.63,6.63,0,0,1-6.63-6.63V2895.76a22.67,22.67,0,0,0-10.2-18.94,21.56,21.56,0,0,0-20.66-2,251.5,251.5,0,0,1-87.08,19.66c-38.73,1.79-73.82-12.25-98.81-39.48-27.32-29.78-39-71.41-33-117.2,6.65-50.18,32.26-76.53,52.57-89.8,30-19.6,61.84-20.42,80-15.17,16.5,4.77,44.12,20.57,82.09,46.94a22.33,22.33,0,0,0,35.07-18.37V2422.56a6.63,6.63,0,0,1,6.63-6.63h221.36a28.46,28.46,0,0,1,23.9,13,28.11,28.11,0,0,1,2.23,26.76c-12.62,28.68-31.68,82-17.65,116.91,5.37,13.36,14.9,22.71,29.15,28.59,50.27,20.78,109.5,19.68,147.38-2.73,14.26-8.43,31.84-23.72,34.61-48.7,3.74-33.71-12.44-67.88-26.68-90.61a27.65,27.65,0,0,1-.7-28.42,28.55,28.55,0,0,1,25-14.74h213.25a6.63,6.63,0,0,1,6.63,6.68l-1.34,217a38.2,38.2,0,0,1-20.57,34,39.62,39.62,0,0,1-40.66-2.23c-23.54-15.79-46.07-24.38-67-25.54-62.82-3.48-121.18,45-124.64,103.88-2.21,37.55,14.06,80.69,40.48,107.33,13.38,13.5,35.73,29.25,66.45,27.74,26.56-1.33,58.2-13.83,91.5-36.16a39,39,0,0,1,60.69,32.61l-1.33,223.34A6.63,6.63,0,0,1,2491.31,3111.2ZM2280.05,3059a26.18,26.18,0,0,0,.16,26.28,25.45,25.45,0,0,0,22.19,12.67h182.31l1.3-216.75a25.69,25.69,0,0,0-40-21.51c-35.81,24-68.86,36.92-98.23,38.38-28.16,1.4-54.62-9.54-76.53-31.64-29.36-29.62-46.75-75.73-44.3-117.45,3.87-65.87,68.62-120.14,138.62-116.35,23.32,1.3,48.09,10.64,73.63,27.77a26,26,0,0,0,27.05,1.52,25.12,25.12,0,0,0,13.51-22.4l1.3-210.32H2274.46a15.09,15.09,0,0,0-13.35,7.9,14.55,14.55,0,0,0,.34,15c15.35,24.51,32.79,61.61,28.62,99.12-2.68,24.08-16.87,44.36-41,58.66-41.94,24.81-104.44,26.21-159.2,3.58-17.47-7.22-29.71-19.3-36.39-35.91-15.05-37.45,1.38-89.84,17.81-127.2a14.67,14.67,0,0,0-1.2-14.16,15.23,15.23,0,0,0-12.79-6.94H1842.54v232.24a35.6,35.6,0,0,1-55.9,29.27c-36.26-25.19-63.31-40.78-78.21-45.1-16.66-4.81-44.47-2.5-69,13.53-18,11.75-40.68,35.24-46.68,80.43-5.55,41.84,5,79.66,29.58,106.49,22.28,24.29,53.67,36.79,88.43,35.2a238.36,238.36,0,0,0,82.5-18.62,35.09,35.09,0,0,1,33.17,3.12,35.9,35.9,0,0,1,16.15,30v202.17h187.2a25.9,25.9,0,0,0,21.76-11.79,25.19,25.19,0,0,0,2-24.3c-21-47.68-23.26-117.83,14-153.92,20.55-19.9,60.41-36.26,133.57-1.14,49,23.53,78.87,51.21,88.68,82.24,7.06,22.34,3.79,45.88-9.72,70h0Z"/><path class="cls-16" d="M1617.16,3056.79a193.92,193.92,0,0,0,19.82-58c20.48-124-133-107.3-194.39-43.36-31.24,32.55-20.8,70.91-3,100.73,13,21.86-2.25,49.56-27.7,49.56H1203V2905.59c0-22.66,24-36.78,44.12-26.39,23.18,12,54.49,22.9,91.51,22.9,81.7,0,101.26-110.11,103.91-145.64,2.41-32.22-56.15-160.88-194.15-81.13-20,11.53-44.94-2.83-44.94-25.88V2417.23h214.4c17.88,0,27.85-20.24,17.33-34.7-49.77-68.42-6.07-165.53,31.33-182,44.4-19.54,135-24.87,161.62,74.59,13.91,51.93,1.08,89.82-14.35,114.17a21.66,21.66,0,0,0,18.35,33.24h203.8v238.88c0,23.4-26.27,37.17-45.49,23.82-27.53-19.12-60.92-40.45-80.15-46-36.83-10.66-112.36,10.66-124.13,99.46s47.29,152.74,124.88,149.19a245.81,245.81,0,0,0,84.79-19.14c19-8.08,40.09,6.34,40.09,27v208.81h-190C1621.33,3104.57,1605.78,3078.55,1617.16,3056.79Z"/><path class="cls-1" d="M1411.88,3112.3H1203a6.63,6.63,0,0,1-6.63-6.63V2905.59a36.12,36.12,0,0,1,17.42-31.09,36.9,36.9,0,0,1,36.38-1.2c28.49,14.7,58.25,22.16,88.46,22.16,85.89,0,96.87-133.8,97.3-139.5,1.25-16.74-16.37-61.92-53.14-85-35.61-22.36-80.94-18.87-131.07,10.11a36.58,36.58,0,0,1-54.89-31.62V2417.23a6.63,6.63,0,0,1,6.63-6.63h214.4a14.65,14.65,0,0,0,13.3-8.11,15.15,15.15,0,0,0-1.34-16.05c-31.36-43.11-24.75-91.35-18-116.27,9.67-35.83,30.59-66.24,52-75.68,26.93-11.85,71.92-19.2,110.09-.88,29.87,14.33,50.27,41.19,60.62,79.83,14.86,55.49,0,95.58-15.16,119.44a15,15,0,0,0,12.75,23.06h203.8a6.63,6.63,0,0,1,6.63,6.63v238.88a35.6,35.6,0,0,1-55.9,29.27c-36.26-25.19-63.31-40.78-78.21-45.1-16.66-4.81-44.47-2.5-69,13.53-18,11.75-40.68,35.24-46.68,80.43-5.55,41.84,5,79.66,29.58,106.49,22.28,24.29,53.67,36.79,88.43,35.2a238.36,238.36,0,0,0,82.5-18.62,35.08,35.08,0,0,1,33.17,3.12,35.9,35.9,0,0,1,16.15,30v208.81a6.63,6.63,0,0,1-6.63,6.63h-190a39.17,39.17,0,0,1-34.6-57.49h0a186.55,186.55,0,0,0,19.16-56.05c6.17-37.34-3.95-63.76-29.24-76.43-40.49-20.27-115.23-1.45-153.81,38.75-23.5,24.48-24.21,55.68-2.11,92.74a39.23,39.23,0,0,1,.51,39.91A38.54,38.54,0,0,1,1411.88,3112.3ZM1209.61,3099h202.26a25.42,25.42,0,0,0,22.37-13,26.11,26.11,0,0,0-.37-26.56c-25.17-42.22-23.81-79.81,3.93-108.72,42.82-44.62,123.52-64.36,169.32-41.43,30.57,15.31,43.5,47.44,36.4,90.46a199.93,199.93,0,0,1-20.49,60h0a25.94,25.94,0,0,0,.75,25.66,25.62,25.62,0,0,0,22.09,12.42h183.39V2895.76a22.67,22.67,0,0,0-10.2-18.94,21.56,21.56,0,0,0-20.66-2,251.5,251.5,0,0,1-87.08,19.66c-38.73,1.79-73.82-12.25-98.81-39.48-27.32-29.78-39-71.41-33-117.2,6.65-50.18,32.26-76.53,52.57-89.8,30-19.6,61.84-20.42,80-15.17,16.5,4.77,44.12,20.57,82.09,46.94a22.33,22.33,0,0,0,35.07-18.37V2429.19H1632.11a28.29,28.29,0,0,1-24-43.42c13.7-21.62,27.17-58.06,13.55-108.91-9.3-34.73-27.32-58.73-53.54-71.3-34.1-16.36-74.64-9.65-99,1.07-14.94,6.57-35,31.7-44.57,67-6.11,22.64-12.17,66.37,15.94,105a28.55,28.55,0,0,1,2.43,29.88,28,28,0,0,1-25.13,15.36H1210.06v225.58a23.31,23.31,0,0,0,35,20.14c69.07-39.92,116.85-27.39,144.77-9.86,42.34,26.59,60.85,76.67,59.31,97.23-4.21,56.37-32.22,151.78-110.53,151.78-32.34,0-64.16-8-94.55-23.64a23.71,23.71,0,0,0-23.4.74,22.65,22.65,0,0,0-11.05,19.76V3099Z"/><path class="cls-17" d="M1417.42,1704.91s-193.27,205.65-378.09,216.91c0,0,15.45,104.34,39.78,120.64,0,0,251.51-139,340.82-302.54Z"/><path class="cls-18" d="M1552.36,2173.26c15.44-24.35,28.26-62.24,14.35-114.17-26.64-99.46-117.22-94.13-161.62-74.59-37.4,16.46-81.1,113.56-31.33,182,10.52,14.46.55,34.7-17.33,34.7H1142V1949.78c0-22.18-23.26-36.79-43.1-26.88a241.41,241.41,0,0,1-88.13,24.3c-85.25,7.1-125.66-67.49-121.44-142.09,3.66-64.7,97.67-145.42,199-75.33,19.75,13.66,46.74-.73,46.74-24.74V1483.12H1398c-81.7,68.74-60.39,169.25,21.31,208.32s156.29,7.1,163.4-81.7c3.66-45.72-12.56-76.38-29.16-95.36-8.7-9.95-1.83-25.41,11.38-25.41H1777V1706.9c0,23.89,27.66,38,46.36,23.17,16.24-12.92,36.68-23.19,61.25-24.42,71-3.55,138.53,49.73,145.64,120.77s-60.39,145.64-127.88,135c-32-5.05-62.41-17.86-85.53-29.93a28.94,28.94,0,0,0-42.34,25.7V2206.5h-203.8A21.66,21.66,0,0,1,1552.36,2173.26Z"/><path class="cls-1" d="M1774.51,2213.14h-203.8a28.29,28.29,0,0,1-24-43.43h0c13.7-21.62,27.17-58.05,13.55-108.9-9.31-34.74-27.32-58.73-53.54-71.31-34.1-16.36-74.64-9.65-99,1.07-14.94,6.57-35,31.69-44.57,67-6.11,22.64-12.17,66.38,15.94,105a28.55,28.55,0,0,1,2.44,29.88,28.05,28.05,0,0,1-25.13,15.36H1142a6.63,6.63,0,0,1-6.63-6.63V1949.78a23.26,23.26,0,0,0-11.09-19.91,22.9,22.9,0,0,0-22.42-1,247.51,247.51,0,0,1-90.54,25c-34.94,2.91-65.48-7.3-88.3-29.52-27.94-27.21-43-71.9-40.32-119.55,2.1-37.14,31.07-76.52,70.45-95.77,25.54-12.49,77.58-27.11,139,15.36a22.66,22.66,0,0,0,23.78,1.41,23,23,0,0,0,12.55-20.7V1483.12a6.63,6.63,0,0,1,6.63-6.63H1398a6.63,6.63,0,0,1,4.27,11.71c-36.26,30.51-53.46,68.95-48.46,108.24,4.78,37.56,30.34,70.84,68.36,89,40.53,19.39,80.42,20.92,109.44,4.21,25.72-14.81,41.51-43.38,44.48-80.46,3.57-44.65-13-73.84-27.55-90.47a21.88,21.88,0,0,1,16.38-36.41H1777a6.63,6.63,0,0,1,6.63,6.63V1706.9a22.51,22.51,0,0,0,12.89,20.38,21,21,0,0,0,22.7-2.4c20.12-16,42-24.7,65.05-25.85,76.69-3.87,145.2,53,152.57,126.73,3.84,38.37-13.1,80.46-44.19,109.83-27,25.47-60.26,37.26-91.32,32.36-27.52-4.35-57-14.64-87.57-30.6a22.3,22.3,0,0,0-32.64,19.81V2206.5A6.63,6.63,0,0,1,1774.51,2213.14ZM1558,2176.81a15,15,0,0,0,12.75,23.06h197.16v-242.7a35.57,35.57,0,0,1,52-31.58c29.31,15.29,57.4,25.14,83.5,29.26,27,4.27,56.19-6.27,80.14-28.9,28.17-26.61,43.54-64.5,40.1-98.87-6.57-65.66-70.09-118.16-138.71-114.81-20.22,1-39.55,8.75-57.45,23a34.5,34.5,0,0,1-36.73,4,35.67,35.67,0,0,1-20.39-32.33V1495.61H1564.91a8.39,8.39,0,0,0-7.83,5,8.59,8.59,0,0,0,1.44,9.41c16.22,18.55,34.72,51,30.78,100.26-3.32,41.56-21.46,73.84-51.08,90.9-32.87,18.93-77.25,17.56-121.79-3.74-42.11-20.14-70.44-57.27-75.8-99.32-4.88-38.34,9.74-77.06,40.43-108.36h-239.3V1705a36.55,36.55,0,0,1-19.66,32.45,35.72,35.72,0,0,1-37.49-2.25c-55.83-38.61-102.66-25.56-125.61-14.35-35.27,17.24-61.18,52-63,84.6-2.48,43.87,11.1,84.73,36.32,109.3,20.27,19.74,46.48,28.42,77.94,25.8A234.31,234.31,0,0,0,1096,1917a36.51,36.51,0,0,1,52.71,32.82v244.76h207.76a14.66,14.66,0,0,0,13.31-8.11,15.14,15.14,0,0,0-1.34-16c-31.36-43.11-24.75-91.36-18-116.28,9.68-35.83,30.59-66.24,52-75.68,26.93-11.85,71.92-19.19,110.08-.88,29.87,14.33,50.27,41.19,60.62,79.84,14.86,55.5,0,95.58-15.16,119.44h0Z"/><path class="cls-19" d="M955.93,1696s-34.16,16.62-40.45,35.71c-5,15.32-42.82,17.29-46.55,47.42-1.93,15.55-13.44,28-28.93,30.38-38.58,5.91-98,25.95-107.55,92.94-7.26,51.13,18.8,70.52,46.16,77.23,20.09,4.93,33.44,24.47,29.38,44.75-3.9,19.46,1.91,41.95,35.62,59.73,75.53,39.86,151-94.42,151-94.42L1010,1755.24Z"/><path class="cls-20" d="M645.46,3166.08l-4.89,40.18A16.6,16.6,0,0,1,626,3220.78c-12.88,1.47-33.55,3-53.78.84a14.21,14.21,0,0,1-11.94-18.43c4.93-15.51,14-38.8,27-52.5h44.57A13.73,13.73,0,0,1,645.46,3166.08Z"/><path class="cls-21" d="M994.58,2695.38l7.52,44.26s-25.19,255.2-29.68,357.27a80,80,0,0,0,11.84,45.46l43.81,71.14-111.34-65.7-2.22-13.59,18.23-25.06-23.87-285.88a87.71,87.71,0,0,1,10-48.51l23-43.26Z"/><path class="cls-22" d="M1035.4,3223.81H999.87a21.39,21.39,0,0,1-17-8.32c-11.08-14.39-34-42.47-45-43.21-14.77-1-12.88,51.53-12.88,51.53h-8.28l-10.49-65.26a38.63,38.63,0,0,1,20.27-40.38h0s3.38,25,21.69,36,74.51,50.6,74.51,50.6a50.75,50.75,0,0,1,14.44.38C1048.36,3207.21,1046.8,3223.81,1035.4,3223.81Z"/><path class="cls-23" d="M842.08,2716.4s-147.59,280-171.06,343.9-31.68,117.25-32,122.3c-0.49,7.89-10.31,15.46-37.36,15.46-14,0-20.8-5.6-24.15-11a15.77,15.77,0,0,1-.6-15.28c8.54-17.28,35.63-72.5,45.67-97.54,12-29.9,37.75-165.41,51.88-212.52s30.11-98.22,91.66-145.3C766.14,2716.4,808.39,2675,842.08,2716.4Z"/><path class="cls-24" d="M935.32,2257.65c38.07-161.33-58.38-252.58-58.38-252.58,60.86-58.42,171.74-85,171.74-85s105.81,77.35,93.25,137.9c-7.36,35.49-74.37,212.56-74.37,212.56S1005.6,2299.86,935.32,2257.65Z"/><path class="cls-25" d="M850.91,2337.52c15.49-46.68,84.41-79.87,84.41-79.87,70.28,42.21,132.25,12.88,132.25,12.88s13.9,53.12,4.31,102.48-69.77,366.62-69.77,366.62c-94.82,19.21-240.65-19.33-240.65-19.33C821.85,2613.07,835.41,2384.2,850.91,2337.52Z"/><path class="cls-26" d="M979.51,1813.46l-31,139c-3,12.25,8.2,10.24,20.58,7.91,20.28-3.82,46.41-11.7,55.15-27.47a15,15,0,0,0,1.58-5.24l13.3-96.41a17.32,17.32,0,0,0-10.14-18.2l-25.66-11.38A17.32,17.32,0,0,0,979.51,1813.46Z"/><path class="cls-27" d="M859.83,2048s283.14,345.74,494.68-47.93c0,0,4.06-10.06,1.52-24.59-1.28-7.34,3.57-33.36,6.23-46.65a7.33,7.33,0,0,0-6.52-8.73h0a10,10,0,0,0-8.84,3.79l-38.64,49.2a20.63,20.63,0,0,0,10.94,24.49h0A10.18,10.18,0,0,1,1323,2013c-160.88,210.88-430-20.52-434.88-17.81C870.63,2004.8,850.45,2015.46,859.83,2048Z"/><path class="cls-28" d="M1015.83,1681.08s36.66,15.48,61.59,68.45,6.31,77.43-17.07,80.79S1002,1833.17,965,1799,968.17,1662.73,1015.83,1681.08Z"/><path class="cls-29" d="M989.88,1770.67s-27.66-77.5,41.06-78.42l16.17,11.3s25.21-43-16.17-63.48-89.81-3.57-107.42,52.18-20.62,93.07,8.68,119.74,41.37-3.57,41.37-3.57-16-24.95-9.46-38.3,21.48,2.76,21.48,2.76Z"/><path class="cls-30" d="M982.17,1779.3s-14-39.92-32.64-24,15.16,36.88,28.4,43.67Z"/><path class="cls-31" d="M2380.57,3255a14.9,14.9,0,0,0,14.78-12.17l233.47-1345.11a14.64,14.64,0,0,0-12.3-16.82,15,15,0,0,0-17.3,12L2365.75,3238a14.64,14.64,0,0,0,12.3,16.82A15.64,15.64,0,0,0,2380.57,3255Z"/><path class="cls-32" d="M3168.2,3255a15.22,15.22,0,0,0,3-.29,14.61,14.61,0,0,0,11.75-17.19L2907.71,1909.91a15,15,0,0,0-17.68-11.42,14.61,14.61,0,0,0-11.75,17.19L3153.5,3243.29A14.92,14.92,0,0,0,3168.2,3255Z"/><path class="cls-33" d="M2558.71,2230.13h399a14.6,14.6,0,1,0,0-29.19h-399A14.6,14.6,0,1,0,2558.71,2230.13Z"/><path class="cls-34" d="M2565.95,2230.13h384.49a14.59,14.59,0,0,0,0-29.19H2565.95A14.59,14.59,0,0,0,2565.95,2230.13Z"/><path class="cls-35" d="M2558.71,2473.35h399a14.6,14.6,0,1,0,0-29.19h-399A14.6,14.6,0,1,0,2558.71,2473.35Z"/><path class="cls-36" d="M2522.49,2473.35h483.69a14.6,14.6,0,1,0,0-29.19H2522.49A14.6,14.6,0,1,0,2522.49,2473.35Z"/><path class="cls-37" d="M2558.71,2716.56h399a14.6,14.6,0,1,0,0-29.19h-399A14.6,14.6,0,1,0,2558.71,2716.56Z"/><path class="cls-38" d="M2476.29,2716.56h579a14.6,14.6,0,1,0,0-29.19h-579A14.6,14.6,0,1,0,2476.29,2716.56Z"/><path class="cls-39" d="M2558.71,2959.78h543.1a14.6,14.6,0,1,0,0-29.19h-543.1A14.6,14.6,0,1,0,2558.71,2959.78Z"/><path class="cls-40" d="M2438.91,2959.78h662.89a14.6,14.6,0,1,0,0-29.19H2438.91A14.6,14.6,0,1,0,2438.91,2959.78Z"/><path class="cls-41" d="M2272.7,875.3a5.21,5.21,0,0,1,9.92-2l21.68,46.25a48.19,48.19,0,0,1,3.85,28.67l-7.6,26.92a46.46,46.46,0,0,0,9.48,37c19.92,24.9,62.33,70.37,122.72,95.47-10,20.74-25.52,47.38-47.9,71.49-43.88-33.82-81.41-79.6-102-141.59a22.73,22.73,0,0,1-16-22.6Z"/><path class="cls-42" d="M1977.9,1307.71c18.57-32.74,46.54-99.72,8.09-158.53-50.18-76.75-250.45,38.27-150.71,156.66,7.34,8.71,1,22.05-10.36,22.05H1618.24V1105.28a25.56,25.56,0,0,0-36.61-23.07c-23.9,11.44-56.91,24.48-91,29.35-65.84,9.41-104.94-65.84-96.37-128.55S1478.08,882.68,1515.7,889c17.47,2.91,40.69,18.18,60.56,33.71,16.83,13.15,41.39,1.27,41.39-20.1V685.16h199.68A19.78,19.78,0,0,0,1833,653.38c-41.76-54.85-23.35-123,33.81-143.79,69-25.08,131.68-6.27,141.09,65.84s-43,109.73-43,109.73h219l-7.89,218.37c-0.75,20.79,22.2,33.65,39.62,22.27,22.25-14.54,51.66-29.33,83.79-33.71,69-9.41,131.68,47,131.68,106.6s-53.3,131.68-138,116c-30.74-5.69-52.79-12.5-68.42-18.87-16.77-6.83-35,5.65-35,23.75v208.32H1989.6A13.48,13.48,0,0,1,1977.9,1307.71Z"/><path class="cls-1" d="M2189.78,1334.52H1989.6a20.11,20.11,0,0,1-17.47-30.08c18.64-32.87,44.5-96.28,8.31-151.63-10.57-16.17-29.95-23.76-54.61-21.4-44,4.23-89.17,36.79-105.07,75.75-12.79,31.36-6,64,19.59,94.4a20.09,20.09,0,0,1-15.43,33H1618.23a6.63,6.63,0,0,1-6.63-6.63V1105.28a18.92,18.92,0,0,0-27.11-17.09c-22.64,10.83-57.14,24.82-92.94,29.93-25.94,3.7-49.8-4.42-69-23.5-26.48-26.32-40.5-71.53-34.9-112.51,3.81-27.88,20.6-54,47.27-73.69,26.26-19.35,59.17-29.77,81.84-26,15.79,2.63,37.18,14.41,63.55,35A18.94,18.94,0,0,0,1611,902.56V685.16a6.63,6.63,0,0,1,6.63-6.63h199.68a13.15,13.15,0,0,0,10.43-21.13c-22-28.89-29.39-63.23-20.29-94.2,8.17-27.81,29-49.62,57.11-59.84,42.45-15.43,81.21-14.6,109.12,2.37,22.62,13.75,36.73,37.56,40.81,68.85,6.8,52.15-16.72,87-32.53,104h202a6.63,6.63,0,0,1,6.63,6.87l-7.89,218.37a18.93,18.93,0,0,0,29.36,16.47c29.42-19.22,58.53-30.91,86.52-34.73,35.06-4.78,71.07,6.37,98.83,30.6,25.66,22.41,40.38,52.5,40.38,82.57,0,36.33-18,73.83-46.87,97.89-19.27,16-52.07,33.31-98.92,24.64-27.33-5.06-50.78-11.54-69.71-19.25a18.45,18.45,0,0,0-17.5,1.81,18.76,18.76,0,0,0-8.41,15.79v208.32A6.63,6.63,0,0,1,2189.78,1334.52Zm-255.2-216.81c25.1,0,45.1,9.69,57,27.84,17.19,26.29,39,82.73-7.87,165.43h0a6.79,6.79,0,0,0,0,6.89,6.71,6.71,0,0,0,5.91,3.38h193.54V1119.57a32.15,32.15,0,0,1,44.18-29.9c18.1,7.38,40.68,13.6,67.12,18.49,41.78,7.73,70.93-7.58,88-21.79,25.57-21.27,42.09-55.69,42.09-87.69,0-26.24-13.06-52.69-35.84-72.57-24.87-21.71-57.06-31.71-88.31-27.45-26,3.55-53.3,14.55-81.06,32.69a32.19,32.19,0,0,1-49.88-28.06l7.65-211.49H1965a6.63,6.63,0,0,1-3.87-12c2-1.45,49-36.38,40.26-103.49-3.59-27.55-15.21-47.48-34.54-59.23-24.4-14.83-59.1-15.28-97.7-1.24-24.12,8.77-42,27.4-48.92,51.11-7.89,26.88-1.29,56.92,18.12,82.43a26.41,26.41,0,0,1-21,42.43h-193V902.56a32.21,32.21,0,0,1-52.11,25.32c-24.26-19-44.17-30.16-57.56-32.39-19.08-3.16-48.6,6.53-71.79,23.61-23.76,17.5-38.67,40.51-42,64.8-5.07,37.06,7.43,77.77,31.1,101.3,16.13,16,36.12,22.85,57.75,19.78,34.14-4.88,67.29-18.34,89.09-28.77a32.19,32.19,0,0,1,46.1,29.06v216h200a6.78,6.78,0,0,0,6.22-4,6.64,6.64,0,0,0-.93-7.17c-36.63-43.48-32-82.71-21.73-108,17.62-43.19,67.52-79.27,116.08-83.94Q1929.69,1117.71,1934.57,1117.71Z"/><path class="cls-43" d="M2538.71,1124.65c169.87-14.1,214.27,21.05,214.27,21.05l-81.63,128.88s-166.91-3.3-286.52-95.48c22.38-24.11,37.93-50.75,47.9-71.49C2463.57,1120.42,2499.09,1127.93,2538.71,1124.65Z"/><path class="cls-44" d="M2954.06,2364.32s12.3,19.39,15.39,73.67a8.84,8.84,0,0,1-8.78,9.37h-96.2a5.67,5.67,0,0,1-5.39-7.46c5.64-16.68,22.68-57.36,60.71-80.61Z"/><path class="cls-45" d="M2958.24,2327.54l-5.44,45.62a8.58,8.58,0,0,1-7.49,7.54,76,76,0,0,1-20.34-.19,14.09,14.09,0,0,1-11.62-14v-44Z"/><path class="cls-46" d="M2716,2359.29s18.41,28.62,18,67.9a17,17,0,0,1-17.09,16.62H2567.57a7.15,7.15,0,0,1-4.11-13c28.27-19.85,83.84-56.94,124-71.52H2716Z"/><path class="cls-47" d="M2731.44,2310l-11.61,56.35a11.62,11.62,0,0,1-13.74,9.14A42,42,0,0,1,2693,2370a13.34,13.34,0,0,1-6-13.61l12-68.26Z"/><path class="cls-48" d="M2936.92,1526.62s40.35,35.58,47.95,78.38-21.52,738.48-21.52,738.48-40.35,6.71-61.15-5.89c0,0-24.67-451.49-43.42-555.82,0,0-98.34,467.68-125.59,552.19,0,0-38.87,4.73-51.41-2.67,0,0,25.76-606.25,58.13-714Z"/><path class="cls-49" d="M2860,1767a4.28,4.28,0,0,0,4.14-3.2l16.72-64.14,35.62-22.85a4.28,4.28,0,1,0-4.62-7.21l-37,23.76a4.26,4.26,0,0,0-1.83,2.52l-17.14,65.76A4.29,4.29,0,0,0,2860,1767Z"/><path class="cls-50" d="M2482.8,1199.36c59.8-64.44,173.71-93.55,239.66-105.51a60.49,60.49,0,0,1,67.61,38.36c29.68,79.78,110.39,287.34,126,323,12.84,29.27,26.24,57.85,34.75,75.72a21.45,21.45,0,0,1-10,28.58c-55.49,26.75-155.33,57-195.8,68.81a13.89,13.89,0,0,1-17.77-13.36,43.39,43.39,0,0,0-6.18-22.33L2567.8,1337.19c-95.55,105.94-179.22,115.63-243.5,92.44a483.49,483.49,0,0,0,21.27-100.39C2440.53,1313,2482.8,1199.36,2482.8,1199.36Z"/><path class="cls-51" d="M2188.61,1311.46l17.14-22.85c55.48,38.1,101.85,47.13,139.82,40.63a483.49,483.49,0,0,1-21.27,100.39C2239.62,1399.08,2188.61,1311.46,2188.61,1311.46Z"/><path class="cls-52" d="M2200.7,1311.87l-96.55,3.76L2015.26,1266c12.76-8,84.92,8.35,84.92,8.35s75.43-11.41,95.84-11.43c17,0,14.53,24.36,13.23,32.62-0.27,1.69-.49,2.7-0.49,2.7Z"/><path class="cls-53" d="M2631.74,975.51l50.94,124.3s-58.53,40.51-105.62,36.66l-25.42-111.77Z"/><path class="cls-54" d="M2545.69,890.77c-1.17,1.65-36.85,130.57-36.85,130.57l74,18.81,52-117.16S2565.23,863.1,2545.69,890.77Z"/><path class="cls-55" d="M2607,940.79l-22.53,63.82a9.34,9.34,0,0,1-1.18,2.29c-3.06,4.34-14.67,18.52-28.45,5.75-12.5-11.59-24.08-22-34.78-23.86a9.44,9.44,0,0,0-10.75,6.78c-3.24,11.71-10.05,38.24-12.45,62.2a9.43,9.43,0,0,0,7.67,10.17c14.46,2.75,45.12,7.69,70.72,5.88a9.45,9.45,0,0,0,8-5.49c7.05-15.41,28.67-62.18,36.71-74.29,7.55-11.36,26-11,33.8-10.35a9.29,9.29,0,0,0,7-2.28c6.79-5.95,19.7-21.14,1.53-39.32a9.47,9.47,0,0,1,.22-13.63c7.8-7.34,16.15-20.35,3.15-36.48-13.21-16.4-30.65-13.79-41.34-9.89a9.46,9.46,0,0,1-11.38-4.2c-1.34-2.25-3.67-4-7.71-3.61a9.31,9.31,0,0,1-9.93-9.55c0.19-10.51-3.57-23.78-21.8-29.46-32.34-10.07-52.51,21.18-54.51,44.5s33.69,32.24,54.68,30.67c16-1.2,27.8,14.62,32.56,22.27A9.38,9.38,0,0,1,2607,940.79Z"/><path class="cls-56" d="M2611.47,1017.19s5.22-40.48,22.06-42.46,33.23,11.86,16.49,34.58C2629.19,1037.57,2611.47,1017.19,2611.47,1017.19Z"/></svg>