<svg id="_лой_1" data-name="‘лой_1" xmlns="http://www.w3.org/2000/svg" viewBox="0 0 2556.33 1458.73"><defs><style>.cls-1{fill:#ebf3fa;}.cls-2,.cls-3{fill:#cddff9;}.cls-2{opacity:0.4;}.cls-4{fill:#dfebfd;}.cls-27,.cls-5{opacity:0.5;}.cls-6{fill:#aac9f5;}.cls-7{fill:#cde0fb;}.cls-8{fill:#2b478b;}.cls-9{fill:#dde7fe;}.cls-10{fill:#aec3ff;}.cls-11{fill:#233862;}.cls-12{fill:#ffb27d;}.cls-13{fill:#ed985f;}.cls-14{fill:#2c3a64;}.cls-15{fill:#f99746;}.cls-16{fill:#fff;}.cls-17{fill:#cfdeff;}.cls-18{fill:#1f1f89;}.cls-19{fill:#f78248;}.cls-20{fill:#f77d48;}.cls-21{fill:#ffb93e;}.cls-22{fill:#ffa412;}.cls-23{fill:#ffeddc;}.cls-24{fill:#db6a1d;}.cls-25{fill:#e5c1a1;}.cls-26{fill:#f9ddbf;}.cls-27,.cls-28{fill:#e2810e;}.cls-29{fill:#ed7d2b;}.cls-30{fill:#ed975d;}.cls-31{fill:#8ea3ed;}.cls-32{fill:#2a539b;}.cls-33{fill:#4075c1;}.cls-34{fill:#163560;}.cls-35{fill:#d35b31;}.cls-36{fill:#e8945b;}.cls-37{fill:#2e3552;}</style></defs><title>payroll</title><path class="cls-1" d="M356.49,1724.17S71,1450.93,360.56,1055.35C619.28,701.9,426.1,533,691.64,360.79c268.41-174.09,496.79-68.06,753.71,66.52s611.72-187.6,995.07-16.31,328.23,433.1,233.4,702.28c-80,227.24,163.37,391.43,30.59,611.27C2704.42,1724.56,348.33,1716,356.49,1724.17Z" transform="translate(-224.64 -269.85)"/><path class="cls-2" d="M1828.14,732.38s40.42-169.47,175.43-187.78c0,0,26.27-3.16,34.94,25.77s-43.54,29-75.84,40.57S1855,671.62,1828.14,732.38Z" transform="translate(-224.64 -269.85)"/><path class="cls-2" d="M1830.62,764.5S1908,608.42,2043.7,620.86c0,0,26.31,2.81,28.27,33s-48.94,18.51-83,22.52S1870.43,711.31,1830.62,764.5Z" transform="translate(-224.64 -269.85)"/><path class="cls-3" d="M2238,1414.52s40.42-169.47,175.43-187.78c0,0,26.27-3.16,34.94,25.78s-43.54,29-75.84,40.57S2264.91,1353.76,2238,1414.52Z" transform="translate(-224.64 -269.85)"/><path class="cls-4" d="M2242.4,1358.93s-22.15-172.81,97.64-237.7c0,0,23.45-12.25,41.8,11.75s-30.45,42.54-56.58,64.78S2246,1292.59,2242.4,1358.93Z" transform="translate(-224.64 -269.85)"/><path class="cls-4" d="M2647.62,1394.65c-15.22-64.66-124.16-48.29-124.16-48.29S2446.16,1456,2424.69,1458s47.75-106.65,47.75-106.65c-41.3-5.4-148.6,41.77-148.6,41.77s2.27,131.05-19,127.66,3.91-116.14,3.91-116.14c-40.5,10.66-79.5,56.13-79.5,56.13-49.35,74.52,49,134,49,134s-0.19,45.43-30,96.55h0s-6.66,9.4-13.65,25.52l10.93,0.37q1.49-4.35,3.25-8.38a0.06,0.06,0,0,1,0,0l0.05-.12c0.81-1.66,2-4,3.4-6.91h0c3.56-6.42,6-11.16,7.52-14.6v0c10.7-20.16,26-46.38,35.82-51.66a21.18,21.18,0,0,1-2.17-5.09l2.17,5.09c17.36,40.68,110.7,50.51,163.19,41.58s30.26-24.37,3-49.15-86.29-20.48-103.35-30.41,8.65-18.42,43.31-14.58,50.87,39.14,106.83,46.37,102.28-96.79,102.28-96.79c-39.17,10.71-108-13-110.18-26.43s100.65-8.64,116.83-12.1S2662.83,1459.32,2647.62,1394.65Z" transform="translate(-224.64 -269.85)"/><path class="cls-4" d="M644.29,825.69C659.51,761,768.45,777.4,768.45,777.4S845.74,887.07,867.22,889s-47.75-106.65-47.75-106.65c41.3-5.4,148.6,41.77,148.6,41.77s-2.28,131.05,19,127.66-3.91-116.14-3.91-116.14c40.5,10.66,79.5,56.13,79.5,56.13,49.35,74.52-49,134-49,134s0.19,45.43,30,96.55h0s6.66,9.4,13.65,25.52l-10.93.37q-1.49-4.35-3.25-8.38a0.07,0.07,0,0,0,0,0l-0.05-.12c-0.81-1.66-2-4-3.4-6.91h0c-3.56-6.42-6-11.16-7.52-14.6v0c-10.7-20.16-26-46.38-35.82-51.66a21.18,21.18,0,0,0,2.17-5.09l-2.17,5.09c-17.36,40.68-110.7,50.51-163.19,41.58s-30.26-24.37-3-49.15,86.29-20.48,103.35-30.41-8.65-18.42-43.31-14.58-50.87,39.14-106.83,46.37S681,963.45,681,963.45c39.17,10.71,108-13,110.18-26.43s-100.65-8.64-116.83-12.1S629.07,890.36,644.29,825.69Z" transform="translate(-224.64 -269.85)"/><path class="cls-4" d="M1306.83,509.64c32-61.27,137.59-16.72,137.59-16.72s49.69,130.44,70.84,137.93S1494.57,511,1494.57,511c43,5.19,139.05,80.35,139.05,80.35s-36,131.53-13.68,133.59,25.95-118.09,25.95-118.09c38.09,21.17,65.7,77,65.7,77,30.57,87.82-83.89,122.43-83.89,122.43s-11.5,45.85,5.41,105.06h0s4.29,11.19,7.19,29.24l-11.12-2.44c-0.25-3.18-.62-6.27-1.12-9.28a0.06,0.06,0,0,0,0-.05l0-.13c-0.38-1.88-.94-4.56-1.65-7.84h0s0,0,0,0c-1.94-7.39-3.15-12.79-3.83-16.65a0.15,0.15,0,0,1,0,0c-5.6-23.08-14.29-53.45-22.81-61.3a22,22,0,0,0,3.5-4.57l-3.5,4.57c-28,36.54-124.6,22.42-175.21-.08s-24.23-32.36,9.63-50.32,92.26,1.57,112-4.05-4-20.79-39.91-25.84S1444.9,789,1386.62,781.87s-78.2-123.9-78.2-123.9c36.73,20.88,112.17,14.69,117.87,1.71s-99.24-34.61-114.66-42.27S1274.84,570.91,1306.83,509.64Z" transform="translate(-224.64 -269.85)"/><g class="cls-5"><path class="cls-6" d="M2575.8,601.15l61.78,236.33a19.66,19.66,0,0,1-14,23.92L2209,969.77a19.66,19.66,0,0,1-23.92-14L2123.3,719.44a19.66,19.66,0,0,1,14-23.92l414.58-108.37A19.66,19.66,0,0,1,2575.8,601.15Z" transform="translate(-224.64 -269.85)"/><path class="cls-7" d="M2403.9,868.33l-110.49,28.88a8.81,8.81,0,0,1-10.72-6.28l-0.28-1.06a8.81,8.81,0,0,1,6.28-10.72l110.49-28.88a8.81,8.81,0,0,1,10.72,6.28l0.28,1.06A8.81,8.81,0,0,1,2403.9,868.33Z" transform="translate(-224.64 -269.85)"/><path class="cls-7" d="M2346.09,760.48a21.25,21.25,0,0,1,.48,10.45,9.63,9.63,0,0,1-16.37,4.28,25.28,25.28,0,0,1-5.21-19.75,9.69,9.69,0,0,1,16.45-4.3A21.34,21.34,0,0,1,2346.09,760.48Zm-5.07,1.31a21.08,21.08,0,0,0-2.52-6.14q-2.34-3.52-5.34-2.74t-3.37,5a20.36,20.36,0,0,0,.78,6.64q2.7,10.31,8,8.93,3-.79,3.31-5A21,21,0,0,0,2341,761.79Z" transform="translate(-224.64 -269.85)"/><path class="cls-7" d="M2368.77,754.55a21.25,21.25,0,0,1,.48,10.45,9.63,9.63,0,0,1-16.37,4.28,25.28,25.28,0,0,1-5.21-19.75,9.69,9.69,0,0,1,16.45-4.3A21.35,21.35,0,0,1,2368.77,754.55Zm-5.07,1.31a21.08,21.08,0,0,0-2.52-6.14q-2.34-3.52-5.34-2.74t-3.37,5a20.36,20.36,0,0,0,.78,6.64q2.7,10.31,8,8.94,3-.79,3.31-5A21,21,0,0,0,2363.7,755.86Z" transform="translate(-224.64 -269.85)"/><path class="cls-7" d="M2403.16,745.56a21.26,21.26,0,0,1,.48,10.45,9.63,9.63,0,0,1-16.37,4.28,25.28,25.28,0,0,1-5.21-19.75,9.69,9.69,0,0,1,16.45-4.3A21.35,21.35,0,0,1,2403.16,745.56Zm-5.07,1.31a21.07,21.07,0,0,0-2.52-6.14q-2.34-3.52-5.34-2.74t-3.37,5a20.34,20.34,0,0,0,.78,6.64q2.7,10.31,8,8.94,3-.8,3.31-5A21,21,0,0,0,2398.08,746.87Z" transform="translate(-224.64 -269.85)"/><path class="cls-7" d="M2425.84,739.63a21.25,21.25,0,0,1,.48,10.45,9.63,9.63,0,0,1-16.37,4.28,25.27,25.27,0,0,1-5.21-19.75,9.69,9.69,0,0,1,16.45-4.3A21.35,21.35,0,0,1,2425.84,739.63Zm-5.07,1.31a21.07,21.07,0,0,0-2.52-6.14q-2.34-3.52-5.34-2.74t-3.37,5a20.34,20.34,0,0,0,.78,6.64q2.7,10.31,8,8.94,3-.79,3.31-5A21,21,0,0,0,2420.77,740.94Z" transform="translate(-224.64 -269.85)"/><path class="cls-7" d="M2448.53,733.7a21.25,21.25,0,0,1,.48,10.45,9.63,9.63,0,0,1-16.37,4.28,25.28,25.28,0,0,1-5.21-19.75,9.69,9.69,0,0,1,16.45-4.3A21.35,21.35,0,0,1,2448.53,733.7Zm-5.07,1.31a21,21,0,0,0-2.52-6.14q-2.33-3.52-5.34-2.74t-3.37,5a20.37,20.37,0,0,0,.78,6.64q2.7,10.31,8,8.94,3-.79,3.31-5A21,21,0,0,0,2443.46,735Z" transform="translate(-224.64 -269.85)"/><path class="cls-7" d="M2471.22,727.77a21.25,21.25,0,0,1,.48,10.45,9.63,9.63,0,0,1-16.37,4.28,25.27,25.27,0,0,1-5.21-19.75,9.69,9.69,0,0,1,16.45-4.3A21.35,21.35,0,0,1,2471.22,727.77Zm-5.07,1.31a21,21,0,0,0-2.52-6.14q-2.33-3.52-5.34-2.74t-3.37,5a20.37,20.37,0,0,0,.78,6.64q2.7,10.31,8,8.94,3-.8,3.31-5A21,21,0,0,0,2466.15,729.08Z" transform="translate(-224.64 -269.85)"/><path class="cls-7" d="M2505.6,718.78a21.24,21.24,0,0,1,.48,10.45,9.63,9.63,0,0,1-16.37,4.28,25.28,25.28,0,0,1-5.21-19.75,9.69,9.69,0,0,1,16.45-4.3A21.35,21.35,0,0,1,2505.6,718.78Zm-5.07,1.31a21.06,21.06,0,0,0-2.52-6.14q-2.34-3.52-5.34-2.74t-3.37,5a20.36,20.36,0,0,0,.78,6.64q2.7,10.31,8,8.94,3-.79,3.31-5A21,21,0,0,0,2500.53,720.09Z" transform="translate(-224.64 -269.85)"/><path class="cls-7" d="M2528.29,712.85a21.24,21.24,0,0,1,.48,10.45,9.63,9.63,0,0,1-16.37,4.28,25.27,25.27,0,0,1-5.21-19.75,9.69,9.69,0,0,1,16.45-4.3A21.34,21.34,0,0,1,2528.29,712.85Zm-5.07,1.31a21.07,21.07,0,0,0-2.52-6.14q-2.34-3.52-5.34-2.74t-3.37,5a20.36,20.36,0,0,0,.78,6.64q2.7,10.31,8,8.94,3-.79,3.31-5A21,21,0,0,0,2523.21,714.16Z" transform="translate(-224.64 -269.85)"/><path class="cls-7" d="M2551,706.92a21.25,21.25,0,0,1,.48,10.45,9.63,9.63,0,0,1-16.37,4.28,25.27,25.27,0,0,1-5.21-19.75,9.69,9.69,0,0,1,16.45-4.3A21.34,21.34,0,0,1,2551,706.92Zm-5.07,1.31a21.1,21.1,0,0,0-2.52-6.14q-2.34-3.52-5.34-2.74t-3.37,5a20.31,20.31,0,0,0,.78,6.64q2.7,10.31,8,8.94,3-.79,3.31-5A21,21,0,0,0,2545.9,708.23Z" transform="translate(-224.64 -269.85)"/><path class="cls-7" d="M2573.66,701a21.25,21.25,0,0,1,.48,10.45,9.63,9.63,0,0,1-16.37,4.28,25.28,25.28,0,0,1-5.21-19.75,9.69,9.69,0,0,1,16.45-4.3A21.36,21.36,0,0,1,2573.66,701Zm-5.07,1.31a21.07,21.07,0,0,0-2.52-6.14q-2.34-3.52-5.34-2.74t-3.37,5a20.36,20.36,0,0,0,.78,6.64q2.7,10.31,8,8.94,3-.8,3.31-5A21,21,0,0,0,2568.59,702.3Z" transform="translate(-224.64 -269.85)"/><path class="cls-7" d="M2274.51,698.24l-108.13,28.27a8.81,8.81,0,0,1-10.72-6.28h0a8.81,8.81,0,0,1,6.28-10.72l108.13-28.27a8.81,8.81,0,0,1,10.72,6.28h0A8.81,8.81,0,0,1,2274.51,698.24Z" transform="translate(-224.64 -269.85)"/><path class="cls-7" d="M2536.1,649.19a13.45,13.45,0,0,0-5-7.42,1.44,1.44,0,0,0-2.11.44l-0.37.65a1.43,1.43,0,0,0,.37,1.85,9.87,9.87,0,0,1,3.1,11.87,1.43,1.43,0,0,0,.58,1.79l0.64,0.38a1.44,1.44,0,0,0,2.05-.65A13.46,13.46,0,0,0,2536.1,649.19Z" transform="translate(-224.64 -269.85)"/><path class="cls-7" d="M2543.11,647.36a20.62,20.62,0,0,0-8.47-11.94,1.43,1.43,0,0,0-2,.49l-0.21.37a1.44,1.44,0,0,0,.46,1.91,17.41,17.41,0,0,1,5.8,22.19,1.44,1.44,0,0,0,.54,1.89l0.36,0.22a1.43,1.43,0,0,0,2-.57A20.62,20.62,0,0,0,2543.11,647.36Z" transform="translate(-224.64 -269.85)"/><path class="cls-7" d="M2549.24,645.76a27,27,0,0,0-11.46-15.86,1.44,1.44,0,0,0-2,.5h0a1.43,1.43,0,0,0,.46,1.91,24.16,24.16,0,0,1,8.24,31.54,1.43,1.43,0,0,0,.53,1.9h0a1.44,1.44,0,0,0,2-.55A27,27,0,0,0,2549.24,645.76Z" transform="translate(-224.64 -269.85)"/><path class="cls-7" d="M2555.9,644a33.82,33.82,0,0,0-14.69-20.08,1.44,1.44,0,0,0-2,.5l-0.36.63a1.43,1.43,0,0,0,.47,1.92,30.31,30.31,0,0,1,10.46,40,1.43,1.43,0,0,0,.53,1.91l0.63,0.38a1.44,1.44,0,0,0,2-.55A33.83,33.83,0,0,0,2555.9,644Z" transform="translate(-224.64 -269.85)"/></g><rect class="cls-8" x="674.12" y="500.4" width="1367.28" height="928.25" rx="33.78" ry="33.78"/><rect class="cls-9" x="704.95" y="532.83" width="1305.6" height="886.38"/><rect class="cls-8" x="511.54" y="1392.58" width="1692.42" height="59.42" rx="24.29" ry="24.29"/><rect class="cls-10" x="704.95" y="532.83" width="1305.6" height="862.83"/><path class="cls-11" d="M494.16,1726.19s0-12.77,1.93-17,9-21.54,9-21.54H532.7s5.14,15.78,5.46,20.94,0,17.63,0,17.63h-44Z" transform="translate(-224.64 -269.85)"/><path class="cls-11" d="M669.52,1726.19s0-12.77-1.93-17-9-21.54-9-21.54H631s-5.14,15.78-5.46,20.94,0,17.63,0,17.63h44Z" transform="translate(-224.64 -269.85)"/><path class="cls-12" d="M558.87,1009.17s-1,28.45-4.83,41.19l-30.5,20.1,114.82,16.23L611,1051s-8.27-38.14-3.93-52.25S558.87,1009.17,558.87,1009.17Z" transform="translate(-224.64 -269.85)"/><path class="cls-13" d="M558.7,1013.1s9.08,20.65,26.18,20.19,21-18.73,21-18.73Z" transform="translate(-224.64 -269.85)"/><path class="cls-14" d="M548.5,996.38s-5.52-26-9.38-33.94-7.07-43.09,35.65-44.91c0,0,16.38,1.82,25.37-3.34,0,0,0,5.16-2.25,7a29.51,29.51,0,0,1,26.34,8.8c11.56,12.14-7.71,54.62-6.74,64.63Z" transform="translate(-224.64 -269.85)"/><path class="cls-12" d="M582.93,1025.31c-12.39-.21-35.2-15.79-35.2-35.1V960.09c0-7,5.2-12.82,11.56-12.82h47.28c6.36,0,11.56,5.77,11.56,12.82v28.42C618.13,1008.75,597.14,1025.55,582.93,1025.31Z" transform="translate(-224.64 -269.85)"/><path class="cls-14" d="M547.73,976.17s0.06-18.1,15.24-20.88,49.14,8.82,54-4.38-65.65-13-69.2-4.55S547.73,976.17,547.73,976.17Z" transform="translate(-224.64 -269.85)"/><path class="cls-8" d="M497.62,1283.78s4.83,139.41-2.39,219,0.05,190.25.05,190.25,23.11,12,48.16,0c0,0,27.47-153.68,27.3-190.25-0.18-38.95,29.9-212.88,29.9-212.88Z" transform="translate(-224.64 -269.85)"/><path class="cls-8" d="M668.53,1693s-23.1,12-48.15,0c0,0-27.47-153.67-27.3-190.25,0.08-16.45-5.24-57-11.42-98.31-8.45-56.54-18.49-114.57-18.49-114.57l107-6.32s-8.83,139.65-1.6,219.19S668.53,1693,668.53,1693Z" transform="translate(-224.64 -269.85)"/><path class="cls-15" d="M668.9,1307s-45.62,8.35-87.24,8.35c-18.15,0-37.87-1.88-53.58-3.87-17.36-2.18-29.81-4.48-29.81-4.48s-9.25.76-3.79-42.32c4.15-32.79,2.85-62.39,1.93-92.85-0.11-3.39,0-7.39.19-11.85,1.77-35.51,13.14-99.44,21.8-102.87,0,0,12.88-4.52,35.64-6.73,0,0.42,13.21,18.66,28.89,20.71,9.74-3.64,17.39-6.75,28-20.12a321.38,321.38,0,0,1,44,8s1.64,6.77,7.82,124.27C665.22,1229.77,682,1307.13,668.9,1307Z" transform="translate(-224.64 -269.85)"/><path class="cls-11" d="M593.07,1502.74c0.08-16.45-5.24-57-11.42-98.31,6.41-24.69,22-48.45,22-48.45C623.42,1408.32,593.07,1502.74,593.07,1502.74Z" transform="translate(-224.64 -269.85)"/><path class="cls-15" d="M454.25,1196.95c-1.09.86,2.71,9.74,8.3,21.32,11.5,23.79,30.61,58.91,30.61,58.91a100.38,100.38,0,0,1-5.8,16c-32.14-23.86-52.87-44.16-66.1-59.72-18.6-21.89-22.41-34.44-22.41-34.44,71.57-137.63,121.93-142.71,121.93-142.71l-6,91S457.56,1194.35,454.25,1196.95Z" transform="translate(-224.64 -269.85)"/><path class="cls-12" d="M489.34,1278.91s17.34-15.17,24.41-6.68,8.35,21.85,2.89,20.94-16.7-5.76-18.31-3.34-8.8,7.07-11,3.38S489.34,1278.91,489.34,1278.91Z" transform="translate(-224.64 -269.85)"/><path class="cls-12" d="M493.15,1277.18a100.38,100.38,0,0,1-5.8,16c-32.14-23.86-52.87-44.16-66.1-59.72,10-.7,24.53-4.07,41.29-15.23C474,1242.05,493.15,1277.18,493.15,1277.18Z" transform="translate(-224.64 -269.85)"/><path class="cls-15" d="M769.57,1199.05s-3.81,12.55-22.41,34.44c-13.23,15.57-34,35.87-66.09,59.72a100.38,100.38,0,0,1-5.8-16s19.11-35.13,30.61-58.91c5.59-11.58,9.38-20.46,8.3-21.32-2.57-2-37.56-30.74-53.16-43.55l-7.42-6.1L650,1057.7S698,1061.42,769.57,1199.05Z" transform="translate(-224.64 -269.85)"/><path class="cls-12" d="M679.07,1278.91s-17.34-15.17-24.41-6.68-8.35,21.85-2.89,20.94,16.7-5.76,18.31-3.34,8.8,7.07,11,3.38S679.07,1278.91,679.07,1278.91Z" transform="translate(-224.64 -269.85)"/><path class="cls-12" d="M675.26,1277.18a100.39,100.39,0,0,0,5.8,16c32.14-23.86,52.87-44.16,66.1-59.72-10-.7-24.53-4.07-41.29-15.23C694.36,1242.05,675.26,1277.18,675.26,1277.18Z" transform="translate(-224.64 -269.85)"/><path class="cls-8" d="M555.64,1043.42a11.8,11.8,0,0,0-6.54,7.47s20.45,19.87,33.83,20.18Z" transform="translate(-224.64 -269.85)"/><path class="cls-8" d="M582.93,1071.07l26.39-28.65s5.45,3.39,5.37,9C614.69,1051.38,594.28,1071.83,582.93,1071.07Z" transform="translate(-224.64 -269.85)"/><path class="cls-8" d="M578.17,1069S558,1233.26,565,1253.29a133.58,133.58,0,0,0,12.29,25.45,7.36,7.36,0,0,0,12.36,0c5.35-8.77,12.34-21.47,12.34-27.92,0-10.44-15.29-182-15.29-182Z" transform="translate(-224.64 -269.85)"/><path class="cls-8" d="M572.9,1060.9s12.18-1.15,19.59-.44a1.93,1.93,0,0,1,1.57,2.88c-2.08,3.53-6.32,9.66-10.75,9.66C577.08,1073,567.38,1061.31,572.9,1060.9Z" transform="translate(-224.64 -269.85)"/><path class="cls-16" d="M573.05,1005.91a13.78,13.78,0,0,0,10.6,4.76,12.76,12.76,0,0,0,9.91-4.76S582.19,1004.15,573.05,1005.91Z" transform="translate(-224.64 -269.85)"/><rect class="cls-17" x="1012.54" y="432.27" width="844.37" height="899.18"/><rect class="cls-8" x="1456.52" y="1169.61" width="161.38" height="10.44" rx="0.25" ry="0.25"/><rect class="cls-8" x="1456.52" y="1145.88" width="201.36" height="10.44" rx="0.24" ry="0.24"/><rect class="cls-10" x="1085.78" y="584.11" width="697.88" height="491.01"/><rect class="cls-18" x="1249.43" y="556.4" width="1.12" height="518.72"/><rect class="cls-18" x="1686.44" y="556.4" width="1.12" height="518.72"/><rect class="cls-18" x="1323.64" y="556.4" width="1.12" height="518.72"/><rect class="cls-18" x="1085.78" y="983.25" width="697.88" height="1.12"/><rect class="cls-18" x="1085.78" y="880.49" width="697.88" height="1.12"/><rect class="cls-18" x="1085.78" y="777.73" width="697.88" height="1.12"/><rect class="cls-18" x="1085.78" y="674.97" width="697.88" height="1.12"/><rect class="cls-19" x="1085.78" y="495.32" width="697.88" height="99.64"/><path class="cls-20" d="M1942.43,1516.89c-15.73,4.81-31.08,7.33-43.15,6.38-18.4-1.45-28.75-10.55-29.17-25.64-0.33-12,4.93-22.45,15.24-30.95-0.1-.82-0.18-1.63-0.25-2.45-0.68-8.44,1.23-14,5.67-16.66,7.18-4.23,17.85,1.56,18.3,1.8l-2.39,3.85c-2.39-1.31-9.49-4.21-13.42-1.87-3.39,2-3.79,7.53-3.5,12,8.39-5.73,19.35-10.42,32.71-13.82a184.82,184.82,0,0,1,30.82-5,26.78,26.78,0,0,1,.27-2.76c0.32-2.07,1.09-4.49,3.24-5,0.82-.17,2.4-0.15,3.81,1.88a10.28,10.28,0,0,1,1.45,5.42c3.42-.07,6.61,0,9.43.18l0.08-.17a48.3,48.3,0,0,1,.73-15.54c1.2-5.17,3.16-7.78,5.91-8a3.63,3.63,0,0,1,3.74,2.19c1.54,3.5-1.35,13-5.52,22v0c3.92,0.63,6.58,1.65,7.41,3.08a3.21,3.21,0,0,1-1,4.19c-3.16,2.75-5.69,2.06-6.91,1.4a6.51,6.51,0,0,1-2.53-2.74c-3.16,5.91-6.61,11-9.31,13.1a4.87,4.87,0,0,1-5.5.75,5,5,0,0,1-1.2-.9,59.73,59.73,0,0,1-3.6,7c-4.94,8.19-10.51,12.41-16.1,12.16a9.36,9.36,0,0,1-6-2.52,82,82,0,0,1-10.84,16.83c-3.93,4.57-8.94,6.25-14.12,4.73-9.17-2.7-17.46-15.23-20.56-30.06-7.83,7.23-11.65,15.8-11.38,25.63,0.35,12.87,8.71,20,24.84,21.3,40.7,3.2,112.07-32.54,117.48-58.84h0C2012.76,1481.37,1978.89,1505.73,1942.43,1516.89Zm-52.06-48.42c2.48,15.65,10.78,27.15,17.82,29.23,3.3,1,6.34-.13,9-3.27a76,76,0,0,0,11.38-18.37,26,26,0,0,1-2-5.82c-1.14-5.16-1.33-12.24,0-17.1a124.21,124.21,0,0,0-22.28,7.33A74,74,0,0,0,1890.37,1468.47Zm43.45,7.32a5.44,5.44,0,0,0,4.16,2.67c3.58,0.14,7.88-3.46,11.78-9.91a57.36,57.36,0,0,0,4.88-10.4,41.72,41.72,0,0,1-1.33-9.07c-5.24.4-10.95,1.07-16.83,2.07C1939.54,1456.78,1937.77,1466.3,1933.82,1475.79Zm25.74-17.56c0.74,2.1,1.4,2.5,1.4,2.51,2.64-2.14,5.66-6.78,8.4-12.07-2.24-.08-4.77-0.09-7.53,0A51.92,51.92,0,0,1,1959.56,1458.23Zm-27.73-5.73c-1.2,2.37-2.07,9.95-.6,16.69C1933.59,1461.79,1934.08,1455.39,1931.83,1452.5Zm46.52-2.85h0Zm-0.7-22.9a26.44,26.44,0,0,0-1.12,4.67A32.75,32.75,0,0,0,1977.65,1426.75Z" transform="translate(-224.64 -269.85)"/><path class="cls-20" d="M1183.86,1724l-356.68-2.22a28.79,28.79,0,0,1-28.61-29L800.9,1318a28.79,28.79,0,0,1,29-28.61l356.69,2.22a28.79,28.79,0,0,1,28.61,29l-2.33,374.89A28.79,28.79,0,0,1,1183.86,1724Z" transform="translate(-224.64 -269.85)"/><path class="cls-10" d="M1178.46,1389.73l-341.72-2.12a12.66,12.66,0,0,1-12.58-12.74l0.27-43.39a12.66,12.66,0,0,1,12.74-12.58l341.72,2.13a12.66,12.66,0,0,1,12.58,12.74l-0.27,43.39A12.66,12.66,0,0,1,1178.46,1389.73Z" transform="translate(-224.64 -269.85)"/><path class="cls-8" d="M951.06,1556.81l-29.26-.18a13.24,13.24,0,0,1-13.15-13.32l0.18-29.26a13.24,13.24,0,0,1,13.32-13.15l29.26,0.18a13.24,13.24,0,0,1,13.15,13.32l-0.18,29.26A13.24,13.24,0,0,1,951.06,1556.81Z" transform="translate(-224.64 -269.85)"/><path class="cls-8" d="M950.64,1625.2l-29.26-.18a13.24,13.24,0,0,1-13.15-13.32l0.18-29.26a13.24,13.24,0,0,1,13.32-13.15l29.26,0.18a13.24,13.24,0,0,1,13.15,13.32L964,1612A13.24,13.24,0,0,1,950.64,1625.2Z" transform="translate(-224.64 -269.85)"/><path class="cls-8" d="M950.21,1693.59L921,1693.4a13.24,13.24,0,0,1-13.15-13.32l0.18-29.26a13.24,13.24,0,0,1,13.32-13.15l29.26,0.18a13.24,13.24,0,0,1,13.15,13.32l-0.18,29.26A13.24,13.24,0,0,1,950.21,1693.59Z" transform="translate(-224.64 -269.85)"/><path class="cls-8" d="M1024.71,1557.27l-29.26-.18a13.24,13.24,0,0,1-13.15-13.32l0.18-29.26a13.24,13.24,0,0,1,13.32-13.15l29.26,0.18a13.24,13.24,0,0,1,13.15,13.32l-0.18,29.26A13.24,13.24,0,0,1,1024.71,1557.27Z" transform="translate(-224.64 -269.85)"/><path class="cls-8" d="M1024.29,1625.66l-29.26-.18a13.24,13.24,0,0,1-13.15-13.32l0.18-29.26a13.24,13.24,0,0,1,13.32-13.15l29.26,0.18a13.24,13.24,0,0,1,13.15,13.32l-0.18,29.26A13.24,13.24,0,0,1,1024.29,1625.66Z" transform="translate(-224.64 -269.85)"/><path class="cls-8" d="M1023.86,1694l-29.26-.18a13.24,13.24,0,0,1-13.15-13.32l0.18-29.26A13.24,13.24,0,0,1,995,1638.13l29.26,0.18a13.24,13.24,0,0,1,13.15,13.32l-0.18,29.26A13.24,13.24,0,0,1,1023.86,1694Z" transform="translate(-224.64 -269.85)"/><path class="cls-8" d="M1095.3,1626.1l-29.26-.18a13.24,13.24,0,0,1-13.15-13.32l0.18-29.26a13.24,13.24,0,0,1,13.32-13.15l29.26,0.18a13.24,13.24,0,0,1,13.15,13.32l-0.18,29.26A13.24,13.24,0,0,1,1095.3,1626.1Z" transform="translate(-224.64 -269.85)"/><path class="cls-8" d="M1094.88,1694.49l-29.26-.18a13.24,13.24,0,0,1-13.15-13.32l0.18-29.26a13.24,13.24,0,0,1,13.32-13.15l29.26,0.18a13.24,13.24,0,0,1,13.15,13.32l-0.18,29.26A13.24,13.24,0,0,1,1094.88,1694.49Z" transform="translate(-224.64 -269.85)"/><path class="cls-15" d="M881.2,1476.09l-29.26-.18a13.24,13.24,0,0,1-13.15-13.32l0.11-17.35a13.24,13.24,0,0,1,13.32-13.15l29.26,0.18a13.24,13.24,0,0,1,13.15,13.32l-0.11,17.35A13.24,13.24,0,0,1,881.2,1476.09Z" transform="translate(-224.64 -269.85)"/><path class="cls-15" d="M880.76,1547.79l-29.26-.18a13.24,13.24,0,0,1-13.15-13.32l0.11-17.35a13.24,13.24,0,0,1,13.32-13.15L881,1504a13.24,13.24,0,0,1,13.15,13.32l-0.11,17.35A13.24,13.24,0,0,1,880.76,1547.79Z" transform="translate(-224.64 -269.85)"/><path class="cls-15" d="M880.31,1619.49l-29.26-.18A13.24,13.24,0,0,1,837.9,1606l0.11-17.35a13.24,13.24,0,0,1,13.32-13.15l29.26,0.18A13.24,13.24,0,0,1,893.74,1589l-0.11,17.35A13.24,13.24,0,0,1,880.31,1619.49Z" transform="translate(-224.64 -269.85)"/><path class="cls-15" d="M879.87,1691.2l-29.26-.18a13.24,13.24,0,0,1-13.15-13.32l0.11-17.35a13.24,13.24,0,0,1,13.32-13.15l29.26,0.18a13.24,13.24,0,0,1,13.15,13.32L893.18,1678A13.24,13.24,0,0,1,879.87,1691.2Z" transform="translate(-224.64 -269.85)"/><path class="cls-15" d="M951.49,1488.43l-29.26-.18a13.24,13.24,0,0,1-13.15-13.32l0.18-29.25a13.24,13.24,0,0,1,13.32-13.15l29.26,0.18A13.24,13.24,0,0,1,965,1446l-0.18,29.25A13.24,13.24,0,0,1,951.49,1488.43Z" transform="translate(-224.64 -269.85)"/><path class="cls-15" d="M1025.14,1488.88l-29.26-.18a13.24,13.24,0,0,1-13.15-13.32l0.18-29.25A13.24,13.24,0,0,1,996.23,1433l29.26,0.18a13.24,13.24,0,0,1,13.15,13.32l-0.18,29.26A13.24,13.24,0,0,1,1025.14,1488.88Z" transform="translate(-224.64 -269.85)"/><path class="cls-15" d="M1096.15,1489.33l-29.26-.18a13.24,13.24,0,0,1-13.15-13.32l0.18-29.26a13.24,13.24,0,0,1,13.32-13.15l29.26,0.18a13.24,13.24,0,0,1,13.15,13.32l-0.18,29.25A13.24,13.24,0,0,1,1096.15,1489.33Z" transform="translate(-224.64 -269.85)"/><path class="cls-15" d="M1162.47,1558.46l-29.26-.18a13.24,13.24,0,0,1-13.15-13.32l0.18-29.26a13.24,13.24,0,0,1,13.32-13.15l29.26,0.18A13.24,13.24,0,0,1,1176,1516l-0.18,29.26A13.24,13.24,0,0,1,1162.47,1558.46Z" transform="translate(-224.64 -269.85)"/><path class="cls-15" d="M1162.89,1490.07l-29.26-.18a13.24,13.24,0,0,1-13.15-13.32l0.18-29.26a13.24,13.24,0,0,1,13.32-13.15l29.26,0.18a13.24,13.24,0,0,1,13.15,13.32l-0.18,29.26A13.24,13.24,0,0,1,1162.89,1490.07Z" transform="translate(-224.64 -269.85)"/><path class="cls-15" d="M1161.62,1695.23l-29.26-.18a13.24,13.24,0,0,1-13.15-13.32l0.61-97.64a13.24,13.24,0,0,1,13.32-13.15l29.26,0.18a13.24,13.24,0,0,1,13.15,13.32l-0.61,97.64A13.24,13.24,0,0,1,1161.62,1695.23Z" transform="translate(-224.64 -269.85)"/><path class="cls-8" d="M944,1353.37l0.06-9.37,1.36-3.56a2.87,2.87,0,0,1,2.22,2.25l-0.08,12.5-0.9.89Zm2.66,3.59,0.89,0.9-0.08,12.5a2.87,2.87,0,0,1-2.25,2.22l-1.32-3.58,0.06-9.37Z" transform="translate(-224.64 -269.85)"/><path class="cls-8" d="M959.7,1345l-0.05,8.48-2.7,2.66-0.89-.9,0.07-11.6ZM956,1369.51l0.07-11.6,0.9-.89,2.66,2.69-0.05,8.48Zm15.6,3.22-13.39-.08a2.87,2.87,0,0,1-2.22-2.25l3.58-1.32,10.71,0.07Zm-1.16-28.57-10.67-.07-3.56-1.36a2.87,2.87,0,0,1,2.25-2.22l13.34,0.08Zm0.83,9.38,0.06-9.37,1.36-3.56a2.87,2.87,0,0,1,2.22,2.25l-0.08,12.5-0.9.89Zm2.66,3.59,0.89,0.9-0.08,12.5a2.87,2.87,0,0,1-2.25,2.22l-1.32-3.58,0.06-9.37Z" transform="translate(-224.64 -269.85)"/><path class="cls-8" d="M986.93,1345.15l-0.05,8.48-2.69,2.66-0.89-.9,0.07-11.6Zm-3.72,24.52,0.07-11.6,0.9-.89,2.66,2.69-0.05,8.48Zm15.6,3.22-13.39-.08a2.87,2.87,0,0,1-2.22-2.25l3.58-1.32,10.71,0.07Zm-1.16-28.57-10.67-.07-3.56-1.36a2.87,2.87,0,0,1,2.25-2.22l13.34,0.08Zm0.83,9.38,0.06-9.37,1.36-3.56a2.87,2.87,0,0,1,2.22,2.25l-0.08,12.5-0.9.89Zm2.66,3.59,0.89,0.9-0.08,12.5a2.87,2.87,0,0,1-2.25,2.22l-1.32-3.58,0.06-9.37Z" transform="translate(-224.64 -269.85)"/><path class="cls-8" d="M1014.15,1345.32l-0.05,8.48-2.69,2.66-0.89-.9,0.07-11.6Zm-3.72,24.52,0.07-11.6,0.9-.89,2.66,2.69-0.05,8.48Zm15.6,3.22-13.39-.08a2.86,2.86,0,0,1-2.22-2.25l3.58-1.32,10.71,0.07Zm-1.16-28.57-10.67-.07-3.56-1.36a2.87,2.87,0,0,1,2.25-2.22l13.34,0.08Zm0.83,9.38,0.06-9.37,1.36-3.56a2.87,2.87,0,0,1,2.22,2.25l-0.08,12.5-0.9.89Zm2.66,3.59,0.89,0.9-0.08,12.5a2.87,2.87,0,0,1-2.25,2.22l-1.32-3.58,0.06-9.37Z" transform="translate(-224.64 -269.85)"/><path class="cls-8" d="M1041.37,1345.49l-0.05,8.48-2.69,2.66-0.89-.9,0.07-11.6Zm-3.72,24.52,0.07-11.6,0.9-.89,2.66,2.69-0.05,8.48Zm15.6,3.22-13.39-.08a2.87,2.87,0,0,1-2.22-2.25l3.58-1.32,10.71,0.07Zm-1.16-28.57-10.67-.07-3.56-1.36a2.86,2.86,0,0,1,2.25-2.22l13.34,0.08Zm0.83,9.38,0.06-9.37,1.36-3.56a2.87,2.87,0,0,1,2.22,2.25l-0.08,12.5-0.9.89Zm2.66,3.59,0.89,0.9-0.08,12.5a2.87,2.87,0,0,1-2.25,2.22l-1.32-3.58,0.06-9.37Z" transform="translate(-224.64 -269.85)"/><path class="cls-8" d="M1068.6,1345.66l-0.05,8.48-2.69,2.66-0.89-.9,0.07-11.6Zm-3.72,24.52,0.07-11.6,0.9-.89,2.66,2.69-0.05,8.48Zm15.6,3.22-13.39-.08a2.87,2.87,0,0,1-2.22-2.25l3.58-1.32,10.71,0.07Zm-1.16-28.57-10.67-.07-3.56-1.36a2.87,2.87,0,0,1,2.25-2.22l13.34,0.08Zm0.83,9.38,0.06-9.37,1.36-3.56a2.87,2.87,0,0,1,2.22,2.25l-0.08,12.5-0.9.89Zm2.66,3.59,0.89,0.9-0.08,12.5a2.87,2.87,0,0,1-2.25,2.22l-1.32-3.58,0.06-9.37Z" transform="translate(-224.64 -269.85)"/><path class="cls-8" d="M1095.82,1345.83l-0.05,8.48-2.69,2.66-0.89-.9,0.07-11.6Zm-3.72,24.52,0.07-11.6,0.9-.89,2.66,2.69-0.05,8.48Zm15.6,3.22-13.39-.08a2.86,2.86,0,0,1-2.22-2.25l3.58-1.32,10.71,0.07Zm-1.16-28.57-10.67-.07-3.56-1.36a2.87,2.87,0,0,1,2.25-2.22l13.34,0.08Zm0.83,9.38,0.06-9.37,1.36-3.56a2.87,2.87,0,0,1,2.22,2.25l-0.08,12.5-0.9.89ZM1110,1358l0.89,0.9-0.08,12.5a2.87,2.87,0,0,1-2.25,2.22l-1.32-3.58,0.06-9.37Z" transform="translate(-224.64 -269.85)"/><path class="cls-8" d="M1123,1346l-0.05,8.48-2.7,2.66-0.89-.9,0.07-11.6Zm-3.72,24.52,0.07-11.6,0.9-.89,2.66,2.69-0.05,8.48Zm15.6,3.22-13.39-.08a2.87,2.87,0,0,1-2.22-2.25l3.58-1.32,10.71,0.07Zm-1.16-28.57-10.67-.07-3.56-1.36a2.87,2.87,0,0,1,2.25-2.22l13.34,0.08Zm0.83,9.38,0.06-9.37,1.36-3.56a2.87,2.87,0,0,1,2.22,2.25l-0.08,12.5-0.9.89Zm2.66,3.59,0.89,0.9-0.08,12.5a2.87,2.87,0,0,1-2.25,2.22l-1.32-3.58,0.06-9.37Z" transform="translate(-224.64 -269.85)"/><path class="cls-8" d="M1150.27,1346.17l-0.05,8.48-2.7,2.66-0.89-.9,0.07-11.6Zm-3.72,24.52,0.07-11.6,0.9-.89,2.66,2.69-0.05,8.48Zm15.6,3.22-13.39-.08a2.87,2.87,0,0,1-2.22-2.25l3.58-1.32,10.71,0.07Zm-1.16-28.57-10.67-.07-3.56-1.36a2.87,2.87,0,0,1,2.25-2.22l13.34,0.08Zm0.83,9.38,0.06-9.37,1.36-3.56a2.87,2.87,0,0,1,2.22,2.25l-0.08,12.5-0.9.89Zm2.66,3.59,0.89,0.9-0.08,12.5a2.87,2.87,0,0,1-2.25,2.22l-1.32-3.58,0.06-9.37Z" transform="translate(-224.64 -269.85)"/><path class="cls-21" d="M1537.84,1702.46V1717a5,5,0,0,1-1.14,3.12,6.63,6.63,0,0,1-3.12,2.09,6.42,6.42,0,0,1-1.22.29,7.55,7.55,0,0,1-1.18.09H1255.88c-3.33,0-6.11-2.07-6.6-4.76,0-.18-0.05-0.36-0.06-0.55s0-.19,0-0.28v-14.52c0-.09,0-0.19,0-0.28s0-.37.06-0.55c0.49-2.68,3.27-4.75,6.6-4.75h275.29a7.56,7.56,0,0,1,1.18.09,7.17,7.17,0,0,1,1.22.29,6.63,6.63,0,0,1,3.12,2.09A5,5,0,0,1,1537.84,1702.46Z" transform="translate(-224.64 -269.85)"/><path class="cls-22" d="M1402.65,1722.57H1255.17a5.91,5.91,0,0,1-5.72-4.14,4.85,4.85,0,0,1-.16-0.62c0-.18-0.05-0.36-0.06-0.55s0-.19,0-0.28v-14.52c0-.09,0-0.19,0-0.28s0-.37.06-0.55a4.84,4.84,0,0,1,.16-0.62,5.91,5.91,0,0,1,5.72-4.14h129.38A45,45,0,0,0,1402.65,1722.57Z" transform="translate(-224.64 -269.85)"/><rect class="cls-22" x="1276.57" y="1427.02" width="3.13" height="25.7"/><rect class="cls-22" x="1265.98" y="1427.02" width="3.13" height="25.7"/><rect class="cls-22" x="1253.28" y="1427.02" width="3.13" height="25.7"/><rect class="cls-22" x="1233.81" y="1427.02" width="3.13" height="25.7"/><rect class="cls-22" x="1213.22" y="1427.02" width="3.13" height="25.7"/><rect class="cls-22" x="1181.66" y="1427.02" width="3.13" height="25.7"/><rect class="cls-22" x="1152.11" y="1427.02" width="3.13" height="25.7"/><rect class="cls-22" x="1125.73" y="1427.02" width="3.13" height="25.7"/><rect class="cls-22" x="1286.65" y="1427.02" width="3.13" height="25.7"/><rect class="cls-22" x="1293.31" y="1427.02" width="3.13" height="25.7"/><rect class="cls-22" x="1299.74" y="1427.02" width="3.13" height="25.7"/><path class="cls-22" d="M1532.35,1697v25.52a7.74,7.74,0,0,1-1.17.09h-2v-25.7h2A7.74,7.74,0,0,1,1532.35,1697Z" transform="translate(-224.64 -269.85)"/><path class="cls-22" d="M1536.69,1699.34v20.76a6.64,6.64,0,0,1-3.13,2.09v-24.95A6.64,6.64,0,0,1,1536.69,1699.34Z" transform="translate(-224.64 -269.85)"/><path class="cls-21" d="M1508.4,1676.77v14.51a5,5,0,0,1-1.14,3.13,6.45,6.45,0,0,1-.63.66,6.9,6.9,0,0,1-2.5,1.43,7.06,7.06,0,0,1-1.22.28,7.57,7.57,0,0,1-1.17.09h-275.3c-3.32,0-6.1-2.08-6.59-4.76,0-.18-0.05-0.36-0.06-0.54s0-.19,0-0.29v-14.51c0-.1,0-0.2,0-0.29s0-.36.06-0.54c0.49-2.68,3.27-4.76,6.59-4.76h275.3l0.52,0,0.19,0h0l0.25,0,0.17,0a7.07,7.07,0,0,1,1.22.28q0.35,0.12.67,0.26h0l0.43,0.21,0.24,0.14,0.22,0.14a5,5,0,0,1,.81.59c0.09,0.07.15,0.15,0.23,0.21l0.14,0.13,0.07,0.08,0.06,0.06a2.6,2.6,0,0,1,.25.28A5,5,0,0,1,1508.4,1676.77Z" transform="translate(-224.64 -269.85)"/><path class="cls-22" d="M1373.22,1696.87H1225.73a5.9,5.9,0,0,1-5.71-4.15,4.79,4.79,0,0,1-.16-0.61c0-.18-0.05-0.36-0.06-0.54s0-.19,0-0.29v-14.51c0-.1,0-0.2,0-0.29s0-.36.06-0.54a4.79,4.79,0,0,1,.16-0.61,5.9,5.9,0,0,1,5.71-4.15h129.38c0.05,0.21.11,0.42,0.18,0.64A45,45,0,0,0,1373.22,1696.87Z" transform="translate(-224.64 -269.85)"/><rect class="cls-22" x="1247.14" y="1401.32" width="3.13" height="25.7"/><rect class="cls-22" x="1236.54" y="1401.32" width="3.13" height="25.7"/><rect class="cls-22" x="1223.84" y="1401.32" width="3.13" height="25.7"/><rect class="cls-22" x="1204.38" y="1401.32" width="3.13" height="25.7"/><rect class="cls-22" x="1183.79" y="1401.32" width="3.13" height="25.7"/><rect class="cls-22" x="1152.23" y="1401.32" width="3.13" height="25.7"/><rect class="cls-22" x="1122.68" y="1401.32" width="3.13" height="25.7"/><rect class="cls-22" x="1096.29" y="1401.32" width="3.13" height="25.7"/><rect class="cls-22" x="1257.22" y="1401.32" width="3.13" height="25.7"/><rect class="cls-22" x="1263.88" y="1401.32" width="3.13" height="25.7"/><rect class="cls-22" x="1270.31" y="1401.32" width="3.13" height="25.7"/><path class="cls-22" d="M1502.92,1671.26v25.52a7.61,7.61,0,0,1-1.17.09h-2v-25.7h2A7.61,7.61,0,0,1,1502.92,1671.26Z" transform="translate(-224.64 -269.85)"/><path class="cls-22" d="M1507.26,1673.64v20.76a6.62,6.62,0,0,1-3.13,2.09v-24.95A6.62,6.62,0,0,1,1507.26,1673.64Z" transform="translate(-224.64 -269.85)"/><path class="cls-21" d="M1522.62,1651.7v14.52a5,5,0,0,1-1.14,3.12,6.59,6.59,0,0,1-3.12,2.09,7.76,7.76,0,0,1-1.22.29,8.68,8.68,0,0,1-1.17.09h-275.3a7.65,7.65,0,0,1-3.07-.64,5.81,5.81,0,0,1-3.51-4.06c0-.12,0-0.24-0.05-0.36a2.22,2.22,0,0,1,0-.25c0-.09,0-0.19,0-0.28V1651.7c0-.09,0-0.19,0-0.28a3.72,3.72,0,0,1,.06-0.54c0.49-2.69,3.27-4.76,6.59-4.76H1516a7.45,7.45,0,0,1,1.17.09,7,7,0,0,1,1.22.28,6.68,6.68,0,0,1,3.12,2.1A5,5,0,0,1,1522.62,1651.7Z" transform="translate(-224.64 -269.85)"/><path class="cls-22" d="M1387.44,1671.8H1240a6.15,6.15,0,0,1-2.73-.64,5.63,5.63,0,0,1-3.13-4.06c0-.12,0-0.24-0.05-0.36a2.22,2.22,0,0,1,0-.25c0-.09,0-0.19,0-0.28V1651.7c0-.09,0-0.19,0-0.28a3.72,3.72,0,0,1,.06-0.54,4.8,4.8,0,0,1,.15-0.6,5.89,5.89,0,0,1,5.72-4.17h129.38a45.12,45.12,0,0,0,17.21,25.06C1386.83,1671.38,1387.13,1671.6,1387.44,1671.8Z" transform="translate(-224.64 -269.85)"/><rect class="cls-22" x="1261.36" y="1376.25" width="3.13" height="25.7"/><rect class="cls-22" x="1250.77" y="1376.25" width="3.13" height="25.7"/><rect class="cls-22" x="1238.07" y="1376.25" width="3.13" height="25.7"/><rect class="cls-22" x="1218.6" y="1376.25" width="3.13" height="25.7"/><rect class="cls-22" x="1198.01" y="1376.25" width="3.13" height="25.7"/><rect class="cls-22" x="1166.45" y="1376.25" width="3.13" height="25.7"/><rect class="cls-22" x="1136.9" y="1376.25" width="3.13" height="25.7"/><rect class="cls-22" x="1110.52" y="1376.25" width="3.13" height="25.7"/><rect class="cls-22" x="1271.44" y="1376.25" width="3.13" height="25.7"/><rect class="cls-22" x="1278.1" y="1376.25" width="3.13" height="25.7"/><rect class="cls-22" x="1284.53" y="1376.25" width="3.13" height="25.7"/><path class="cls-22" d="M1517.14,1646.19v25.52a7.74,7.74,0,0,1-1.17.09h-2v-25.7h2A7.74,7.74,0,0,1,1517.14,1646.19Z" transform="translate(-224.64 -269.85)"/><path class="cls-22" d="M1521.48,1648.57v20.76a6.63,6.63,0,0,1-3.13,2.09v-24.95A6.63,6.63,0,0,1,1521.48,1648.57Z" transform="translate(-224.64 -269.85)"/><path class="cls-21" d="M1529.22,1626v14.51a4.93,4.93,0,0,1-1.14,3.12c-0.09.12-.2,0.23-0.3,0.34a6.44,6.44,0,0,1-1.9,1.38,8,8,0,0,1-.92.37,7.24,7.24,0,0,1-1.22.28l-0.58.07-0.6,0H1247.26c-3.33,0-6.11-2.08-6.6-4.76,0-.18-0.05-0.36-0.06-0.54v-15.09c0.17-2.73,2.68-4.95,5.87-5.26,0.26,0,.52,0,0.79,0h275.29l0.6,0c0.2,0,.39,0,0.58.07a7.25,7.25,0,0,1,1.22.28,6.64,6.64,0,0,1,3.12,2.09A5,5,0,0,1,1529.22,1626Z" transform="translate(-224.64 -269.85)"/><path class="cls-22" d="M1394,1646.11H1246.55a5.91,5.91,0,0,1-5.72-4.15,4.85,4.85,0,0,1-.16-0.62c0-.18-0.05-0.36-0.06-0.54v-15.09a5.79,5.79,0,0,1,5.24-5.26,6.44,6.44,0,0,1,.71,0h129.38s0,0,0,0A45.07,45.07,0,0,0,1394,1646.11Z" transform="translate(-224.64 -269.85)"/><rect class="cls-22" x="1267.95" y="1350.55" width="3.13" height="25.7"/><rect class="cls-22" x="1257.36" y="1350.55" width="3.13" height="25.7"/><rect class="cls-22" x="1244.66" y="1350.55" width="3.13" height="25.7"/><rect class="cls-22" x="1225.19" y="1350.55" width="3.13" height="25.7"/><rect class="cls-22" x="1204.61" y="1350.55" width="3.13" height="25.7"/><rect class="cls-22" x="1173.05" y="1350.55" width="3.13" height="25.7"/><rect class="cls-22" x="1143.5" y="1350.55" width="3.13" height="25.7"/><rect class="cls-22" x="1117.11" y="1350.55" width="3.13" height="25.7"/><rect class="cls-22" x="1278.04" y="1350.55" width="3.13" height="25.7"/><rect class="cls-22" x="1284.7" y="1350.55" width="3.13" height="25.7"/><rect class="cls-22" x="1291.13" y="1350.55" width="3.13" height="25.7"/><path class="cls-22" d="M1523.73,1620.49V1646a7.75,7.75,0,0,1-1.17.09h-2v-25.7h2A7.75,7.75,0,0,1,1523.73,1620.49Z" transform="translate(-224.64 -269.85)"/><path class="cls-22" d="M1528.08,1622.87v20.76a6.63,6.63,0,0,1-3.13,2.09v-24.95A6.63,6.63,0,0,1,1528.08,1622.87Z" transform="translate(-224.64 -269.85)"/><path class="cls-21" d="M1509,1600.34v14.51a4.92,4.92,0,0,1-1.14,3.12,6.57,6.57,0,0,1-3.13,2.1,7.15,7.15,0,0,1-1.21.28l-0.39.05h-0.05l-0.21,0-0.18,0H1227c-3.55,0-6.48-2.36-6.66-5.31,0-.09,0-0.19,0-0.29v-14.51c0-.09,0-0.2,0-0.29a2,2,0,0,1,0-.23,6,6,0,0,1,5-4.89l0.2,0a7.91,7.91,0,0,1,1.44-.14h275.29l0.59,0,0.25,0h0l0.31,0a7.16,7.16,0,0,1,1.21.28,6.57,6.57,0,0,1,3.13,2.1A4.92,4.92,0,0,1,1509,1600.34Z" transform="translate(-224.64 -269.85)"/><path class="cls-22" d="M1373.79,1620.44H1226.31a5.82,5.82,0,0,1-5.94-5.31c0-.09,0-0.19,0-0.29v-14.51c0-.09,0-0.2,0-0.29a2,2,0,0,1,0-.23,5.73,5.73,0,0,1,4.62-4.93l0.25-.05a6.19,6.19,0,0,1,1.06-.09h129.37l0.05,0.19a45,45,0,0,0,18,25.47Z" transform="translate(-224.64 -269.85)"/><rect class="cls-22" x="1247.71" y="1324.89" width="3.13" height="25.7"/><rect class="cls-22" x="1237.12" y="1324.89" width="3.13" height="25.7"/><rect class="cls-22" x="1224.42" y="1324.89" width="3.13" height="25.7"/><rect class="cls-22" x="1204.96" y="1324.89" width="3.13" height="25.7"/><rect class="cls-22" x="1184.37" y="1324.89" width="3.13" height="25.7"/><rect class="cls-22" x="1152.81" y="1324.89" width="3.13" height="25.7"/><rect class="cls-22" x="1123.26" y="1324.89" width="3.13" height="25.7"/><rect class="cls-22" x="1096.87" y="1324.89" width="3.13" height="25.7"/><rect class="cls-22" x="1257.8" y="1324.89" width="3.13" height="25.7"/><rect class="cls-22" x="1264.46" y="1324.89" width="3.13" height="25.7"/><rect class="cls-22" x="1270.89" y="1324.89" width="3.13" height="25.7"/><path class="cls-22" d="M1503.49,1594.83v25.52a7.74,7.74,0,0,1-1.17.09h-2v-25.7h2A7.74,7.74,0,0,1,1503.49,1594.83Z" transform="translate(-224.64 -269.85)"/><path class="cls-22" d="M1507.84,1597.21V1618a6.64,6.64,0,0,1-3.13,2.09v-24.95A6.64,6.64,0,0,1,1507.84,1597.21Z" transform="translate(-224.64 -269.85)"/><path class="cls-21" d="M1508.4,1574.82v14.51a5,5,0,0,1-1.14,3.12,7.74,7.74,0,0,1-.63.67,6.89,6.89,0,0,1-2.5,1.43,7.3,7.3,0,0,1-.95.24h0l-0.25,0a7.45,7.45,0,0,1-1.17.09h-275.3a7.25,7.25,0,0,1-.86-0.05l-0.33,0a6.19,6.19,0,0,1-5.41-4.73,4.59,4.59,0,0,1-.05-0.48c0-.1,0-0.2,0-0.29v-14.51c0-.1,0-0.2,0-0.29s0-.36.06-0.54c0.49-2.68,3.27-4.76,6.59-4.76h275.3l0.52,0h0.22l0.25,0,0.17,0a7.07,7.07,0,0,1,1.22.28q0.35,0.12.67,0.26h0a6.68,6.68,0,0,1,2.2,1.55l0.25,0.28A5,5,0,0,1,1508.4,1574.82Z" transform="translate(-224.64 -269.85)"/><path class="cls-22" d="M1373.22,1594.93H1225.38l-0.38,0a5.82,5.82,0,0,1-5.16-4.78,4.59,4.59,0,0,1-.05-0.48c0-.1,0-0.2,0-0.29v-14.51c0-.1,0-0.2,0-0.29s0-.36.06-0.54a4.77,4.77,0,0,1,.16-0.61,5.9,5.9,0,0,1,5.71-4.15h129.38c0.05,0.21.11,0.42,0.18,0.64a45,45,0,0,0,17.66,24.88Z" transform="translate(-224.64 -269.85)"/><rect class="cls-22" x="1247.14" y="1299.37" width="3.13" height="25.7"/><rect class="cls-22" x="1236.54" y="1299.37" width="3.13" height="25.7"/><rect class="cls-22" x="1223.84" y="1299.37" width="3.13" height="25.7"/><rect class="cls-22" x="1204.38" y="1299.37" width="3.13" height="25.7"/><rect class="cls-22" x="1183.79" y="1299.37" width="3.13" height="25.7"/><rect class="cls-22" x="1152.23" y="1299.37" width="3.13" height="25.7"/><rect class="cls-22" x="1122.68" y="1299.37" width="3.13" height="25.7"/><rect class="cls-22" x="1096.29" y="1299.37" width="3.13" height="25.7"/><rect class="cls-22" x="1257.22" y="1299.37" width="3.13" height="25.7"/><rect class="cls-22" x="1263.88" y="1299.37" width="3.13" height="25.7"/><rect class="cls-22" x="1270.31" y="1299.37" width="3.13" height="25.7"/><path class="cls-22" d="M1502.92,1569.31v25.52a7.73,7.73,0,0,1-1.17.09h-2v-25.7h2A7.73,7.73,0,0,1,1502.92,1569.31Z" transform="translate(-224.64 -269.85)"/><path class="cls-22" d="M1507.26,1571.69v20.76a6.63,6.63,0,0,1-3.13,2.09V1569.6A6.62,6.62,0,0,1,1507.26,1571.69Z" transform="translate(-224.64 -269.85)"/><path class="cls-21" d="M1522.62,1549.75v14.51a5,5,0,0,1-1.14,3.13,6.6,6.6,0,0,1-3.12,2.09,7,7,0,0,1-1.22.28,7.46,7.46,0,0,1-1.17.1h-275.3a7.65,7.65,0,0,1-3.07-.64,5.81,5.81,0,0,1-3.51-4.06c0-.12,0-0.24-0.05-0.36a2.37,2.37,0,0,1,0-.25c0-.09,0-0.19,0-0.29v-14.51c0-.09,0-0.2,0-0.29a3.85,3.85,0,0,1,.06-0.54c0.49-2.68,3.27-4.76,6.59-4.76H1516a7.46,7.46,0,0,1,1.17.09,7.06,7.06,0,0,1,1.22.28,6.55,6.55,0,0,1,3.12,2.1A4.93,4.93,0,0,1,1522.62,1549.75Z" transform="translate(-224.64 -269.85)"/><path class="cls-22" d="M1387.44,1569.86H1240a6.15,6.15,0,0,1-2.73-.64,5.64,5.64,0,0,1-3.13-4.06c0-.12,0-0.24-0.05-0.36a2.37,2.37,0,0,1,0-.25c0-.09,0-0.19,0-0.29v-14.51c0-.09,0-0.2,0-0.29a3.85,3.85,0,0,1,.06-0.54,4.77,4.77,0,0,1,.15-0.6,5.89,5.89,0,0,1,5.72-4.17h129.38a45.11,45.11,0,0,0,17.21,25.07Z" transform="translate(-224.64 -269.85)"/><rect class="cls-22" x="1261.36" y="1274.31" width="3.13" height="25.7"/><rect class="cls-22" x="1250.77" y="1274.31" width="3.13" height="25.7"/><rect class="cls-22" x="1238.07" y="1274.31" width="3.13" height="25.7"/><rect class="cls-22" x="1218.6" y="1274.31" width="3.13" height="25.7"/><rect class="cls-22" x="1198.01" y="1274.31" width="3.13" height="25.7"/><rect class="cls-22" x="1166.45" y="1274.31" width="3.13" height="25.7"/><rect class="cls-22" x="1136.9" y="1274.31" width="3.13" height="25.7"/><rect class="cls-22" x="1110.52" y="1274.31" width="3.13" height="25.7"/><rect class="cls-22" x="1271.44" y="1274.31" width="3.13" height="25.7"/><rect class="cls-22" x="1278.1" y="1274.31" width="3.13" height="25.7"/><rect class="cls-22" x="1284.53" y="1274.31" width="3.13" height="25.7"/><path class="cls-22" d="M1517.14,1544.25v25.52a7.76,7.76,0,0,1-1.17.09h-2v-25.7h2A7.74,7.74,0,0,1,1517.14,1544.25Z" transform="translate(-224.64 -269.85)"/><path class="cls-22" d="M1521.48,1546.63v20.76a6.63,6.63,0,0,1-3.13,2.09v-24.95A6.63,6.63,0,0,1,1521.48,1546.63Z" transform="translate(-224.64 -269.85)"/><path class="cls-21" d="M1545.12,1524v14.52a5,5,0,0,1-1.14,3.11h0c-0.09.12-.2,0.23-0.3,0.34a6.26,6.26,0,0,1-1.47,1.15,6.92,6.92,0,0,1-.88.42h0l-0.46.17a7,7,0,0,1-1.22.28,7.45,7.45,0,0,1-1.17.09h-275.3c-3.32,0-6.1-2.07-6.59-4.76a3.77,3.77,0,0,1-.06-0.55c0-.09,0-0.19,0-0.28V1524c0-.09,0-0.19,0-0.28,0.16-2.72,2.67-4.94,5.87-5.26a5.91,5.91,0,0,1,.78,0h275.3a8.66,8.66,0,0,1,1.17.09,7.87,7.87,0,0,1,1.22.29,6.76,6.76,0,0,1,2.82,1.75c0.1,0.11.21,0.22,0.3,0.34h0A5,5,0,0,1,1545.12,1524Z" transform="translate(-224.64 -269.85)"/><path class="cls-22" d="M1409.94,1544.15H1262.45a5.89,5.89,0,0,1-5.72-4.16,4.83,4.83,0,0,1-.15-0.6,3.77,3.77,0,0,1-.06-0.55c0-.09,0-0.19,0-0.28V1524c0-.09,0-0.19,0-0.28a5.77,5.77,0,0,1,5.23-5.26,4.81,4.81,0,0,1,.71,0h129.38a0.36,0.36,0,0,1,0,0A45,45,0,0,0,1409.94,1544.15Z" transform="translate(-224.64 -269.85)"/><rect class="cls-22" x="1283.86" y="1248.61" width="3.13" height="25.7"/><rect class="cls-22" x="1273.27" y="1248.61" width="3.13" height="25.7"/><rect class="cls-22" x="1260.57" y="1248.61" width="3.13" height="25.7"/><rect class="cls-22" x="1241.1" y="1248.61" width="3.13" height="25.7"/><rect class="cls-22" x="1220.51" y="1248.61" width="3.13" height="25.7"/><rect class="cls-22" x="1188.95" y="1248.61" width="3.13" height="25.7"/><rect class="cls-22" x="1159.4" y="1248.61" width="3.13" height="25.7"/><rect class="cls-22" x="1133.02" y="1248.61" width="3.13" height="25.7"/><rect class="cls-22" x="1293.94" y="1248.61" width="3.13" height="25.7"/><rect class="cls-22" x="1300.6" y="1248.61" width="3.13" height="25.7"/><rect class="cls-22" x="1307.03" y="1248.61" width="3.13" height="25.7"/><path class="cls-22" d="M1539.64,1518.55v25.52a7.62,7.62,0,0,1-1.17.09h-2v-25.7h2A7.74,7.74,0,0,1,1539.64,1518.55Z" transform="translate(-224.64 -269.85)"/><path class="cls-22" d="M1544,1520.93v20.76a6.63,6.63,0,0,1-3.13,2.09v-24.95A6.63,6.63,0,0,1,1544,1520.93Z" transform="translate(-224.64 -269.85)"/><path class="cls-21" d="M1509,1498.39v14.51a4.92,4.92,0,0,1-1.14,3.12,6.57,6.57,0,0,1-3.13,2.1,7.16,7.16,0,0,1-1.21.28l-0.39.05h-0.05l-0.26,0H1227a7,7,0,0,1-5.67-2.67,4.92,4.92,0,0,1-1-2.64c0-.1,0-0.2,0-0.29v-14.51c0-.1,0-0.2,0-0.29a5.91,5.91,0,0,1,4.72-5.06,7.52,7.52,0,0,1,1.94-.25h275.65l0.17,0a5.49,5.49,0,0,1,.65.07,7.14,7.14,0,0,1,1.21.28,4.11,4.11,0,0,1,.57.21h0a6.49,6.49,0,0,1,1.93,1.21l0,0,0.08,0.07a5.37,5.37,0,0,1,.52.56A4.94,4.94,0,0,1,1509,1498.39Z" transform="translate(-224.64 -269.85)"/><path class="cls-22" d="M1373.79,1518.5H1226.31a6.05,6.05,0,0,1-5-2.54,5.28,5.28,0,0,1-1-2.77c0-.1,0-0.2,0-0.29v-14.51c0-.1,0-0.2,0-0.29a5.74,5.74,0,0,1,4.74-5.19,6.17,6.17,0,0,1,1.2-.12h129.37c0.05,0.2.11,0.39,0.17,0.59a45,45,0,0,0,17.88,25.07Z" transform="translate(-224.64 -269.85)"/><rect class="cls-22" x="1247.71" y="1222.95" width="3.13" height="25.7"/><rect class="cls-22" x="1237.12" y="1222.95" width="3.13" height="25.7"/><rect class="cls-22" x="1224.42" y="1222.95" width="3.13" height="25.7"/><rect class="cls-22" x="1204.96" y="1222.95" width="3.13" height="25.7"/><rect class="cls-22" x="1184.37" y="1222.95" width="3.13" height="25.7"/><rect class="cls-22" x="1152.81" y="1222.95" width="3.13" height="25.7"/><rect class="cls-22" x="1123.26" y="1222.95" width="3.13" height="25.7"/><rect class="cls-22" x="1096.87" y="1222.95" width="3.13" height="25.7"/><rect class="cls-22" x="1257.8" y="1222.95" width="3.13" height="25.7"/><rect class="cls-22" x="1264.46" y="1222.95" width="3.13" height="25.7"/><rect class="cls-22" x="1270.89" y="1222.95" width="3.13" height="25.7"/><path class="cls-22" d="M1503.49,1492.89v25.52a7.63,7.63,0,0,1-1.17.09h-2v-25.7h2A7.63,7.63,0,0,1,1503.49,1492.89Z" transform="translate(-224.64 -269.85)"/><path class="cls-22" d="M1507.84,1495.27V1516a6.63,6.63,0,0,1-3.13,2.09v-24.95A6.63,6.63,0,0,1,1507.84,1495.27Z" transform="translate(-224.64 -269.85)"/><path class="cls-21" d="M1529.22,1473.28v14.51a4.94,4.94,0,0,1-1.14,3.12A6.62,6.62,0,0,1,1525,1493a7,7,0,0,1-1.22.29,7.75,7.75,0,0,1-1.17.09h-275.3a7.62,7.62,0,0,1-3-.59,5.73,5.73,0,0,1-3.66-4.48c0-.07,0-0.15,0-0.23s0-.19,0-0.29v-14.51c0-.1,0-0.19,0-0.29,0.17-2.72,2.68-4.95,5.87-5.27a7.21,7.21,0,0,1,.79,0h275.3a7.75,7.75,0,0,1,1.17.09,7.23,7.23,0,0,1,1.22.29,6.63,6.63,0,0,1,3.13,2.09A4.94,4.94,0,0,1,1529.22,1473.28Z" transform="translate(-224.64 -269.85)"/><path class="cls-22" d="M1394,1493.39H1246.55a6.17,6.17,0,0,1-2.65-.59,5.63,5.63,0,0,1-3.27-4.48c0-.07,0-0.15,0-0.23s0-.19,0-0.29v-14.51c0-.1,0-0.19,0-0.29a6,6,0,0,1,5.94-5.31h129.37v0a45.09,45.09,0,0,0,17.25,25.07Z" transform="translate(-224.64 -269.85)"/><rect class="cls-22" x="1267.95" y="1197.84" width="3.13" height="25.7"/><rect class="cls-22" x="1257.36" y="1197.84" width="3.13" height="25.7"/><rect class="cls-22" x="1244.66" y="1197.84" width="3.13" height="25.7"/><rect class="cls-22" x="1225.19" y="1197.84" width="3.13" height="25.7"/><rect class="cls-22" x="1204.61" y="1197.84" width="3.13" height="25.7"/><rect class="cls-22" x="1173.05" y="1197.84" width="3.13" height="25.7"/><rect class="cls-22" x="1143.5" y="1197.84" width="3.13" height="25.7"/><rect class="cls-22" x="1117.11" y="1197.84" width="3.13" height="25.7"/><rect class="cls-22" x="1278.04" y="1197.84" width="3.13" height="25.7"/><rect class="cls-22" x="1284.7" y="1197.84" width="3.13" height="25.7"/><rect class="cls-22" x="1291.13" y="1197.84" width="3.13" height="25.7"/><path class="cls-22" d="M1523.73,1467.78v25.52a7.75,7.75,0,0,1-1.17.09h-2v-25.7h2A7.77,7.77,0,0,1,1523.73,1467.78Z" transform="translate(-224.64 -269.85)"/><path class="cls-22" d="M1528.08,1470.16v20.76A6.63,6.63,0,0,1,1525,1493v-24.95A6.63,6.63,0,0,1,1528.08,1470.16Z" transform="translate(-224.64 -269.85)"/><path class="cls-21" d="M1537.84,1447.62v14.51a4.94,4.94,0,0,1-1.14,3.12,6.64,6.64,0,0,1-3.13,2.09,7.25,7.25,0,0,1-1.22.29l-0.39,0-0.22,0H1255.88c-3.55,0-6.47-2.36-6.65-5.31,0-.1,0-0.19,0-0.29v-14.51c0-.1,0-0.19,0-0.29,0.18-2.94,3.1-5.31,6.65-5.31h275.3a7.74,7.74,0,0,1,1.17.09,7.15,7.15,0,0,1,1.22.29,6.64,6.64,0,0,1,3.13,2.09A4.94,4.94,0,0,1,1537.84,1447.62Z" transform="translate(-224.64 -269.85)"/><path class="cls-22" d="M1402.65,1467.73H1255.16a5.82,5.82,0,0,1-5.94-5.31c0-.1,0-0.19,0-0.29v-14.51c0-.1,0-0.19,0-0.29a5.82,5.82,0,0,1,5.94-5.31h129.38a45.05,45.05,0,0,0,18.05,25.66Z" transform="translate(-224.64 -269.85)"/><rect class="cls-22" x="1276.57" y="1172.18" width="3.13" height="25.7"/><rect class="cls-22" x="1265.98" y="1172.18" width="3.13" height="25.7"/><rect class="cls-22" x="1253.28" y="1172.18" width="3.13" height="25.7"/><rect class="cls-22" x="1233.81" y="1172.18" width="3.13" height="25.7"/><rect class="cls-22" x="1213.22" y="1172.18" width="3.13" height="25.7"/><rect class="cls-22" x="1181.66" y="1172.18" width="3.13" height="25.7"/><rect class="cls-22" x="1152.11" y="1172.18" width="3.13" height="25.7"/><rect class="cls-22" x="1125.73" y="1172.18" width="3.13" height="25.7"/><rect class="cls-22" x="1286.65" y="1172.18" width="3.13" height="25.7"/><rect class="cls-22" x="1293.31" y="1172.18" width="3.13" height="25.7"/><rect class="cls-22" x="1299.74" y="1172.18" width="3.13" height="25.7"/><path class="cls-22" d="M1532.35,1442.12v25.52a7.74,7.74,0,0,1-1.17.09h-2V1442h2A7.74,7.74,0,0,1,1532.35,1442.12Z" transform="translate(-224.64 -269.85)"/><path class="cls-22" d="M1536.69,1444.5v20.76a6.62,6.62,0,0,1-3.13,2.09v-24.95A6.63,6.63,0,0,1,1536.69,1444.5Z" transform="translate(-224.64 -269.85)"/><path class="cls-23" d="M1450.57,1295.57s-14.46,20.36-27.72,20.64-33.42-9.43-33.42-9.43-12.17-27.13-3.92-37.74a17.73,17.73,0,0,1,16.94,2.78,26,26,0,0,1,4.48,4.29,14.21,14.21,0,0,0,7,4.72c9.46,2.88,20.69-3.89,24.89,2.64a44.4,44.4,0,0,0,7.31,8.66A33.38,33.38,0,0,0,1450.57,1295.57Z" transform="translate(-224.64 -269.85)"/><path class="cls-23" d="M1262.06,1442.41s51.11-123.84,143.1-126.2c0,0,84.92,9.44,89.64,126.2H1262.06Z" transform="translate(-224.64 -269.85)"/><path class="cls-24" d="M1380,1320s36.87,8.2,48.25,3.38c0,0,1.72-15.42-13.81-13.26-10.63,1.48-17.55-3.63-21.62-5.7C1387,1301.48,1378.43,1313.54,1380,1320Z" transform="translate(-224.64 -269.85)"/><path class="cls-25" d="M1412.05,1296.75c-2.36,1.77-9.6-24.93-9.6-24.93a26,26,0,0,1,4.48,4.29,14.21,14.21,0,0,0,7,4.72C1413.92,1281.6,1414.34,1295,1412.05,1296.75Z" transform="translate(-224.64 -269.85)"/><path class="cls-25" d="M1446.09,1292.13c-0.52.31-17.57,10.52-19.88,10.52s12.57-19.18,12.57-19.18A44.4,44.4,0,0,0,1446.09,1292.13Z" transform="translate(-224.64 -269.85)"/><path class="cls-26" d="M1312,1407.81c-0.95-.81,36.17-54.65,46.39-55s33.19,11.79,49.81,13.37,32.74-3.15,35.89,6.68,11.79,44.67,6.49,50.25S1332.4,1425.24,1312,1407.81Z" transform="translate(-224.64 -269.85)"/><path class="cls-27" d="M1346.94,1594.74c0,0.07,0,.13,0,0.19a123.18,123.18,0,0,1-4.13,25.47,0.4,0.4,0,0,0,0,0c-0.33,1.2-.67,2.41-1,3.6a125.82,125.82,0,0,1-9.07,22.06,127.8,127.8,0,0,1-17.29,25.06l-0.56.64a132.6,132.6,0,0,1-30.25,25.07q-3.66,2.23-7.52,4.26c-1.74.91-3.48,1.77-5.24,2.61s-3.45,1.81-5.12,2.83a71.5,71.5,0,0,1-17.49,7.2v-11.3c0-.09,0-0.19,0-0.28s0-.37.06-0.55a4.84,4.84,0,0,1,.16-0.62,5.91,5.91,0,0,1,5.72-4.14h-29.44a5.9,5.9,0,0,1-5.71-4.15,4.79,4.79,0,0,1-.16-0.61c0-.18-0.05-0.36-0.06-0.54s0-.19,0-0.29v-14.51c0-.1,0-0.2,0-0.29s0-.36.06-0.54a4.79,4.79,0,0,1,.16-0.61,5.9,5.9,0,0,1,5.71-4.15h11.49a5.63,5.63,0,0,1-3.13-4.06c0-.12,0-0.24-0.05-0.36a2.22,2.22,0,0,1,0-.25c0-.09,0-0.19,0-0.28V1651.7c0-.09,0-0.19,0-0.28a3.72,3.72,0,0,1,.06-0.54,4.8,4.8,0,0,1,.15-0.6,5.89,5.89,0,0,1,5.72-4.17h6.6a5.91,5.91,0,0,1-5.72-4.15,4.85,4.85,0,0,1-.16-0.62c0-.18-0.05-0.36-0.06-0.54v-15.09a5.79,5.79,0,0,1,5.24-5.26h-19.53a5.82,5.82,0,0,1-5.94-5.31c0-.09,0-0.19,0-0.29v-14.51c0-.09,0-0.2,0-0.29a2,2,0,0,1,0-.23,5.73,5.73,0,0,1,4.62-4.93,5.82,5.82,0,0,1-5.16-4.78,4.59,4.59,0,0,1-.05-0.48c0-.1,0-0.2,0-0.29v-14.51c0-.1,0-0.2,0-0.29s0-.36.06-0.54a4.77,4.77,0,0,1,.16-0.61,5.9,5.9,0,0,1,5.71-4.15h11.49a5.64,5.64,0,0,1-3.13-4.06c0-.12,0-0.24-0.05-0.36a2.37,2.37,0,0,1,0-.25c0-.09,0-0.19,0-0.29v-14.51c0-.09,0-0.2,0-0.29a3.85,3.85,0,0,1,.06-0.54,4.77,4.77,0,0,1,.15-0.6,5.89,5.89,0,0,1,5.72-4.17h22.5a5.89,5.89,0,0,1-5.72-4.16,4.83,4.83,0,0,1-.15-0.6,3.77,3.77,0,0,1-.06-0.55c0-.09,0-0.19,0-0.28V1524c0-.09,0-0.19,0-0.28a5.77,5.77,0,0,1,5.23-5.26h-35.43a6.05,6.05,0,0,1-5-2.54l0-.13,3.73-22.79,0-.13,5.31-32.52a142.31,142.31,0,0,1,18.24,3.67l1,0.28,0.07,0q5.22,1.46,10.31,3.31l0.09,0a136.31,136.31,0,0,1,42.74,25.07c0.22,0.19.45,0.39,0.66,0.59a128.79,128.79,0,0,1,17.92,19.31q1.61,2.12,3.12,4.31c0.34,0.48.67,1,1,1.45a0,0,0,0,1,0,0q2.44,3.6,4.63,7.39a126.44,126.44,0,0,1,8.71,18.27,122.12,122.12,0,0,1,6.67,25.07c0,0.21.07,0.42,0.1,0.64A122.67,122.67,0,0,1,1346.94,1594.74Z" transform="translate(-224.64 -269.85)"/><circle class="cls-28" cx="1181.16" cy="1581.48" r="135.41" transform="translate(-841.35 496.86) rotate(-28.87)"/><path class="cls-21" d="M1241.27,1702.81q-2.5,1.53-5.09,3l-1.75.95c-1.34.71-2.67,1.4-4,2.06a135.41,135.41,0,0,1-125-240.19q2.6-1.43,5.24-2.74t5.16-2.43a135.16,135.16,0,0,1,40.64-10.93A135.43,135.43,0,0,1,1241.27,1702.81Z" transform="translate(-224.64 -269.85)"/><path class="cls-22" d="M1171.76,1710a121.82,121.82,0,0,1-33.89-4.84A120.58,120.58,0,1,1,1171.76,1710Zm-0.37-239.43a118,118,0,1,0,103.59,61A117.33,117.33,0,0,0,1171.39,1470.54Z" transform="translate(-224.64 -269.85)"/><path class="cls-22" d="M1231.26,1600.37c-0.27-.67-0.55-1.31-0.84-1.95a35.53,35.53,0,0,0-8.21-11.73,36.7,36.7,0,0,0-12.93-7.61,61.87,61.87,0,0,0-16.43-3.09q-9.07-.56-19.73-0.26a95,95,0,0,1-11.27-.23,28.22,28.22,0,0,1-7.93-1.73,13.91,13.91,0,0,1-5.29-3.59,18.87,18.87,0,0,1-3.36-5.55,20.56,20.56,0,0,1-1.53-6.51,14,14,0,0,1,1-6.12,15,15,0,0,1,3.78-5.35,22,22,0,0,1,6.91-4.2q7.92-3.22,14.79.14t11.18,14l27.59-11.2a51.58,51.58,0,0,0-9-15,38.7,38.7,0,0,0-27-13.34,51.12,51.12,0,0,0-16.65,1.7l-7.81-19.24-15.27,6.2,7.7,19a57.23,57.23,0,0,0-14,10A42.83,42.83,0,0,0,1118,1547a34.32,34.32,0,0,0-3.25,13.92,40.76,40.76,0,0,0,12,28.59,36.11,36.11,0,0,0,12.91,7.56,61.13,61.13,0,0,0,16.44,3,194,194,0,0,0,19.78,0,73.35,73.35,0,0,1,10.76.07,28.09,28.09,0,0,1,7.89,1.75,14.92,14.92,0,0,1,5.52,3.75,20.33,20.33,0,0,1,3.71,6.13,17,17,0,0,1,1.32,6.54,14,14,0,0,1-1.47,6.23,17.61,17.61,0,0,1-4.38,5.5,26.48,26.48,0,0,1-7.41,4.35,31.86,31.86,0,0,1-8.1,2.1,18.47,18.47,0,0,1-8.17-.82,19,19,0,0,1-7.46-4.82,29.29,29.29,0,0,1-6-9.79l-27.58,11.2q4.31,10.63,10.85,16.87a39.17,39.17,0,0,0,14.29,8.91,43.72,43.72,0,0,0,16.24,2.34,68.88,68.88,0,0,0,16.73-2.76l7.12,17.56,15.18-6.16-7.16-17.64a61.63,61.63,0,0,0,14.16-9.89,41.78,41.78,0,0,0,8.55-11.16c0.17-.32.33-0.65,0.48-1a33.92,33.92,0,0,0,3.33-13.85A37.26,37.26,0,0,0,1231.26,1600.37Z" transform="translate(-224.64 -269.85)"/><path class="cls-12" d="M1045.71,914.12a6.28,6.28,0,0,0-1.07,6.73,0.05,0.05,0,0,0,0,0c1.65,4.47,7,9.44,13.3,14.39,0.8,0.64,1.51,1.21,2.13,1.75l0.48,0.42,0.37,0.33c5.84,5.31,3.67,6.55,14.17,17.33,12,12.28,20.16,12.45,22.48,11.31,2-1-2.09-7.51-6.57-14.85l-0.65-1.07c-0.6-1-1.19-2-1.78-2.95-5.26-8.84-4-13-2.82-26.22,0.93-10.74,16.27-60.07,16.27-60.07l-22.81-3.76s-6.58,39.24-14.1,45.33c-4,3.25-8.54,3.32-12.41,5.73l-0.8.52A29.9,29.9,0,0,0,1045.71,914.12Z" transform="translate(-224.64 -269.85)"/><path class="cls-11" d="M1045.71,914.12a6.28,6.28,0,0,0-1.07,6.73,0.05,0.05,0,0,0,0,0c2,4.46,7.28,9.4,13.33,14.34,0.79,0.65,1.49,1.24,2.11,1.8l0.48,0.42,0.37,0.33c5.84,5.31,3.67,6.55,14.17,17.33,12,12.28,20.16,12.45,22.48,11.31,2-1-2.09-7.51-6.57-14.85a50.65,50.65,0,0,1-21.3-15.46c-7.22-9.08-12.08-20.79-17-27.55l-0.8.52A29.9,29.9,0,0,0,1045.71,914.12Z" transform="translate(-224.64 -269.85)"/><path class="cls-12" d="M1229.3,898.59c1.46,7,11.47,5.78,22.65,3s8.54,0.46,24.47-1.42,20.71-7.85,21.18-10.23c0.42-2.11-7.46-2.79-15.91-3.71l-3.2-.36c-9.54-1.13-16.57-7.23-25.27-12.23-8.24-4.73-20.62-24.15-20.62-24.15l-21.85,1.89s11.59,17.34,16.08,24.88c2.64,4.44,2.54,10.33,2.25,14.88A28,28,0,0,0,1229.3,898.59Z" transform="translate(-224.64 -269.85)"/><path class="cls-11" d="M1251.95,901.56c11.18-2.82,8.54.46,24.47-1.42s20.71-7.85,21.18-10.23c0.42-2.11-7.46-2.79-15.91-3.71l-0.08.16a44.93,44.93,0,0,1-22.77,7.26c-10.81.34-22.29-2.68-29.75-2.5a28,28,0,0,0,.22,7.48C1230.75,905.61,1240.77,904.37,1251.95,901.56Z" transform="translate(-224.64 -269.85)"/><path class="cls-29" d="M1144.55,759.42l-20,55.13-26.17,72a43.22,43.22,0,0,1-14.18-1.19c-6.4-1.8-13.75-6.57-13.75-6.57s6.86-77.13,20.37-121.48c3.46-11.38,7.37-20.6,11.71-25.8C1123.72,706,1144.55,759.42,1144.55,759.42Z" transform="translate(-224.64 -269.85)"/><path class="cls-15" d="M1123.16,672.25c-13.42-4.22-51.56,1.59-89.86,9.37l-8.12-13.19-82.88-5.88s-26.91,60.81-11.67,99.33c2.24,5.66,16,8.42,16,8.42s48.56,0.53,64.57.42c41.2-.29,87-28.93,92.93-30.17,9.72-2,13.76,17.43,23.64,37.81S1220,868.28,1220,868.28s12.57,0,17.75-1.95c5.57-2.13,7.59-4.87,7.59-4.87S1153.42,681.78,1123.16,672.25Z" transform="translate(-224.64 -269.85)"/><path class="cls-11" d="M1014.66,425.24a29.38,29.38,0,0,0-16-4,47.9,47.9,0,0,1-7.92-.46c-31.42-4-50,41.75-51,55.58-1.87,25.49-15.32,29.47-34.17,45.56-37.81,32.26-26.39,69.35-5.5,83,12.54,8.2,34.47-.24,34.47-0.24,0.31,0.22,59.92-33.88,89.3-50.33C1068.07,547.76,1032.5,435.69,1014.66,425.24Z" transform="translate(-224.64 -269.85)"/><path class="cls-12" d="M999.07,540.7c0.13,0.08-14.48,5.19-24.3.92-9.24-4-16.33-19.11-16.19-19.12,4.19-.22,8.76-3.92,12.14-28l1.79,0.63,30.08,10.58s-2.11,9.64-3.45,18.82C998,532.25,997.42,539.63,999.07,540.7Z" transform="translate(-224.64 -269.85)"/><path class="cls-30" d="M1002.58,505.73s-1.28,6.76-3.06,16.41c-17.25-3-24.52-17.7-27-27Z" transform="translate(-224.64 -269.85)"/><path class="cls-12" d="M1007.12,515.25S966,510,969.67,484.5s0.8-43.41,27.18-41.16,30.08,12.72,30.94,21.54S1017.9,516,1007.12,515.25Z" transform="translate(-224.64 -269.85)"/><path class="cls-11" d="M1026.2,450.91s-26.12,22.83-44,24.78S957.56,472,957.56,472a69.79,69.79,0,0,0,16.71-23,12.57,12.57,0,0,1,10.31-7.48C997.33,440.3,1021.52,439.63,1026.2,450.91Z" transform="translate(-224.64 -269.85)"/><path class="cls-11" d="M1009.76,449s8.85,8.44,11.66,14.72c2.71,6.06,3.62,20.61,1.53,26.4,0,0,13.51-26.73,5.66-39.61C1020.3,436.85,1009.76,449,1009.76,449Z" transform="translate(-224.64 -269.85)"/><path class="cls-10" d="M1034.06,600.93c-0.65,83.1.12,65.73-8.91,73.68-2.18,1.91-8.33,3.09-16.42,3.68-25.47,1.87-70.28-2-72-6.71-6-16.25-1.88-21.34-7-46.25-0.53-2.65-1.18-5.52-1.95-8.64-4.21-17.1-8.23-22.9,6.08-50.53,13-25,26.5-45.35,27.73-44.63,34.85,20.35,37.52,3,37.52,3S1034.38,560.39,1034.06,600.93Z" transform="translate(-224.64 -269.85)"/><path class="cls-15" d="M1124.51,814.55l-26.17,72a43.22,43.22,0,0,1-14.18-1.19c-6.4-1.8-13.75-6.57-13.75-6.57s6.86-77.13,20.37-121.48Z" transform="translate(-224.64 -269.85)"/><path class="cls-10" d="M999.13,524.55s35.75,5.8,40.05,21.15,29.61,105.55,29.61,105.55-18.13,3.39-26.57-4.94-29.73-77.59-29.73-77.59Z" transform="translate(-224.64 -269.85)"/><path class="cls-31" d="M1008.72,678.29c-25.47,1.87-70.28-2-72-6.71-6-16.25-1.88-21.34-7-46.25l12-34.69s-1.76,38.55,9.68,48.6,46.67,19.24,52.25,27.67A31,31,0,0,1,1008.72,678.29Z" transform="translate(-224.64 -269.85)"/><path class="cls-12" d="M979.42,662.29s25.1-5.77,29.17-3.57,14,10.26,15.3,13.07-9-2.08-12.39-3c-2.17-.56-7.85,1.45-10.66,2.41-11.83,4-19.12,2.06-19.12,2.06Z" transform="translate(-224.64 -269.85)"/><path class="cls-10" d="M961.59,521.51s-33.74,2.32-45.31,18.7c-16.29,23.06-48.22,121-29.43,134,21.16,14.53,95.87,3.17,95.87,3.17s2.41-11.65-1.1-17.25-59.83-14.29-62.45-16.87,32.1-50.87,32-58.66S961.59,521.51,961.59,521.51Z" transform="translate(-224.64 -269.85)"/><path class="cls-12" d="M1009.85,665.7s5.31,6.76,7,7.56a5.15,5.15,0,0,0,2.85.59l-3.59-6.36Z" transform="translate(-224.64 -269.85)"/><path class="cls-12" d="M1008.58,658.71l15.37,7.33a2.73,2.73,0,0,1-2.53,1c-1.89-.07-6.65-1.78-6.65-1.78Z" transform="translate(-224.64 -269.85)"/><polygon class="cls-11" points="788.98 414.37 910.11 413.52 945.91 322.65 824.97 323.5 788.98 414.37"/><polygon class="cls-11" points="911.5 409.98 751.56 411.11 751.58 414.63 910.11 413.52 911.5 409.98"/><path class="cls-1" d="M1103.85,638.28c0.89-3.19-1-5.76-4.15-5.74a8.26,8.26,0,0,0-7.38,5.82c-0.89,3.19,1,5.76,4.15,5.74A8.26,8.26,0,0,0,1103.85,638.28Z" transform="translate(-224.64 -269.85)"/><path class="cls-32" d="M2107.52,973.71c-15.34-5.09-26,1.33-26,1.33-44.16,1.82-45.8,47.08-40.62,63.93,7.28,23.66-18.48,42.32,10.09,51.89,33.15,11.11,61-6.43,59.08-.71C2215,1098.42,2142.4,985.3,2107.52,973.71Z" transform="translate(-224.64 -269.85)"/><path class="cls-8" d="M2061.71,1193.88a115.76,115.76,0,0,1-11.81,17.86c-9.17,11.49-57.33-15.78-53.18-17.86s27.6-68.64,37.52-80.44a42.26,42.26,0,0,1,22-13.41Z" transform="translate(-224.64 -269.85)"/><path class="cls-33" d="M2224.2,1664s13.29,12.13,10.7,20.75-14.59,14.36-16.21,24.9-8.1,16.28-13.94,16.28h-27.82s-4.29-7.41,6.08-9.65,14.28-14.61,13.64-26.1,1-26.81,1-26.81l22-5.11Z" transform="translate(-224.64 -269.85)"/><path class="cls-33" d="M2111.72,1669.18s4.78,51.38-1.05,54.25l-74.67-.15s0-8.62,12-10.53,33.06-8.94,36.63-24.58S2111.72,1669.18,2111.72,1669.18Z" transform="translate(-224.64 -269.85)"/><path class="cls-8" d="M2169.16,1159.23a297.51,297.51,0,0,1,0,34.51c-0.74,12.48-13.36,29.19-15.15,33.33-4.49,10.37-9.56,12.06-9.56,12.06l-39.21,9.61-13.79,3.37-43.47-13s-19.8-55.27-11.85-86.38,20.1-52.71,20.1-52.71,29.54-6.64,81.66-2.94Z" transform="translate(-224.64 -269.85)"/><path class="cls-34" d="M2172.89,1194.18c-0.74,12.48-17.1,28.76-18.89,32.89-4.49,10.37-9.56,12.06-9.56,12.06l-39.21,9.61L2094.78,1234s63.47-17.65,51.45-73.61Z" transform="translate(-224.64 -269.85)"/><path class="cls-29" d="M2050.74,1247.51s-21.53,67-22.91,89.82,41.15,324.1,42.86,334.61c1.61,9.91,13.92,16.23,13.92,16.23s5.66,3.34,13.74,1.06c11.2-3.16,14.75-7,14.75-7s16.76-214.87,6.39-291.63A1215.63,1215.63,0,0,1,2109,1247.51h-58.25Z" transform="translate(-224.64 -269.85)"/><path class="cls-15" d="M2142,1245.52s32.84,44.06,35.9,73.85,4.8,134.41,11.33,163.44,30.49,84.91,30.49,175.48c0,0-2.49,5.19-10.18,8a83.88,83.88,0,0,1-9,2.48,14.08,14.08,0,0,1-15.74-7.47c-16.2-32.62-67.81-137.83-70.45-159.66-1.87-15.45-18.17-117.74-53.71-177.76-8.53-14.41,5.24-71.71,5.24-71.71Z" transform="translate(-224.64 -269.85)"/><path class="cls-34" d="M2047.31,1237.17s8.64,6.84,25.81,7.18c20.51,0.41,71.32-5.23,71.32-5.23a42,42,0,0,1,2.17,13s-62.06,15.66-98,2.29C2048.58,1254.38,2043.95,1245.65,2047.31,1237.17Z" transform="translate(-224.64 -269.85)"/><path class="cls-16" d="M2068.2,1262c-5.16,0-9.36-4.75-9.36-10.59s4.2-10.59,9.36-10.59,9.36,4.75,9.36,10.59S2073.36,1262,2068.2,1262Zm0-18.08c-3.45,0-6.26,3.36-6.26,7.49s2.81,7.49,6.26,7.49,6.26-3.36,6.26-7.49S2071.65,1243.94,2068.2,1243.94Z" transform="translate(-224.64 -269.85)"/><polygon class="cls-35" points="1888.4 1011.44 1795.12 1012.31 1749.21 904.44 1842.49 903.57 1888.4 1011.44"/><path class="cls-12" d="M2100.83,1232.54l-6.84-8.4s-4.63-4.13-8-4.83-10.45-4.79-11.14-3.64,5.45,9.37,5.45,9.37l0.31,0c-7,5.3-24.82.62-27,2.78-2.66,2.62,3.66,8.28,7.05,11.46s13.09,8.48,20.65,6.13c5.53-1.72,14.23-3.47,14.23-3.47Z" transform="translate(-224.64 -269.85)"/><path class="cls-12" d="M1980.87,1193.27s5.86-6.66,9.59-3.46-1,18.92-4.53,17.32S1978.83,1195.22,1980.87,1193.27Z" transform="translate(-224.64 -269.85)"/><path class="cls-8" d="M2137.89,1097.09s31.1,2.18,43,31.17,33.84,76.69,29.13,96.68c-1.88,8-24.54,35.57-119,18,0,0,.77-9.89,7.16-14.52,0,0,66.59-21.38,66.47-25.63-0.22-8-9-15-46.19-52.2C2108.33,1140.5,2137.89,1097.09,2137.89,1097.09Z" transform="translate(-224.64 -269.85)"/><path class="cls-12" d="M2117.34,1098.5c0.92-1.23-.26-5.15-1.73-12.46-1.33-6.62-3.58-16.85-3.53-28.37l-2,.33-33.1,5.57s0.75,8.85.78,17.19c0,0.07,0,.14,0,0.21,0,7.24-2,18.18.49,19.61C2090.81,1107.92,2113.81,1103.24,2117.34,1098.5Z" transform="translate(-224.64 -269.85)"/><path class="cls-36" d="M2077,1063.57s0.66,12.48.68,20.81c18.52-.44,28.4-18.43,32.42-26.38Z" transform="translate(-224.64 -269.85)"/><path class="cls-12" d="M2075,1078.45s43.39-6.18,39.12-33.14-1.54-45.91-29.42-43.11-31.62,13.94-32.39,23.29S2063.62,1079.37,2075,1078.45Z" transform="translate(-224.64 -269.85)"/><path class="cls-32" d="M2064.9,1004.68s16.89,29.74,35.81,31.51,26-4.35,26-4.35a52.15,52.15,0,0,1-21.69-27.74S2071.44,988.21,2064.9,1004.68Z" transform="translate(-224.64 -269.85)"/><path class="cls-32" d="M2068.25,1006.78s-8.26,4.68-10.86,11.67a44.11,44.11,0,0,0-1.91,25.68s-12.35-20.07-4.26-33.83C2059.81,995.71,2068.25,1006.78,2068.25,1006.78Z" transform="translate(-224.64 -269.85)"/><rect class="cls-37" y="1451.71" width="2556.33" height="7.02" rx="2.95" ry="2.95"/></svg>