<svg id="_лой_1" data-name="‘лой_1" xmlns="http://www.w3.org/2000/svg" viewBox="0 0 3000 3000"><defs><style>.cls-1{fill:#fff;}.cls-2{fill:#ebf3fa;}.cls-3,.cls-4{fill:#cddff9;}.cls-3{opacity:0.4;}.cls-5{fill:#dfebfd;}.cls-27,.cls-6{opacity:0.5;}.cls-7{fill:#aac9f5;}.cls-8{fill:#cde0fb;}.cls-9{fill:#2b478b;}.cls-10{fill:#dde7fe;}.cls-11{fill:#aec3ff;}.cls-12{fill:#233862;}.cls-13{fill:#ffb27d;}.cls-14{fill:#ed985f;}.cls-15{fill:#2c3a64;}.cls-16{fill:#f99746;}.cls-17{fill:#cfdeff;}.cls-18{fill:#1f1f89;}.cls-19{fill:#f78248;}.cls-20{fill:#f77d48;}.cls-21{fill:#ffb93e;}.cls-22{fill:#ffa412;}.cls-23{fill:#ffeddc;}.cls-24{fill:#db6a1d;}.cls-25{fill:#e5c1a1;}.cls-26{fill:#f9ddbf;}.cls-27,.cls-28{fill:#e2810e;}.cls-29{fill:#ed7d2b;}.cls-30{fill:#ed975d;}.cls-31{fill:#8ea3ed;}.cls-32{fill:#2a539b;}.cls-33{fill:#4075c1;}.cls-34{fill:#163560;}.cls-35{fill:#d35b31;}.cls-36{fill:#e8945b;}</style></defs><title>tentang</title><rect class="cls-1" width="3000" height="3000"/><path class="cls-2" d="M227.81,2306.76s-317.94-304.31,4.54-744.88c288.14-393.66,73-581.74,368.73-773.55,298.94-193.89,553.29-75.8,839.43,74.09s681.3-208.93,1108.24-18.17,365.56,482.36,259.95,782.16c-89.15,253.08,181.95,435.95,34.07,680.79C2842.78,2307.19,218.73,2297.67,227.81,2306.76Z"/><path class="cls-3" d="M1866.84,1202.17s45-188.74,195.38-209.14c0,0,29.25-3.52,38.91,28.71s-48.49,32.32-84.46,45.18S1896.77,1134.49,1866.84,1202.17Z"/><path class="cls-3" d="M1869.6,1237.94s86.21-173.83,237.32-160c0,0,29.3,3.13,31.48,36.7s-54.5,20.62-92.45,25.08S1913.95,1178.7,1869.6,1237.94Z"/><path class="cls-4" d="M2323.36,1961.89s45-188.74,195.38-209.14c0,0,29.25-3.52,38.91,28.71s-48.49,32.32-84.46,45.18S2353.28,1894.22,2323.36,1961.89Z"/><path class="cls-5" d="M2328.21,1900s-24.67-192.46,108.75-264.74c0,0,26.12-13.64,46.55,13.08s-33.92,47.38-63,72.14S2332.26,1826.1,2328.21,1900Z"/><path class="cls-5" d="M2779.52,1939.76c-16.95-72-138.28-53.78-138.28-53.78s-86.08,122.13-110,124.31,53.18-118.78,53.18-118.78c-46-6-165.51,46.52-165.51,46.52s2.53,146-21.18,142.18,4.36-129.35,4.36-129.35c-45.11,11.88-88.55,62.51-88.55,62.51-55,83,54.59,149.2,54.59,149.2s-0.22,50.6-33.43,107.53h0s-7.42,10.47-15.2,28.42l12.18,0.41q1.66-4.84,3.62-9.33a0.07,0.07,0,0,1,0-.05l0.06-.13c0.9-1.85,2.19-4.48,3.79-7.69h0v0c4-7.15,6.66-12.43,8.38-16.26v0c11.92-22.45,29-51.66,39.89-57.54a23.58,23.58,0,0,1-2.42-5.66l2.42,5.66c19.34,45.31,123.29,56.25,181.75,46.31s33.7-27.15,3.33-54.74-96.1-22.81-115.11-33.87,9.63-20.51,48.24-16.24,56.66,43.59,119,51.64,113.92-107.8,113.92-107.8c-43.62,11.93-120.23-14.47-122.71-29.44s112.1-9.62,130.11-13.48S2796.47,2011.78,2779.52,1939.76Z"/><path class="cls-5" d="M548.35,1306.09c16.95-72,138.28-53.78,138.28-53.78s86.08,122.13,110,124.31-53.18-118.78-53.18-118.78c46-6,165.51,46.52,165.51,46.52s-2.53,146,21.18,142.18-4.36-129.35-4.36-129.35c45.11,11.88,88.55,62.51,88.55,62.51,55,83-54.59,149.2-54.59,149.2s0.21,50.6,33.43,107.53h0s7.42,10.47,15.2,28.42l-12.18.41q-1.66-4.84-3.62-9.33a0.07,0.07,0,0,0,0-.05l-0.06-.13c-0.9-1.85-2.19-4.48-3.79-7.69h0v0c-4-7.15-6.66-12.43-8.38-16.26v0c-11.92-22.46-29-51.66-39.89-57.54a23.59,23.59,0,0,0,2.42-5.67l-2.42,5.67c-19.34,45.31-123.29,56.25-181.75,46.31s-33.7-27.15-3.33-54.74,96.1-22.81,115.11-33.87-9.63-20.51-48.24-16.24-56.66,43.59-119,51.64-113.92-107.8-113.92-107.8c43.62,11.93,120.23-14.47,122.71-29.44s-112.1-9.62-130.11-13.48S531.4,1378.11,548.35,1306.09Z"/><path class="cls-5" d="M1286.24,954.09c35.62-68.24,153.24-18.63,153.24-18.63s55.35,145.28,78.9,153.62-23-133.43-23-133.43c47.92,5.77,154.87,89.49,154.87,89.49s-40.12,146.49-15.24,148.79,28.9-131.52,28.9-131.52c42.42,23.58,73.17,85.81,73.17,85.81,34,97.81-93.43,136.36-93.43,136.36s-12.81,51.07,6,117h0s4.78,12.46,8,32.57l-12.38-2.72c-0.28-3.54-.69-7-1.25-10.34a0.07,0.07,0,0,0,0-.06l0-.14c-0.43-2.1-1-5.08-1.84-8.73h0s0,0,0,0c-2.16-8.23-3.51-14.25-4.26-18.55a0.17,0.17,0,0,1,0,0c-6.23-25.7-15.91-59.53-25.41-68.27a24.54,24.54,0,0,0,3.9-5.09l-3.9,5.09c-31.16,40.7-138.77,25-195.14-.09s-27-36,10.73-56,102.75,1.74,124.75-4.52-4.43-23.16-44.45-28.78-68.33,29.36-133.23,21.44-87.09-138-87.09-138c40.91,23.25,124.93,16.36,131.28,1.9s-110.53-38.55-127.7-47.08S1250.62,1022.33,1286.24,954.09Z"/><g class="cls-6"><path class="cls-7" d="M2699.54,1056l68.8,263.21a21.9,21.9,0,0,1-15.6,26.64L2291,1466.56a21.9,21.9,0,0,1-26.64-15.6l-68.8-263.21a21.9,21.9,0,0,1,15.6-26.64l461.73-120.7A21.9,21.9,0,0,1,2699.54,1056Z"/><path class="cls-8" d="M2508.08,1353.58L2385,1385.75a9.81,9.81,0,0,1-11.94-7l-0.31-1.18a9.81,9.81,0,0,1,7-11.94l123.06-32.17a9.81,9.81,0,0,1,11.94,7l0.31,1.18A9.81,9.81,0,0,1,2508.08,1353.58Z"/><path class="cls-8" d="M2443.7,1233.46a23.67,23.67,0,0,1,.54,11.64,10.72,10.72,0,0,1-18.24,4.77,23.67,23.67,0,0,1-5.23-10.42q-1.76-6.73-.57-11.59a10.8,10.8,0,0,1,18.32-4.79Q2441.94,1226.74,2443.7,1233.46Zm-5.65,1.45a23.47,23.47,0,0,0-2.81-6.84q-2.6-3.92-5.94-3t-3.75,5.53a22.68,22.68,0,0,0,.87,7.4q3,11.48,8.86,10,3.39-.88,3.68-5.61A23.36,23.36,0,0,0,2438,1234.92Z"/><path class="cls-8" d="M2469,1226.86a23.67,23.67,0,0,1,.54,11.64,10.72,10.72,0,0,1-18.24,4.77,23.67,23.67,0,0,1-5.23-10.42q-1.76-6.73-.57-11.59a10.8,10.8,0,0,1,18.32-4.79Q2467.2,1220.13,2469,1226.86Zm-5.65,1.45a23.47,23.47,0,0,0-2.81-6.84q-2.6-3.92-5.94-3t-3.75,5.53a22.67,22.67,0,0,0,.87,7.39q3,11.48,8.86,10,3.39-.89,3.68-5.61A23.36,23.36,0,0,0,2463.31,1228.31Z"/><path class="cls-8" d="M2507.26,1216.85a23.68,23.68,0,0,1,.54,11.64,10.72,10.72,0,0,1-18.24,4.77,23.67,23.67,0,0,1-5.23-10.42q-1.76-6.73-.57-11.59a10.8,10.8,0,0,1,18.32-4.79Q2505.5,1210.12,2507.26,1216.85Zm-5.65,1.45a23.47,23.47,0,0,0-2.81-6.84q-2.6-3.92-5.94-3t-3.75,5.53a22.66,22.66,0,0,0,.87,7.39q3,11.48,8.86,10,3.39-.89,3.68-5.61A23.4,23.4,0,0,0,2501.61,1218.3Z"/><path class="cls-8" d="M2532.52,1210.24q1.76,6.73.54,11.64a10.72,10.72,0,0,1-18.23,4.77,23.68,23.68,0,0,1-5.23-10.42q-1.76-6.73-.57-11.59a10.8,10.8,0,0,1,18.32-4.79Q2530.76,1203.52,2532.52,1210.24Zm-5.65,1.45a23.47,23.47,0,0,0-2.81-6.84q-2.6-3.92-5.94-3t-3.75,5.53a22.65,22.65,0,0,0,.87,7.4q3,11.48,8.86,10,3.39-.89,3.68-5.61A23.35,23.35,0,0,0,2526.87,1211.7Z"/><path class="cls-8" d="M2557.79,1203.64q1.76,6.73.54,11.64a10.72,10.72,0,0,1-18.23,4.77,23.67,23.67,0,0,1-5.23-10.42q-1.76-6.73-.57-11.59a10.8,10.8,0,0,1,18.32-4.79Q2556,1196.91,2557.79,1203.64Zm-5.65,1.45a23.44,23.44,0,0,0-2.81-6.84q-2.6-3.92-5.94-3t-3.75,5.53a22.68,22.68,0,0,0,.87,7.39q3,11.48,8.86,10,3.39-.89,3.68-5.61A23.39,23.39,0,0,0,2552.14,1205.09Z"/><path class="cls-8" d="M2583.06,1197a23.67,23.67,0,0,1,.54,11.64,10.72,10.72,0,0,1-18.23,4.77,23.67,23.67,0,0,1-5.23-10.42q-1.76-6.73-.57-11.59a10.8,10.8,0,0,1,18.32-4.79Q2581.3,1190.31,2583.06,1197Zm-5.65,1.45a23.44,23.44,0,0,0-2.81-6.84q-2.6-3.92-5.94-3t-3.75,5.53a22.68,22.68,0,0,0,.87,7.39q3,11.48,8.86,10,3.39-.89,3.68-5.61A23.39,23.39,0,0,0,2577.41,1198.49Z"/><path class="cls-8" d="M2621.35,1187q1.76,6.73.54,11.64a10.72,10.72,0,0,1-18.23,4.77,23.67,23.67,0,0,1-5.23-10.42q-1.76-6.73-.57-11.59a10.8,10.8,0,0,1,18.32-4.79Q2619.59,1180.3,2621.35,1187Zm-5.65,1.45a23.46,23.46,0,0,0-2.81-6.84q-2.6-3.92-5.94-3t-3.75,5.53a22.68,22.68,0,0,0,.87,7.4q3,11.48,8.86,10,3.39-.89,3.68-5.61A23.38,23.38,0,0,0,2615.7,1188.48Z"/><path class="cls-8" d="M2646.62,1180.42q1.76,6.73.54,11.64a10.72,10.72,0,0,1-18.23,4.77,23.68,23.68,0,0,1-5.23-10.42q-1.76-6.73-.57-11.59a10.8,10.8,0,0,1,18.32-4.79Q2644.86,1173.69,2646.62,1180.42Zm-5.65,1.45a23.47,23.47,0,0,0-2.81-6.84q-2.6-3.92-5.94-3t-3.75,5.53a22.68,22.68,0,0,0,.87,7.39q3,11.48,8.86,10,3.39-.89,3.68-5.61A23.39,23.39,0,0,0,2641,1181.87Z"/><path class="cls-8" d="M2671.89,1173.82q1.76,6.73.54,11.64a10.72,10.72,0,0,1-18.23,4.77,23.68,23.68,0,0,1-5.23-10.42q-1.76-6.73-.57-11.59a10.8,10.8,0,0,1,18.32-4.79Q2670.13,1167.09,2671.89,1173.82Zm-5.65,1.45a23.5,23.5,0,0,0-2.81-6.84q-2.6-3.92-5.94-3t-3.75,5.53a22.62,22.62,0,0,0,.87,7.39q3,11.48,8.86,10,3.39-.88,3.68-5.61A23.39,23.39,0,0,0,2666.24,1175.27Z"/><path class="cls-8" d="M2697.15,1167.21q1.76,6.73.54,11.64a10.72,10.72,0,0,1-18.23,4.77,23.66,23.66,0,0,1-5.23-10.42q-1.76-6.73-.57-11.59a10.8,10.8,0,0,1,18.32-4.79Q2695.4,1160.48,2697.15,1167.21Zm-5.65,1.45a23.47,23.47,0,0,0-2.81-6.84q-2.6-3.92-5.94-3t-3.75,5.53a22.68,22.68,0,0,0,.87,7.39q3,11.48,8.86,10,3.39-.89,3.68-5.61A23.39,23.39,0,0,0,2691.5,1168.66Z"/><path class="cls-8" d="M2364,1164.15l-120.43,31.48a9.81,9.81,0,0,1-11.94-7h0a9.81,9.81,0,0,1,7-11.94L2359,1145.22a9.81,9.81,0,0,1,11.94,7h0A9.81,9.81,0,0,1,2364,1164.15Z"/><path class="cls-8" d="M2655.32,1109.52a15,15,0,0,0-5.57-8.26,1.6,1.6,0,0,0-2.35.49l-0.41.72a1.59,1.59,0,0,0,.41,2.06,11,11,0,0,1,3.45,13.22,1.59,1.59,0,0,0,.65,2l0.71,0.43a1.6,1.6,0,0,0,2.29-.72A15,15,0,0,0,2655.32,1109.52Z"/><path class="cls-8" d="M2663.12,1107.48a23,23,0,0,0-9.44-13.29,1.59,1.59,0,0,0-2.26.55l-0.23.41a1.61,1.61,0,0,0,.51,2.13,19.39,19.39,0,0,1,6.46,24.71,1.6,1.6,0,0,0,.6,2.1l0.4,0.24a1.59,1.59,0,0,0,2.24-.63A23,23,0,0,0,2663.12,1107.48Z"/><path class="cls-8" d="M2670,1105.69A30.06,30.06,0,0,0,2657.2,1088a1.6,1.6,0,0,0-2.25.55h0a1.59,1.59,0,0,0,.52,2.13,26.91,26.91,0,0,1,9.18,35.13,1.6,1.6,0,0,0,.59,2.11h0a1.6,1.6,0,0,0,2.24-.62A30.06,30.06,0,0,0,2670,1105.69Z"/><path class="cls-8" d="M2677.37,1103.76a37.67,37.67,0,0,0-16.36-22.37,1.61,1.61,0,0,0-2.25.56l-0.4.71a1.59,1.59,0,0,0,.53,2.14,33.76,33.76,0,0,1,11.65,44.55,1.59,1.59,0,0,0,.59,2.12l0.7,0.42a1.61,1.61,0,0,0,2.24-.62A37.67,37.67,0,0,0,2677.37,1103.76Z"/></g><rect class="cls-9" x="831.75" y="1244.35" width="1522.78" height="1033.82" rx="33.78" ry="33.78"/><rect class="cls-10" x="866.1" y="1280.47" width="1454.09" height="987.19"/><rect class="cls-9" x="650.69" y="2237.99" width="1884.9" height="66.18" rx="24.29" ry="24.29"/><rect class="cls-11" x="866.1" y="1280.47" width="1454.09" height="960.96"/><path class="cls-12" d="M381.14,2309s0-14.23,2.15-19,10-24,10-24h30.76s5.72,17.57,6.08,23.32,0,19.63,0,19.63h-49Z"/><path class="cls-12" d="M576.45,2309s0-14.23-2.15-19-10-24-10-24H533.53s-5.72,17.57-6.08,23.32,0,19.63,0,19.63h49Z"/><path class="cls-13" d="M453.22,1510.44s-1.08,31.68-5.38,45.87l-34,22.39,127.87,18.08L511.25,1557s-9.21-42.48-4.38-58.19S453.22,1510.44,453.22,1510.44Z"/><path class="cls-14" d="M453,1514.81s10.11,23,29.16,22.49,23.38-20.86,23.38-20.86Z"/><path class="cls-15" d="M441.66,1496.19s-6.15-29-10.44-37.8-7.87-48,39.7-50c0,0,18.24,2,28.26-3.72,0,0,0,5.74-2.5,7.77a32.86,32.86,0,0,1,29.33,9.8c12.88,13.52-8.58,60.83-7.51,72Z"/><path class="cls-13" d="M480,1528.42c-13.8-.23-39.2-17.59-39.2-39.09v-33.55c0-7.85,5.79-14.27,12.88-14.27h52.65c7.08,0,12.88,6.42,12.88,14.27v31.65C519.21,1510,495.84,1528.68,480,1528.42Z"/><path class="cls-15" d="M440.8,1473.69s0.07-20.16,17-23.26,54.73,9.83,60.09-4.87-73.11-14.45-77.06-5.07S440.8,1473.69,440.8,1473.69Z"/><path class="cls-9" d="M385,1816.28s5.38,155.27-2.67,243.86,0.06,211.89.06,211.89,25.74,13.41,53.64,0c0,0,30.6-171.15,30.4-211.89-0.21-43.38,33.3-237.09,33.3-237.09Z"/><path class="cls-9" d="M575.34,2272s-25.73,13.41-53.63,0c0,0-30.59-171.15-30.4-211.88,0.09-18.32-5.84-63.46-12.72-109.49-9.41-63-20.59-127.6-20.59-127.6l119.18-7s-9.83,155.54-1.78,244.12S575.34,2272,575.34,2272Z"/><path class="cls-16" d="M575.76,1842.11s-50.81,9.3-97.17,9.3c-20.22,0-42.18-2.1-59.67-4.31-19.34-2.42-33.2-5-33.2-5s-10.3.85-4.22-47.13c4.62-36.52,3.18-69.49,2.15-103.41-0.12-3.77,0-8.23.21-13.2,2-39.55,14.64-110.75,24.28-114.57,0,0,14.35-5,39.69-7.49,0,0.47,14.71,20.78,32.17,23.06,10.85-4.06,19.37-7.51,31.24-22.41a357.93,357.93,0,0,1,49,8.92s1.82,7.54,8.71,138.4C571.66,1756.13,590.39,1842.28,575.76,1842.11Z"/><path class="cls-12" d="M491.31,2060.14c0.09-18.32-5.84-63.46-12.72-109.49,7.14-27.49,24.52-54,24.52-54C525.11,1955,491.31,2060.14,491.31,2060.14Z"/><path class="cls-16" d="M336.69,1719.57c-1.21,1,3,10.85,9.24,23.74,12.81,26.49,34.09,65.61,34.09,65.61a111.8,111.8,0,0,1-6.46,17.86c-35.8-26.57-58.88-49.18-73.61-66.52-20.71-24.38-25-38.36-25-38.36C354.7,1568.63,410.79,1563,410.79,1563l-6.63,101.3S340.38,1716.67,336.69,1719.57Z"/><path class="cls-13" d="M375.78,1810.86s19.32-16.9,27.18-7.44,9.3,24.33,3.22,23.32-18.6-6.42-20.39-3.72-9.8,7.87-12.23,3.77S375.78,1810.86,375.78,1810.86Z"/><path class="cls-13" d="M380,1808.93a111.8,111.8,0,0,1-6.46,17.86c-35.8-26.57-58.88-49.18-73.61-66.52,11.11-.78,27.32-4.53,46-17C358.74,1769.81,380,1808.93,380,1808.93Z"/><path class="cls-16" d="M687.87,1721.92s-4.25,14-25,38.36c-14.73,17.34-37.81,39.94-73.61,66.52a111.8,111.8,0,0,1-6.46-17.86s21.28-39.12,34.09-65.61c6.22-12.9,10.45-22.79,9.24-23.74-2.86-2.25-41.83-34.24-59.21-48.5l-8.26-6.79-4-99.8S608.17,1568.63,687.87,1721.92Z"/><path class="cls-13" d="M587.09,1810.86s-19.32-16.9-27.18-7.44-9.3,24.33-3.22,23.32,18.6-6.42,20.39-3.72,9.8,7.87,12.23,3.77S587.09,1810.86,587.09,1810.86Z"/><path class="cls-13" d="M582.84,1808.93a111.8,111.8,0,0,0,6.46,17.86c35.8-26.57,58.88-49.18,73.61-66.52-11.11-.78-27.32-4.53-46-17C604.12,1769.81,582.84,1808.93,582.84,1808.93Z"/><path class="cls-9" d="M449.62,1548.59a13.14,13.14,0,0,0-7.29,8.32S465.11,1579,480,1579.38Z"/><path class="cls-9" d="M480,1579.38l29.4-31.91s6.07,3.77,6,10C515.39,1557.45,492.65,1580.22,480,1579.38Z"/><path class="cls-9" d="M474.71,1577s-22.44,183-14.62,205.3a148.77,148.77,0,0,0,13.68,28.35,8.19,8.19,0,0,0,13.76,0c6-9.77,13.74-23.91,13.74-31.09,0-11.63-17-202.69-17-202.69Z"/><path class="cls-9" d="M468.84,1568.06s13.56-1.28,21.82-.49a2.15,2.15,0,0,1,1.75,3.21c-2.31,3.94-7,10.76-12,10.76C473.5,1581.53,462.69,1568.51,468.84,1568.06Z"/><path class="cls-1" d="M469,1506.8a15.34,15.34,0,0,0,11.81,5.3,14.21,14.21,0,0,0,11-5.3S479.19,1504.84,469,1506.8Z"/><rect class="cls-17" x="1208.67" y="1168.47" width="940.4" height="1001.44"/><rect class="cls-9" x="1703.14" y="1989.67" width="179.74" height="11.63" rx="0.25" ry="0.25"/><rect class="cls-9" x="1703.14" y="1963.24" width="224.26" height="11.63" rx="0.24" ry="0.24"/><rect class="cls-11" x="1290.24" y="1337.58" width="777.25" height="546.85"/><rect class="cls-18" x="1472.5" y="1306.71" width="1.25" height="577.71"/><rect class="cls-18" x="1959.21" y="1306.71" width="1.25" height="577.71"/><rect class="cls-18" x="1555.15" y="1306.71" width="1.25" height="577.71"/><rect class="cls-18" x="1290.24" y="1782.11" width="777.25" height="1.25"/><rect class="cls-18" x="1290.24" y="1667.66" width="777.25" height="1.25"/><rect class="cls-18" x="1290.24" y="1553.22" width="777.25" height="1.25"/><rect class="cls-18" x="1290.24" y="1438.77" width="777.25" height="1.25"/><rect class="cls-19" x="1290.24" y="1238.69" width="777.25" height="110.97"/><path class="cls-20" d="M1994.13,2075.9c-17.52,5.36-34.62,8.16-48.06,7.11-20.49-1.61-32-11.75-32.48-28.55-0.37-13.33,5.5-25,17-34.47-0.11-.91-0.2-1.82-0.27-2.73-0.75-9.4,1.37-15.64,6.32-18.56,8-4.71,19.89,1.73,20.39,2l-2.66,4.29c-2.66-1.46-10.57-4.68-14.95-2.08-3.77,2.23-4.23,8.38-3.89,13.38,9.34-6.38,21.55-11.6,36.43-15.4a205.83,205.83,0,0,1,34.32-5.54,29.83,29.83,0,0,1,.3-3.07c0.36-2.31,1.21-5,3.61-5.55,0.91-.19,2.67-0.17,4.24,2.1a11.45,11.45,0,0,1,1.61,6c3.81-.08,7.36,0,10.5.2l0.09-.19a53.8,53.8,0,0,1,.81-17.31c1.33-5.75,3.52-8.66,6.58-8.94a4,4,0,0,1,4.17,2.44c1.72,3.9-1.5,14.44-6.15,24.55v0.05c4.36,0.7,7.33,1.84,8.26,3.43a3.57,3.57,0,0,1-1.06,4.66c-3.52,3.06-6.34,2.29-7.7,1.56a7.26,7.26,0,0,1-2.82-3c-3.52,6.58-7.36,12.2-10.37,14.59a5.42,5.42,0,0,1-6.12.84,5.6,5.6,0,0,1-1.33-1,66.52,66.52,0,0,1-4,7.83c-5.5,9.13-11.7,13.82-17.93,13.54a10.43,10.43,0,0,1-6.71-2.81,91.34,91.34,0,0,1-12.07,18.75c-4.38,5.09-10,7-15.72,5.26-10.21-3-19.44-17-22.9-33.48-8.72,8.06-13,17.6-12.68,28.54,0.39,14.33,9.7,22.31,27.66,23.73,45.33,3.56,124.82-36.24,130.85-65.53h0C2072.45,2036.34,2034.74,2063.47,1994.13,2075.9Zm-58-53.93c2.76,17.43,12,30.24,19.84,32.55,3.68,1.09,7.07-.15,10.06-3.65a84.65,84.65,0,0,0,12.67-20.46,29,29,0,0,1-2.19-6.49c-1.27-5.75-1.48-13.63,0-19a138.34,138.34,0,0,0-24.81,8.16A82.4,82.4,0,0,0,1936.15,2022Zm48.39,8.15a6.06,6.06,0,0,0,4.63,3c4,0.16,8.78-3.85,13.12-11a63.89,63.89,0,0,0,5.43-11.58,46.47,46.47,0,0,1-1.48-10.1c-5.83.44-12.19,1.19-18.74,2.31C1990.91,2009,1988.94,2019.56,1984.54,2030.13Zm28.67-19.55c0.82,2.34,1.55,2.79,1.56,2.79,2.94-2.38,6.3-7.56,9.36-13.44-2.5-.09-5.31-0.1-8.38,0A57.82,57.82,0,0,1,2013.21,2010.57Zm-30.89-6.39c-1.34,2.64-2.3,11.08-.67,18.59C1984.29,2014.53,1984.83,2007.41,1982.32,2004.18Zm51.81-3.17h0Zm-0.78-25.5a29.45,29.45,0,0,0-1.25,5.2A36.47,36.47,0,0,0,2033.35,1975.51Z"/><path class="cls-20" d="M1149.29,2306.62L752,2304.15a32.06,32.06,0,0,1-31.86-32.26l2.6-417.53A32.06,32.06,0,0,1,755,1822.49l397.25,2.47a32.06,32.06,0,0,1,31.86,32.26l-2.6,417.53A32.06,32.06,0,0,1,1149.29,2306.62Z"/><path class="cls-11" d="M1143.27,1934.28l-380.58-2.37a14.1,14.1,0,0,1-14-14.19l0.3-48.32a14.1,14.1,0,0,1,14.19-14l380.58,2.37a14.1,14.1,0,0,1,14,14.19l-0.3,48.33A14.1,14.1,0,0,1,1143.27,1934.28Z"/><path class="cls-9" d="M890,2120.37l-32.58-.2a14.74,14.74,0,0,1-14.65-14.83l0.2-32.58a14.74,14.74,0,0,1,14.83-14.65l32.58,0.2a14.74,14.74,0,0,1,14.65,14.83l-0.2,32.58A14.74,14.74,0,0,1,890,2120.37Z"/><path class="cls-9" d="M889.54,2196.53l-32.58-.2a14.74,14.74,0,0,1-14.65-14.83l0.2-32.58a14.74,14.74,0,0,1,14.83-14.65l32.58,0.2a14.74,14.74,0,0,1,14.65,14.83l-0.2,32.58A14.74,14.74,0,0,1,889.54,2196.53Z"/><path class="cls-9" d="M889.07,2272.69l-32.58-.2a14.74,14.74,0,0,1-14.65-14.83l0.2-32.58a14.74,14.74,0,0,1,14.83-14.65l32.58,0.2a14.74,14.74,0,0,1,14.65,14.83L903.9,2258A14.74,14.74,0,0,1,889.07,2272.69Z"/><path class="cls-9" d="M972,2120.88l-32.58-.2a14.74,14.74,0,0,1-14.65-14.83l0.2-32.58a14.74,14.74,0,0,1,14.83-14.65l32.58,0.2a14.74,14.74,0,0,1,14.65,14.83l-0.2,32.58A14.74,14.74,0,0,1,972,2120.88Z"/><path class="cls-9" d="M971.56,2197l-32.58-.2A14.74,14.74,0,0,1,924.33,2182l0.2-32.58a14.74,14.74,0,0,1,14.83-14.65l32.58,0.2a14.74,14.74,0,0,1,14.65,14.83l-0.2,32.58A14.74,14.74,0,0,1,971.56,2197Z"/><path class="cls-9" d="M971.09,2273.2l-32.58-.2a14.74,14.74,0,0,1-14.65-14.83l0.2-32.58a14.74,14.74,0,0,1,14.83-14.65l32.58,0.2A14.74,14.74,0,0,1,986.13,2226l-0.2,32.58A14.74,14.74,0,0,1,971.09,2273.2Z"/><path class="cls-9" d="M1050.66,2197.53l-32.58-.2a14.74,14.74,0,0,1-14.65-14.83l0.2-32.58a14.74,14.74,0,0,1,14.83-14.65l32.58,0.2a14.74,14.74,0,0,1,14.65,14.83l-0.2,32.58A14.74,14.74,0,0,1,1050.66,2197.53Z"/><path class="cls-9" d="M1050.18,2273.7l-32.58-.2a14.74,14.74,0,0,1-14.65-14.83l0.2-32.58a14.74,14.74,0,0,1,14.83-14.65l32.58,0.2a14.74,14.74,0,0,1,14.65,14.83L1065,2259A14.74,14.74,0,0,1,1050.18,2273.7Z"/><path class="cls-16" d="M812.21,2030.46l-32.58-.2A14.74,14.74,0,0,1,765,2015.42l0.12-19.33a14.74,14.74,0,0,1,14.83-14.65l32.58,0.2a14.74,14.74,0,0,1,14.65,14.83L827,2015.81A14.74,14.74,0,0,1,812.21,2030.46Z"/><path class="cls-16" d="M811.71,2110.32l-32.58-.2a14.74,14.74,0,0,1-14.65-14.83L764.6,2076a14.74,14.74,0,0,1,14.83-14.65l32.58,0.2a14.74,14.74,0,0,1,14.65,14.83l-0.12,19.32A14.74,14.74,0,0,1,811.71,2110.32Z"/><path class="cls-16" d="M811.22,2190.18l-32.58-.2A14.74,14.74,0,0,1,764,2175.14l0.12-19.32a14.74,14.74,0,0,1,14.83-14.65l32.58,0.2a14.74,14.74,0,0,1,14.65,14.83L826,2175.52A14.74,14.74,0,0,1,811.22,2190.18Z"/><path class="cls-16" d="M810.72,2270l-32.58-.2A14.74,14.74,0,0,1,763.49,2255l0.12-19.32A14.74,14.74,0,0,1,778.44,2221l32.58,0.2a14.74,14.74,0,0,1,14.65,14.83l-0.12,19.32A14.74,14.74,0,0,1,810.72,2270Z"/><path class="cls-16" d="M890.49,2044.2l-32.58-.2a14.74,14.74,0,0,1-14.65-14.83l0.2-32.58a14.74,14.74,0,0,1,14.83-14.65l32.58,0.2A14.74,14.74,0,0,1,905.52,1997l-0.2,32.58A14.74,14.74,0,0,1,890.49,2044.2Z"/><path class="cls-16" d="M972.51,2044.71l-32.58-.2a14.74,14.74,0,0,1-14.65-14.83l0.2-32.58a14.74,14.74,0,0,1,14.83-14.65l32.58,0.2a14.74,14.74,0,0,1,14.65,14.83l-0.2,32.58A14.74,14.74,0,0,1,972.51,2044.71Z"/><path class="cls-16" d="M1051.61,2045.2L1019,2045a14.74,14.74,0,0,1-14.65-14.83l0.2-32.58a14.74,14.74,0,0,1,14.83-14.65l32.58,0.2a14.74,14.74,0,0,1,14.65,14.83l-0.2,32.58A14.74,14.74,0,0,1,1051.61,2045.2Z"/><path class="cls-16" d="M1125.46,2122.2l-32.58-.2a14.74,14.74,0,0,1-14.65-14.83l0.2-32.58a14.74,14.74,0,0,1,14.83-14.65l32.58,0.2A14.74,14.74,0,0,1,1140.5,2075l-0.2,32.58A14.74,14.74,0,0,1,1125.46,2122.2Z"/><path class="cls-16" d="M1125.94,2046l-32.58-.2A14.74,14.74,0,0,1,1078.7,2031l0.2-32.58a14.74,14.74,0,0,1,14.83-14.65l32.58,0.2A14.74,14.74,0,0,1,1141,1998.8l-0.2,32.58A14.74,14.74,0,0,1,1125.94,2046Z"/><path class="cls-16" d="M1124.51,2274.52l-32.58-.2a14.74,14.74,0,0,1-14.65-14.83l0.68-108.75a14.74,14.74,0,0,1,14.83-14.65l32.58,0.2a14.74,14.74,0,0,1,14.65,14.83l-0.68,108.75A14.74,14.74,0,0,1,1124.51,2274.52Z"/><path class="cls-9" d="M882.18,1893.78l0.06-10.44,1.52-4a3.19,3.19,0,0,1,2.47,2.5l-0.09,13.92-1,1Zm3,4,1,1L886,1912.69a3.19,3.19,0,0,1-2.5,2.47l-1.47-4,0.06-10.44Z"/><path class="cls-9" d="M899.64,1884.44l-0.06,9.44-3,3-1-1,0.08-12.92Zm-4.15,27.31,0.08-12.92,1-1,3,3-0.06,9.45Zm17.37,3.59-14.91-.09a3.19,3.19,0,0,1-2.47-2.5l4-1.47,11.93,0.08Zm-1.29-31.82-11.88-.07-4-1.52a3.19,3.19,0,0,1,2.5-2.47l14.86,0.09ZM912.5,1894l0.07-10.44,1.52-4a3.19,3.19,0,0,1,2.47,2.5L916.46,1896l-1,1Zm3,4,1,1-0.09,13.92a3.19,3.19,0,0,1-2.5,2.47l-1.47-4,0.06-10.44Z"/><path class="cls-9" d="M930,1884.63l-0.06,9.45-3,3-1-1,0.08-12.92Zm-4.15,27.31,0.08-12.92,1-1,3,3-0.06,9.45Zm17.38,3.59-14.91-.09a3.19,3.19,0,0,1-2.47-2.5l4-1.47,11.93,0.07Zm-1.29-31.82-11.88-.07-4-1.52a3.19,3.19,0,0,1,2.5-2.47l14.86,0.09Zm0.93,10.45,0.07-10.44,1.52-4a3.19,3.19,0,0,1,2.47,2.5l-0.09,13.92-1,1Zm3,4,1,1-0.09,13.92a3.19,3.19,0,0,1-2.5,2.47l-1.47-4,0.07-10.44Z"/><path class="cls-9" d="M960.28,1884.82l-0.06,9.45-3,3-1-1,0.08-12.92Zm-4.15,27.31,0.08-12.92,1-1,3,3-0.06,9.45Zm17.38,3.59-14.91-.09a3.19,3.19,0,0,1-2.47-2.5l4-1.47,11.93,0.07Zm-1.29-31.82-11.88-.07-4-1.52a3.19,3.19,0,0,1,2.5-2.47l14.86,0.09Zm0.93,10.44,0.07-10.44,1.52-4a3.19,3.19,0,0,1,2.47,2.5l-0.09,13.92-1,1Zm3,4,1,1L977,1913.26a3.19,3.19,0,0,1-2.5,2.47l-1.47-4,0.07-10.44Z"/><path class="cls-9" d="M990.6,1885l-0.06,9.44-3,3-1-1,0.08-12.92Zm-4.15,27.31,0.08-12.92,1-1,3,3-0.06,9.44Zm17.38,3.59-14.91-.09a3.19,3.19,0,0,1-2.47-2.5l4-1.47,11.93,0.07Zm-1.29-31.82-11.88-.07-4-1.52a3.19,3.19,0,0,1,2.5-2.47l14.86,0.09Zm0.93,10.44,0.07-10.44,1.52-4a3.19,3.19,0,0,1,2.47,2.5l-0.09,13.92-1,1Zm3,4,1,1-0.09,13.92a3.2,3.2,0,0,1-2.5,2.47l-1.47-4,0.07-10.44Z"/><path class="cls-9" d="M1020.92,1885.2l-0.06,9.44-3,3-1-1,0.08-12.92Zm-4.15,27.31,0.08-12.92,1-1,3,3-0.06,9.45Zm17.38,3.59-14.91-.09a3.19,3.19,0,0,1-2.47-2.5l4-1.47,11.93,0.07Zm-1.29-31.82-11.88-.07-4-1.52a3.19,3.19,0,0,1,2.5-2.47l14.86,0.09Zm0.93,10.45,0.07-10.44,1.52-4a3.19,3.19,0,0,1,2.47,2.5l-0.09,13.92-1,1Zm3,4,1,1-0.09,13.92a3.19,3.19,0,0,1-2.5,2.47l-1.47-4,0.06-10.44Z"/><path class="cls-9" d="M1051.24,1885.39l-0.06,9.45-3,3-1-1,0.08-12.92Zm-4.15,27.31,0.08-12.92,1-1,3,3-0.06,9.45Zm17.38,3.59-14.91-.09a3.19,3.19,0,0,1-2.47-2.5l4-1.47,11.93,0.07Zm-1.29-31.82-11.88-.07-4-1.52a3.19,3.19,0,0,1,2.5-2.47l14.86,0.09Zm0.93,10.44,0.07-10.44,1.52-4a3.19,3.19,0,0,1,2.47,2.5l-0.09,13.92-1,1Zm3,4,1,1-0.09,13.92a3.19,3.19,0,0,1-2.5,2.47l-1.47-4,0.06-10.44Z"/><path class="cls-9" d="M1081.56,1885.58l-0.06,9.44-3,3-1-1,0.08-12.92Zm-4.15,27.31,0.08-12.92,1-1,3,3-0.06,9.44Zm17.37,3.59-14.91-.09a3.19,3.19,0,0,1-2.47-2.5l4-1.47,11.93,0.07Zm-1.29-31.82-11.88-.07-4-1.52a3.19,3.19,0,0,1,2.5-2.47l14.86,0.09Zm0.93,10.44,0.07-10.44,1.52-4a3.19,3.19,0,0,1,2.47,2.5l-0.09,13.92-1,1Zm3,4,1,1-0.09,13.92a3.19,3.19,0,0,1-2.5,2.47l-1.47-4,0.06-10.44Z"/><path class="cls-9" d="M1111.88,1885.76l-0.06,9.44-3,3-1-1,0.08-12.92Zm-4.15,27.31,0.08-12.92,1-1,3,3-0.06,9.45Zm17.37,3.59-14.91-.09a3.19,3.19,0,0,1-2.47-2.5l4-1.47,11.93,0.07Zm-1.29-31.82-11.88-.07-4-1.52a3.19,3.19,0,0,1,2.5-2.47l14.86,0.09Zm0.93,10.45,0.06-10.44,1.52-4a3.19,3.19,0,0,1,2.47,2.5l-0.09,13.92-1,1Zm3,4,1,1-0.09,13.92a3.19,3.19,0,0,1-2.5,2.47l-1.47-4,0.06-10.44Z"/><path class="cls-21" d="M1543.52,2282.58v16.17a5.51,5.51,0,0,1-1.27,3.48,7.39,7.39,0,0,1-3.48,2.33,7.15,7.15,0,0,1-1.36.33,8.41,8.41,0,0,1-1.31.1H1229.5c-3.71,0-6.8-2.31-7.35-5.3,0-.2-0.06-0.4-0.07-0.61s0-.21,0-0.32v-16.17c0-.11,0-0.21,0-0.32s0-.41.07-0.61c0.55-3,3.64-5.3,7.35-5.3h306.6a8.42,8.42,0,0,1,1.31.1,8,8,0,0,1,1.36.33,7.39,7.39,0,0,1,3.48,2.33A5.51,5.51,0,0,1,1543.52,2282.58Z"/><path class="cls-22" d="M1393,2305H1228.7a6.58,6.58,0,0,1-6.37-4.61,5.4,5.4,0,0,1-.18-0.69c0-.2-0.06-0.4-0.07-0.61s0-.21,0-0.32v-16.17c0-.11,0-0.21,0-0.32s0-.41.07-0.61a5.39,5.39,0,0,1,.18-0.69,6.58,6.58,0,0,1,6.37-4.61h144.09A50.15,50.15,0,0,0,1393,2305Z"/><rect class="cls-22" x="1502.73" y="2276.35" width="3.48" height="28.62"/><rect class="cls-22" x="1490.93" y="2276.35" width="3.48" height="28.62"/><rect class="cls-22" x="1476.79" y="2276.35" width="3.48" height="28.62"/><rect class="cls-22" x="1455.1" y="2276.35" width="3.48" height="28.62"/><rect class="cls-22" x="1432.18" y="2276.35" width="3.48" height="28.62"/><rect class="cls-22" x="1397.03" y="2276.35" width="3.48" height="28.62"/><rect class="cls-22" x="1364.12" y="2276.35" width="3.48" height="28.62"/><rect class="cls-22" x="1334.73" y="2276.35" width="3.48" height="28.62"/><rect class="cls-22" x="1513.96" y="2276.35" width="3.48" height="28.62"/><rect class="cls-22" x="1521.37" y="2276.35" width="3.48" height="28.62"/><rect class="cls-22" x="1528.54" y="2276.35" width="3.48" height="28.62"/><path class="cls-22" d="M1537.41,2276.45v28.42a8.62,8.62,0,0,1-1.31.1h-2.18v-28.62h2.18A8.62,8.62,0,0,1,1537.41,2276.45Z"/><path class="cls-22" d="M1542.25,2279.1v23.12a7.39,7.39,0,0,1-3.48,2.33v-27.78A7.39,7.39,0,0,1,1542.25,2279.1Z"/><path class="cls-21" d="M1510.74,2254v16.16a5.56,5.56,0,0,1-1.26,3.49,7.19,7.19,0,0,1-.7.74,7.68,7.68,0,0,1-2.79,1.59,7.87,7.87,0,0,1-1.36.32,8.43,8.43,0,0,1-1.3.11H1196.71c-3.7,0-6.79-2.32-7.34-5.31,0-.2-0.06-0.4-0.07-0.6s0-.21,0-0.33V2254c0-.11,0-0.22,0-0.33s0-.4.07-0.6c0.55-3,3.64-5.31,7.34-5.31h306.61l0.58,0,0.21,0h0l0.28,0,0.19,0a7.88,7.88,0,0,1,1.36.32q0.39,0.13.75,0.29h0l0.48,0.23,0.27,0.15a2.13,2.13,0,0,1,.25.15,5.58,5.58,0,0,1,.9.66c0.1,0.08.17,0.16,0.26,0.24l0.15,0.14,0.08,0.09,0.07,0.07a2.89,2.89,0,0,1,.28.32A5.53,5.53,0,0,1,1510.74,2254Z"/><path class="cls-22" d="M1360.18,2276.35H1195.92a6.57,6.57,0,0,1-6.36-4.62,5.33,5.33,0,0,1-.18-0.68c0-.2-0.06-0.4-0.07-0.6s0-.21,0-0.33V2254c0-.11,0-0.22,0-0.33s0-.4.07-0.6a5.33,5.33,0,0,1,.18-0.68,6.57,6.57,0,0,1,6.36-4.62H1340c0.06,0.24.12,0.47,0.2,0.71A50.06,50.06,0,0,0,1360.18,2276.35Z"/><rect class="cls-22" x="1469.95" y="2247.73" width="3.48" height="28.62"/><rect class="cls-22" x="1458.15" y="2247.73" width="3.48" height="28.62"/><rect class="cls-22" x="1444.01" y="2247.73" width="3.48" height="28.62"/><rect class="cls-22" x="1422.32" y="2247.73" width="3.48" height="28.62"/><rect class="cls-22" x="1399.4" y="2247.73" width="3.48" height="28.62"/><rect class="cls-22" x="1364.25" y="2247.73" width="3.48" height="28.62"/><rect class="cls-22" x="1331.34" y="2247.73" width="3.48" height="28.62"/><rect class="cls-22" x="1301.95" y="2247.73" width="3.48" height="28.62"/><rect class="cls-22" x="1481.17" y="2247.73" width="3.48" height="28.62"/><rect class="cls-22" x="1488.59" y="2247.73" width="3.48" height="28.62"/><rect class="cls-22" x="1495.76" y="2247.73" width="3.48" height="28.62"/><path class="cls-22" d="M1504.63,2247.83v28.42a8.47,8.47,0,0,1-1.31.1h-2.18v-28.62h2.18A8.47,8.47,0,0,1,1504.63,2247.83Z"/><path class="cls-22" d="M1509.47,2250.48v23.12a7.38,7.38,0,0,1-3.48,2.33v-27.78A7.38,7.38,0,0,1,1509.47,2250.48Z"/><path class="cls-21" d="M1526.58,2226v16.17a5.51,5.51,0,0,1-1.27,3.48,7.34,7.34,0,0,1-3.48,2.33,8.64,8.64,0,0,1-1.36.33,9.67,9.67,0,0,1-1.3.1H1212.55a8.52,8.52,0,0,1-3.42-.71,6.47,6.47,0,0,1-3.91-4.52c0-.13,0-0.27-0.06-0.4a2.47,2.47,0,0,1,0-.28c0-.1,0-0.21,0-0.32V2226c0-.11,0-0.21,0-0.32a4.14,4.14,0,0,1,.07-0.6c0.55-3,3.64-5.31,7.34-5.31h306.61a8.3,8.3,0,0,1,1.3.1,7.76,7.76,0,0,1,1.36.32,7.44,7.44,0,0,1,3.48,2.34A5.51,5.51,0,0,1,1526.58,2226Z"/><path class="cls-22" d="M1376,2248.43H1211.76a6.85,6.85,0,0,1-3-.71,6.28,6.28,0,0,1-3.49-4.52c0-.13,0-0.27-0.06-0.4a2.47,2.47,0,0,1,0-.28c0-.1,0-0.21,0-0.32V2226c0-.11,0-0.21,0-0.32a4.14,4.14,0,0,1,.07-0.6,5.35,5.35,0,0,1,.17-0.67,6.55,6.55,0,0,1,6.37-4.64h144.09a50.25,50.25,0,0,0,19.17,27.91C1375.34,2248,1375.68,2248.2,1376,2248.43Z"/><rect class="cls-22" x="1485.79" y="2219.81" width="3.48" height="28.62"/><rect class="cls-22" x="1473.99" y="2219.81" width="3.48" height="28.62"/><rect class="cls-22" x="1459.85" y="2219.81" width="3.48" height="28.62"/><rect class="cls-22" x="1438.17" y="2219.81" width="3.48" height="28.62"/><rect class="cls-22" x="1415.24" y="2219.81" width="3.48" height="28.62"/><rect class="cls-22" x="1380.09" y="2219.81" width="3.48" height="28.62"/><rect class="cls-22" x="1347.18" y="2219.81" width="3.48" height="28.62"/><rect class="cls-22" x="1317.79" y="2219.81" width="3.48" height="28.62"/><rect class="cls-22" x="1497.02" y="2219.81" width="3.48" height="28.62"/><rect class="cls-22" x="1504.43" y="2219.81" width="3.48" height="28.62"/><rect class="cls-22" x="1511.6" y="2219.81" width="3.48" height="28.62"/><path class="cls-22" d="M1520.47,2219.91v28.42a8.62,8.62,0,0,1-1.31.1H1517v-28.62h2.18A8.62,8.62,0,0,1,1520.47,2219.91Z"/><path class="cls-22" d="M1525.31,2222.56v23.12a7.38,7.38,0,0,1-3.48,2.33v-27.78A7.39,7.39,0,0,1,1525.31,2222.56Z"/><path class="cls-21" d="M1533.93,2197.42v16.16a5.49,5.49,0,0,1-1.27,3.48c-0.1.13-.22,0.26-0.34,0.38a7.17,7.17,0,0,1-2.12,1.54,8.87,8.87,0,0,1-1,.41,8.06,8.06,0,0,1-1.36.32l-0.64.08-0.67,0H1219.9c-3.71,0-6.8-2.32-7.35-5.31,0-.2-0.06-0.4-0.07-0.6v-16.81c0.19-3,3-5.51,6.53-5.86,0.29,0,.58,0,0.88,0h306.6l0.67,0c0.22,0,.43,0,0.64.08a8.07,8.07,0,0,1,1.36.32,7.39,7.39,0,0,1,3.48,2.33A5.51,5.51,0,0,1,1533.93,2197.42Z"/><path class="cls-22" d="M1383.37,2219.81H1219.1a6.58,6.58,0,0,1-6.37-4.62,5.41,5.41,0,0,1-.18-0.69c0-.2-0.06-0.4-0.07-0.6v-16.81a6.44,6.44,0,0,1,5.83-5.86,7.17,7.17,0,0,1,.79,0H1363.2s0,0,0,0A50.2,50.2,0,0,0,1383.37,2219.81Z"/><rect class="cls-22" x="1493.13" y="2191.19" width="3.48" height="28.62"/><rect class="cls-22" x="1481.34" y="2191.19" width="3.48" height="28.62"/><rect class="cls-22" x="1467.19" y="2191.19" width="3.48" height="28.62"/><rect class="cls-22" x="1445.51" y="2191.19" width="3.48" height="28.62"/><rect class="cls-22" x="1422.58" y="2191.19" width="3.48" height="28.62"/><rect class="cls-22" x="1387.43" y="2191.19" width="3.48" height="28.62"/><rect class="cls-22" x="1354.52" y="2191.19" width="3.48" height="28.62"/><rect class="cls-22" x="1325.13" y="2191.19" width="3.48" height="28.62"/><rect class="cls-22" x="1504.36" y="2191.19" width="3.48" height="28.62"/><rect class="cls-22" x="1511.78" y="2191.19" width="3.48" height="28.62"/><rect class="cls-22" x="1518.94" y="2191.19" width="3.48" height="28.62"/><path class="cls-22" d="M1527.82,2191.28v28.42a8.64,8.64,0,0,1-1.31.1h-2.18v-28.62h2.18A8.64,8.64,0,0,1,1527.82,2191.28Z"/><path class="cls-22" d="M1532.65,2193.94v23.12a7.38,7.38,0,0,1-3.48,2.33v-27.78A7.38,7.38,0,0,1,1532.65,2193.94Z"/><path class="cls-21" d="M1511.38,2168.84V2185a5.48,5.48,0,0,1-1.26,3.48,7.32,7.32,0,0,1-3.49,2.34,8,8,0,0,1-1.35.32,3.24,3.24,0,0,1-.43.06h-0.06l-0.23,0-0.2,0h-307c-4,0-7.21-2.63-7.41-5.91,0-.11,0-0.21,0-0.33v-16.16c0-.11,0-0.22,0-0.33a2.28,2.28,0,0,1,0-.26c0.3-2.63,2.58-4.82,5.56-5.45l0.22,0a8.81,8.81,0,0,1,1.61-.15H1504c0.23,0,.44,0,0.66,0l0.28,0h0l0.34,0a8,8,0,0,1,1.35.32,7.32,7.32,0,0,1,3.49,2.34A5.48,5.48,0,0,1,1511.38,2168.84Z"/><path class="cls-22" d="M1360.82,2191.23H1196.57a6.49,6.49,0,0,1-6.62-5.91c0-.11,0-0.21,0-0.33v-16.16c0-.11,0-0.22,0-0.33a2.28,2.28,0,0,1,0-.26,6.39,6.39,0,0,1,5.14-5.49,1.35,1.35,0,0,1,.28-0.06,6.89,6.89,0,0,1,1.18-.11h144.08l0.06,0.21a50.17,50.17,0,0,0,20,28.37Z"/><rect class="cls-22" x="1470.59" y="2162.61" width="3.48" height="28.62"/><rect class="cls-22" x="1458.79" y="2162.61" width="3.48" height="28.62"/><rect class="cls-22" x="1444.65" y="2162.61" width="3.48" height="28.62"/><rect class="cls-22" x="1422.97" y="2162.61" width="3.48" height="28.62"/><rect class="cls-22" x="1400.04" y="2162.61" width="3.48" height="28.62"/><rect class="cls-22" x="1364.89" y="2162.61" width="3.48" height="28.62"/><rect class="cls-22" x="1331.98" y="2162.61" width="3.48" height="28.62"/><rect class="cls-22" x="1302.59" y="2162.61" width="3.48" height="28.62"/><rect class="cls-22" x="1481.82" y="2162.61" width="3.48" height="28.62"/><rect class="cls-22" x="1489.24" y="2162.61" width="3.48" height="28.62"/><rect class="cls-22" x="1496.4" y="2162.61" width="3.48" height="28.62"/><path class="cls-22" d="M1505.27,2162.71v28.42a8.62,8.62,0,0,1-1.31.1h-2.18v-28.62H1504A8.62,8.62,0,0,1,1505.27,2162.71Z"/><path class="cls-22" d="M1510.11,2165.36v23.12a7.39,7.39,0,0,1-3.48,2.33V2163A7.39,7.39,0,0,1,1510.11,2165.36Z"/><path class="cls-21" d="M1510.74,2140.42v16.16a5.54,5.54,0,0,1-1.26,3.48,8.62,8.62,0,0,1-.7.75,7.68,7.68,0,0,1-2.79,1.59,8.13,8.13,0,0,1-1.05.27h0l-0.28,0a8.3,8.3,0,0,1-1.3.11H1196.71a8.08,8.08,0,0,1-1-.06l-0.36,0c-3.12-.48-5.58-2.61-6-5.27a5.11,5.11,0,0,1-.06-0.54c0-.11,0-0.22,0-0.33v-16.16c0-.12,0-0.22,0-0.33s0-.4.07-0.6c0.55-3,3.64-5.31,7.34-5.31h306.61l0.58,0h0.25l0.28,0,0.19,0a7.88,7.88,0,0,1,1.36.32q0.39,0.13.75,0.29h0a7.44,7.44,0,0,1,2.45,1.72l0.28,0.32A5.56,5.56,0,0,1,1510.74,2140.42Z"/><path class="cls-22" d="M1360.18,2162.81H1195.53l-0.42,0a6.48,6.48,0,0,1-5.75-5.33,5.11,5.11,0,0,1-.06-0.54c0-.11,0-0.22,0-0.33v-16.16c0-.12,0-0.22,0-0.33s0-.4.07-0.6a5.32,5.32,0,0,1,.18-0.68,6.57,6.57,0,0,1,6.36-4.62H1340c0.06,0.24.12,0.47,0.2,0.71a50.07,50.07,0,0,0,19.67,27.71Z"/><rect class="cls-22" x="1469.95" y="2134.19" width="3.48" height="28.62"/><rect class="cls-22" x="1458.15" y="2134.19" width="3.48" height="28.62"/><rect class="cls-22" x="1444.01" y="2134.19" width="3.48" height="28.62"/><rect class="cls-22" x="1422.32" y="2134.19" width="3.48" height="28.62"/><rect class="cls-22" x="1399.4" y="2134.19" width="3.48" height="28.62"/><rect class="cls-22" x="1364.25" y="2134.19" width="3.48" height="28.62"/><rect class="cls-22" x="1331.34" y="2134.19" width="3.48" height="28.62"/><rect class="cls-22" x="1301.95" y="2134.19" width="3.48" height="28.62"/><rect class="cls-22" x="1481.17" y="2134.19" width="3.48" height="28.62"/><rect class="cls-22" x="1488.59" y="2134.19" width="3.48" height="28.62"/><rect class="cls-22" x="1495.76" y="2134.19" width="3.48" height="28.62"/><path class="cls-22" d="M1504.63,2134.29v28.42a8.61,8.61,0,0,1-1.31.1h-2.18v-28.62h2.18A8.61,8.61,0,0,1,1504.63,2134.29Z"/><path class="cls-22" d="M1509.47,2136.94v23.12a7.38,7.38,0,0,1-3.48,2.33v-27.78A7.37,7.37,0,0,1,1509.47,2136.94Z"/><path class="cls-21" d="M1526.58,2112.5v16.16a5.52,5.52,0,0,1-1.27,3.49,7.35,7.35,0,0,1-3.48,2.33,7.76,7.76,0,0,1-1.36.32,8.31,8.31,0,0,1-1.3.11H1212.55a8.52,8.52,0,0,1-3.42-.71,6.47,6.47,0,0,1-3.91-4.52c0-.13,0-0.27-0.06-0.4a2.64,2.64,0,0,1,0-.28c0-.11,0-0.21,0-0.33V2112.5c0-.11,0-0.22,0-0.33a4.29,4.29,0,0,1,.07-0.6c0.55-3,3.64-5.31,7.34-5.31h306.61a8.31,8.31,0,0,1,1.3.11,7.87,7.87,0,0,1,1.36.32,7.29,7.29,0,0,1,3.48,2.34A5.49,5.49,0,0,1,1526.58,2112.5Z"/><path class="cls-22" d="M1376,2134.9H1211.76a6.85,6.85,0,0,1-3-.71,6.28,6.28,0,0,1-3.49-4.52c0-.13,0-0.27-0.06-0.4a2.64,2.64,0,0,1,0-.28c0-.11,0-0.21,0-0.33V2112.5c0-.11,0-0.22,0-0.33a4.29,4.29,0,0,1,.07-0.6,5.31,5.31,0,0,1,.17-0.66,6.56,6.56,0,0,1,6.37-4.64h144.09a50.24,50.24,0,0,0,19.17,27.92Z"/><rect class="cls-22" x="1485.79" y="2106.27" width="3.48" height="28.62"/><rect class="cls-22" x="1473.99" y="2106.27" width="3.48" height="28.62"/><rect class="cls-22" x="1459.85" y="2106.27" width="3.48" height="28.62"/><rect class="cls-22" x="1438.17" y="2106.27" width="3.48" height="28.62"/><rect class="cls-22" x="1415.24" y="2106.27" width="3.48" height="28.62"/><rect class="cls-22" x="1380.09" y="2106.27" width="3.48" height="28.62"/><rect class="cls-22" x="1347.18" y="2106.27" width="3.48" height="28.62"/><rect class="cls-22" x="1317.79" y="2106.27" width="3.48" height="28.62"/><rect class="cls-22" x="1497.02" y="2106.27" width="3.48" height="28.62"/><rect class="cls-22" x="1504.43" y="2106.27" width="3.48" height="28.62"/><rect class="cls-22" x="1511.6" y="2106.27" width="3.48" height="28.62"/><path class="cls-22" d="M1520.47,2106.37v28.42a8.64,8.64,0,0,1-1.31.1H1517v-28.62h2.18A8.62,8.62,0,0,1,1520.47,2106.37Z"/><path class="cls-22" d="M1525.31,2109v23.12a7.39,7.39,0,0,1-3.48,2.33v-27.78A7.39,7.39,0,0,1,1525.31,2109Z"/><path class="cls-21" d="M1551.64,2083.87V2100a5.53,5.53,0,0,1-1.26,3.47h0c-0.11.13-.22,0.26-0.33,0.38a7,7,0,0,1-1.64,1.28,7.71,7.71,0,0,1-1,.47h0c-0.16.07-.34,0.13-0.52,0.19a7.78,7.78,0,0,1-1.36.32,8.29,8.29,0,0,1-1.3.1H1237.61c-3.7,0-6.79-2.31-7.34-5.3a4.2,4.2,0,0,1-.07-0.61c0-.11,0-0.21,0-0.32v-16.17c0-.11,0-0.21,0-0.32,0.18-3,3-5.51,6.53-5.86a6.59,6.59,0,0,1,.87,0h306.61a9.65,9.65,0,0,1,1.3.1,8.77,8.77,0,0,1,1.36.33A7.53,7.53,0,0,1,1550,2080c0.12,0.12.23,0.25,0.33,0.38h0A5.53,5.53,0,0,1,1551.64,2083.87Z"/><path class="cls-22" d="M1401.08,2106.27H1236.81a6.56,6.56,0,0,1-6.37-4.63,5.38,5.38,0,0,1-.17-0.67,4.2,4.2,0,0,1-.07-0.61c0-.11,0-0.21,0-0.32v-16.17c0-.11,0-0.21,0-0.32a6.42,6.42,0,0,1,5.82-5.86,5.36,5.36,0,0,1,.79,0h144.09a0.4,0.4,0,0,1,0,0A50.15,50.15,0,0,0,1401.08,2106.27Z"/><rect class="cls-22" x="1510.84" y="2077.65" width="3.48" height="28.62"/><rect class="cls-22" x="1499.05" y="2077.65" width="3.48" height="28.62"/><rect class="cls-22" x="1484.9" y="2077.65" width="3.48" height="28.62"/><rect class="cls-22" x="1463.22" y="2077.65" width="3.48" height="28.62"/><rect class="cls-22" x="1440.29" y="2077.65" width="3.48" height="28.62"/><rect class="cls-22" x="1405.14" y="2077.65" width="3.48" height="28.62"/><rect class="cls-22" x="1372.23" y="2077.65" width="3.48" height="28.62"/><rect class="cls-22" x="1342.85" y="2077.65" width="3.48" height="28.62"/><rect class="cls-22" x="1522.07" y="2077.65" width="3.48" height="28.62"/><rect class="cls-22" x="1529.49" y="2077.65" width="3.48" height="28.62"/><rect class="cls-22" x="1536.65" y="2077.65" width="3.48" height="28.62"/><path class="cls-22" d="M1545.53,2077.75v28.42a8.48,8.48,0,0,1-1.31.1H1542v-28.62h2.18A8.62,8.62,0,0,1,1545.53,2077.75Z"/><path class="cls-22" d="M1550.37,2080.4v23.12a7.39,7.39,0,0,1-3.48,2.33v-27.78A7.39,7.39,0,0,1,1550.37,2080.4Z"/><path class="cls-21" d="M1511.38,2055.3v16.16a5.48,5.48,0,0,1-1.26,3.48,7.32,7.32,0,0,1-3.49,2.34,8,8,0,0,1-1.35.32l-0.43.06h-0.06a2.6,2.6,0,0,1-.29,0H1197.36a7.8,7.8,0,0,1-6.31-3,5.48,5.48,0,0,1-1.1-2.94c0-.11,0-0.22,0-0.33V2055.3c0-.11,0-0.22,0-0.33,0.16-2.65,2.34-4.88,5.26-5.63a8.38,8.38,0,0,1,2.16-.28h307l0.19,0a6.12,6.12,0,0,1,.73.08,8,8,0,0,1,1.35.32,4.58,4.58,0,0,1,.63.24h0a7.22,7.22,0,0,1,2.14,1.35l0,0,0.09,0.08a6,6,0,0,1,.58.62A5.51,5.51,0,0,1,1511.38,2055.3Z"/><path class="cls-22" d="M1360.82,2077.69H1196.57a6.74,6.74,0,0,1-5.54-2.83,5.88,5.88,0,0,1-1.08-3.08c0-.11,0-0.22,0-0.33V2055.3c0-.11,0-0.22,0-0.33a6.39,6.39,0,0,1,5.28-5.78,6.87,6.87,0,0,1,1.34-.13h144.08c0.06,0.22.12,0.44,0.19,0.66a50.07,50.07,0,0,0,19.91,27.92Z"/><rect class="cls-22" x="1470.59" y="2049.07" width="3.48" height="28.62"/><rect class="cls-22" x="1458.79" y="2049.07" width="3.48" height="28.62"/><rect class="cls-22" x="1444.65" y="2049.07" width="3.48" height="28.62"/><rect class="cls-22" x="1422.97" y="2049.07" width="3.48" height="28.62"/><rect class="cls-22" x="1400.04" y="2049.07" width="3.48" height="28.62"/><rect class="cls-22" x="1364.89" y="2049.07" width="3.48" height="28.62"/><rect class="cls-22" x="1331.98" y="2049.07" width="3.48" height="28.62"/><rect class="cls-22" x="1302.59" y="2049.07" width="3.48" height="28.62"/><rect class="cls-22" x="1481.82" y="2049.07" width="3.48" height="28.62"/><rect class="cls-22" x="1489.24" y="2049.07" width="3.48" height="28.62"/><rect class="cls-22" x="1496.4" y="2049.07" width="3.48" height="28.62"/><path class="cls-22" d="M1505.27,2049.17v28.42a8.5,8.5,0,0,1-1.31.1h-2.18v-28.62H1504A8.5,8.5,0,0,1,1505.27,2049.17Z"/><path class="cls-22" d="M1510.11,2051.82v23.12a7.39,7.39,0,0,1-3.48,2.33v-27.78A7.39,7.39,0,0,1,1510.11,2051.82Z"/><path class="cls-21" d="M1533.93,2027.33v16.16a5.5,5.5,0,0,1-1.27,3.48,7.37,7.37,0,0,1-3.48,2.33,7.84,7.84,0,0,1-1.36.32,8.64,8.64,0,0,1-1.31.1H1219.9a8.49,8.49,0,0,1-3.31-.66,6.38,6.38,0,0,1-4.08-5c0-.08,0-0.17,0-0.25s0-.21,0-0.32v-16.16c0-.11,0-0.21,0-0.32,0.18-3,3-5.51,6.53-5.86a8,8,0,0,1,.88,0h306.61a8.64,8.64,0,0,1,1.31.1,8.05,8.05,0,0,1,1.36.32,7.38,7.38,0,0,1,3.48,2.33A5.5,5.5,0,0,1,1533.93,2027.33Z"/><path class="cls-22" d="M1383.37,2049.73H1219.11a6.87,6.87,0,0,1-3-.66,6.27,6.27,0,0,1-3.64-5c0-.08,0-0.17,0-0.25s0-.21,0-0.32v-16.16c0-.11,0-0.21,0-0.32a6.65,6.65,0,0,1,6.61-5.91h144.09v0a50.22,50.22,0,0,0,19.22,27.92Z"/><rect class="cls-22" x="1493.13" y="2021.11" width="3.48" height="28.62"/><rect class="cls-22" x="1481.34" y="2021.11" width="3.48" height="28.62"/><rect class="cls-22" x="1467.19" y="2021.11" width="3.48" height="28.62"/><rect class="cls-22" x="1445.51" y="2021.11" width="3.48" height="28.62"/><rect class="cls-22" x="1422.58" y="2021.11" width="3.48" height="28.62"/><rect class="cls-22" x="1387.43" y="2021.11" width="3.48" height="28.62"/><rect class="cls-22" x="1354.52" y="2021.11" width="3.48" height="28.62"/><rect class="cls-22" x="1325.13" y="2021.11" width="3.48" height="28.62"/><rect class="cls-22" x="1504.36" y="2021.11" width="3.48" height="28.62"/><rect class="cls-22" x="1511.78" y="2021.11" width="3.48" height="28.62"/><rect class="cls-22" x="1518.94" y="2021.11" width="3.48" height="28.62"/><path class="cls-22" d="M1527.82,2021.2v28.42a8.64,8.64,0,0,1-1.31.1h-2.18V2021.1h2.18A8.65,8.65,0,0,1,1527.82,2021.2Z"/><path class="cls-22" d="M1532.65,2023.86V2047a7.38,7.38,0,0,1-3.48,2.33v-27.78A7.38,7.38,0,0,1,1532.65,2023.86Z"/><path class="cls-21" d="M1543.52,1998.76v16.16a5.51,5.51,0,0,1-1.27,3.48,7.39,7.39,0,0,1-3.48,2.33,8.08,8.08,0,0,1-1.36.32l-0.43.05-0.24,0H1229.5c-4,0-7.21-2.63-7.41-5.91,0-.11,0-0.21,0-0.32v-16.16c0-.11,0-0.21,0-0.32,0.2-3.28,3.46-5.91,7.41-5.91H1536.1a8.62,8.62,0,0,1,1.31.1,8,8,0,0,1,1.36.32,7.39,7.39,0,0,1,3.48,2.33A5.51,5.51,0,0,1,1543.52,1998.76Z"/><path class="cls-22" d="M1393,2021.15H1228.7a6.48,6.48,0,0,1-6.61-5.91c0-.11,0-0.21,0-0.32v-16.16c0-.11,0-0.21,0-0.32a6.48,6.48,0,0,1,6.61-5.91h144.09a50.18,50.18,0,0,0,20.11,28.58Z"/><rect class="cls-22" x="1502.73" y="1992.53" width="3.48" height="28.62"/><rect class="cls-22" x="1490.93" y="1992.53" width="3.48" height="28.62"/><rect class="cls-22" x="1476.79" y="1992.53" width="3.48" height="28.62"/><rect class="cls-22" x="1455.11" y="1992.53" width="3.48" height="28.62"/><rect class="cls-22" x="1432.18" y="1992.53" width="3.48" height="28.62"/><rect class="cls-22" x="1397.03" y="1992.53" width="3.48" height="28.62"/><rect class="cls-22" x="1364.12" y="1992.53" width="3.48" height="28.62"/><rect class="cls-22" x="1334.73" y="1992.53" width="3.49" height="28.62"/><rect class="cls-22" x="1513.96" y="1992.53" width="3.48" height="28.62"/><rect class="cls-22" x="1521.37" y="1992.53" width="3.48" height="28.62"/><rect class="cls-22" x="1528.54" y="1992.53" width="3.48" height="28.62"/><path class="cls-22" d="M1537.41,1992.62V2021a8.62,8.62,0,0,1-1.31.1h-2.18v-28.62h2.18A8.62,8.62,0,0,1,1537.41,1992.62Z"/><path class="cls-22" d="M1542.25,1995.28v23.12a7.38,7.38,0,0,1-3.48,2.33v-27.78A7.38,7.38,0,0,1,1542.25,1995.28Z"/><path class="cls-23" d="M1446.33,1829.41s-16.1,22.67-30.87,23-37.23-10.51-37.23-10.51-13.56-30.21-4.36-42c0,0,9.22-4,18.86,3.1a29,29,0,0,1,5,4.78,15.83,15.83,0,0,0,7.75,5.25c10.53,3.2,23-4.34,27.72,2.94a49.45,49.45,0,0,0,8.14,9.64A37.18,37.18,0,0,0,1446.33,1829.41Z"/><path class="cls-23" d="M1236.38,1992.95S1293.3,1855,1395.76,1852.4c0,0,94.58,10.51,99.83,140.55H1236.38Z"/><path class="cls-24" d="M1367.69,1856.61s41.07,9.13,53.74,3.77c0,0,1.91-17.17-15.38-14.76-11.84,1.65-19.55-4-24.08-6.35C1375.55,1836,1366,1849.42,1367.69,1856.61Z"/><path class="cls-25" d="M1403.43,1830.72c-2.63,2-10.69-27.77-10.69-27.77a29,29,0,0,1,5,4.78,15.83,15.83,0,0,0,7.75,5.25C1405.51,1813.86,1406,1828.81,1403.43,1830.72Z"/><path class="cls-25" d="M1441.34,1825.57c-0.58.34-19.57,11.72-22.15,11.72s14-21.36,14-21.36A49.45,49.45,0,0,0,1441.34,1825.57Z"/><path class="cls-26" d="M1292,1954.41c-1.05-.9,40.28-60.86,51.67-61.3s37,13.14,55.48,14.89,36.47-3.5,40,7.44,13.14,49.75,7.22,56S1314.72,1973.83,1292,1954.41Z"/><path class="cls-27" d="M1330.92,2162.6c0,0.08,0,.14,0,0.21a137.19,137.19,0,0,1-4.6,28.37,0.45,0.45,0,0,0,0,0c-0.36,1.34-.75,2.68-1.16,4a140.13,140.13,0,0,1-10.1,24.57,142.33,142.33,0,0,1-19.26,27.91c-0.2.24-.41,0.48-0.62,0.71a147.68,147.68,0,0,1-33.69,27.92q-4.08,2.48-8.37,4.74c-1.93,1-3.88,2-5.83,2.9-1.87,1.08-3.84,2-5.7,3.15a79.63,79.63,0,0,1-19.48,8v-12.58c0-.11,0-0.21,0-0.32s0-.41.07-0.61a5.39,5.39,0,0,1,.18-0.69,6.58,6.58,0,0,1,6.37-4.61h-32.79a6.57,6.57,0,0,1-6.36-4.62,5.33,5.33,0,0,1-.18-0.68c0-.2-0.06-0.4-0.07-0.6s0-.21,0-0.33V2254c0-.11,0-0.22,0-0.33s0-.4.07-0.6a5.33,5.33,0,0,1,.18-0.68,6.57,6.57,0,0,1,6.36-4.62h12.8a6.28,6.28,0,0,1-3.49-4.52c0-.13,0-0.27-0.06-0.4a2.47,2.47,0,0,1,0-.28c0-.1,0-0.21,0-0.32V2226c0-.11,0-0.21,0-0.32a4.14,4.14,0,0,1,.07-0.6,5.35,5.35,0,0,1,.17-0.67,6.55,6.55,0,0,1,6.37-4.64h7.35a6.58,6.58,0,0,1-6.37-4.62,5.41,5.41,0,0,1-.18-0.69c0-.2-0.06-0.4-0.07-0.6v-16.81a6.44,6.44,0,0,1,5.83-5.86h-21.75a6.49,6.49,0,0,1-6.62-5.91c0-.11,0-0.21,0-0.33v-16.16c0-.11,0-0.22,0-0.33a2.28,2.28,0,0,1,0-.26,6.39,6.39,0,0,1,5.14-5.49,6.48,6.48,0,0,1-5.75-5.33,5.11,5.11,0,0,1-.06-0.54c0-.11,0-0.22,0-0.33v-16.16c0-.12,0-0.22,0-0.33s0-.4.07-0.6a5.32,5.32,0,0,1,.18-0.68,6.57,6.57,0,0,1,6.36-4.62h12.8a6.28,6.28,0,0,1-3.49-4.52c0-.13,0-0.27-0.06-0.4a2.64,2.64,0,0,1,0-.28c0-.11,0-0.21,0-0.33V2112.5c0-.11,0-0.22,0-0.33a4.29,4.29,0,0,1,.07-0.6,5.31,5.31,0,0,1,.17-0.66,6.56,6.56,0,0,1,6.37-4.64h25.06a6.56,6.56,0,0,1-6.37-4.63,5.38,5.38,0,0,1-.17-0.67,4.2,4.2,0,0,1-.07-0.61c0-.11,0-0.21,0-0.32v-16.17c0-.11,0-0.21,0-0.32a6.42,6.42,0,0,1,5.82-5.86h-39.46a6.74,6.74,0,0,1-5.54-2.83l0-.14,4.16-25.38,0-.14,5.92-36.21a158.49,158.49,0,0,1,20.31,4.09l1.17,0.32,0.08,0q5.82,1.62,11.48,3.69l0.11,0a151.82,151.82,0,0,1,47.6,27.92c0.25,0.21.5,0.43,0.74,0.66a143.44,143.44,0,0,1,20,21.5q1.8,2.36,3.48,4.8c0.37,0.54.75,1.07,1.1,1.62a0.05,0.05,0,0,1,0,0q2.72,4,5.15,8.23a140.82,140.82,0,0,1,9.7,20.34,136,136,0,0,1,7.43,27.92c0,0.24.08,0.47,0.11,0.71A136.62,136.62,0,0,1,1330.92,2162.6Z"/><circle class="cls-28" cx="1146.28" cy="2147.83" r="150.81" transform="translate(-894.46 820.24) rotate(-28.87)"/><path class="cls-21" d="M1213.23,2283q-2.79,1.7-5.67,3.29l-2,1.05c-1.49.79-3,1.55-4.47,2.3A150.81,150.81,0,0,1,1062,2022.11q2.9-1.6,5.84-3.05t5.75-2.71a150.53,150.53,0,0,1,45.27-12.17A150.84,150.84,0,0,1,1213.23,2283Z"/><path class="cls-22" d="M1135.81,2290.94a135.68,135.68,0,0,1-37.74-5.39,135.13,135.13,0,0,1-27.68-248.15c65.25-36,147.61-12.15,183.58,53.1s12.15,147.61-53.11,183.58A134.43,134.43,0,0,1,1135.81,2290.94Zm-0.41-266.66a131.48,131.48,0,1,0,63.7,246.61c63.49-35,86.67-115.13,51.67-178.62A131.6,131.6,0,0,0,1135.4,2024.28Z"/><path class="cls-22" d="M1202.08,2168.87c-0.3-.74-0.61-1.46-0.93-2.17a39.57,39.57,0,0,0-9.15-13.07,40.87,40.87,0,0,0-14.4-8.47,68.91,68.91,0,0,0-18.3-3.44q-10.1-.62-22-0.29a105.82,105.82,0,0,1-12.55-.25,31.43,31.43,0,0,1-8.83-1.93,15.49,15.49,0,0,1-5.9-4,21,21,0,0,1-3.75-6.18,22.9,22.9,0,0,1-1.7-7.25,15.56,15.56,0,0,1,1.07-6.82,16.67,16.67,0,0,1,4.21-6,24.55,24.55,0,0,1,7.69-4.68q8.83-3.59,16.47.15t12.45,15.59l30.73-12.47a57.44,57.44,0,0,0-10.06-16.68,43.1,43.1,0,0,0-30.12-14.86,56.93,56.93,0,0,0-18.54,1.89l-8.7-21.43-17,6.91,8.58,21.13a63.74,63.74,0,0,0-15.61,11.11,47.7,47.7,0,0,0-9.84,13.72,38.22,38.22,0,0,0-3.62,15.5,45.4,45.4,0,0,0,13.37,31.84,40.22,40.22,0,0,0,14.38,8.42,68.08,68.08,0,0,0,18.31,3.32,216.07,216.07,0,0,0,22,0,81.69,81.69,0,0,1,12,.08,31.28,31.28,0,0,1,8.78,2,16.61,16.61,0,0,1,6.15,4.17,22.64,22.64,0,0,1,4.14,6.83,19,19,0,0,1,1.47,7.28,15.55,15.55,0,0,1-1.64,6.94,19.61,19.61,0,0,1-4.88,6.13,29.49,29.49,0,0,1-8.25,4.84,35.49,35.49,0,0,1-9,2.34,20.57,20.57,0,0,1-9.1-.91,21.14,21.14,0,0,1-8.31-5.37,32.62,32.62,0,0,1-6.72-10.9l-30.72,12.47q4.8,11.84,12.08,18.78a43.62,43.62,0,0,0,15.92,9.93,48.7,48.7,0,0,0,18.08,2.61,76.71,76.71,0,0,0,18.63-3.08l7.93,19.55,16.9-6.86-8-19.64a68.64,68.64,0,0,0,15.77-11,46.53,46.53,0,0,0,9.52-12.43c0.19-.36.37-0.72,0.54-1.08a37.78,37.78,0,0,0,3.7-15.42A41.49,41.49,0,0,0,1202.08,2168.87Z"/><path class="cls-13" d="M995.43,1404.57a7,7,0,0,0-1.2,7.5,0.06,0.06,0,0,0,0,0c1.84,5,7.85,10.51,14.82,16,0.89,0.71,1.68,1.35,2.37,2l0.53,0.47,0.41,0.36c6.51,5.91,4.08,7.29,15.78,19.3,13.34,13.68,22.45,13.87,25,12.59,2.19-1.09-2.32-8.36-7.32-16.54l-0.73-1.19c-0.67-1.09-1.33-2.19-2-3.28-5.86-9.84-4.4-14.49-3.14-29.21,1-12,18.12-66.9,18.12-66.9l-25.4-4.19s-7.33,43.71-15.7,50.49c-4.48,3.61-9.52,3.7-13.82,6.38l-0.9.57A33.3,33.3,0,0,0,995.43,1404.57Z"/><path class="cls-12" d="M995.43,1404.57a7,7,0,0,0-1.2,7.5,0.06,0.06,0,0,0,0,0c2.25,5,8.1,10.47,14.84,16,0.88,0.72,1.66,1.38,2.35,2l0.53,0.47,0.41,0.36c6.51,5.91,4.08,7.29,15.78,19.3,13.34,13.68,22.45,13.87,25,12.59,2.19-1.09-2.32-8.36-7.32-16.54a56.41,56.41,0,0,1-23.72-17.22c-8-10.12-13.45-23.15-18.93-30.68l-0.9.57A33.3,33.3,0,0,0,995.43,1404.57Z"/><path class="cls-13" d="M1199.89,1387.28c1.62,7.82,12.78,6.44,25.23,3.3s9.51,0.51,27.25-1.58,23.07-8.75,23.59-11.39c0.47-2.35-8.31-3.11-17.72-4.13l-3.56-.4c-10.63-1.26-18.46-8.06-28.14-13.62-9.18-5.27-23-26.89-23-26.89l-24.33,2.1s12.91,19.31,17.91,27.71c2.94,4.94,2.83,11.5,2.51,16.57A31.22,31.22,0,0,0,1199.89,1387.28Z"/><path class="cls-12" d="M1225.12,1390.58c12.45-3.14,9.51.51,27.25-1.58s23.07-8.75,23.59-11.39c0.47-2.35-8.31-3.11-17.72-4.13l-0.09.18a50,50,0,0,1-25.37,8.08c-12,.38-24.82-3-33.14-2.79a31.22,31.22,0,0,0,.25,8.33C1201.52,1395.1,1212.67,1393.72,1225.12,1390.58Z"/><path class="cls-29" d="M1105.51,1232.29l-22.32,61.4L1054,1373.85a48.13,48.13,0,0,1-15.79-1.33c-7.12-2-15.32-7.32-15.32-7.32s7.64-85.91,22.69-135.3c3.85-12.68,8.2-22.94,13-28.73C1082.31,1172.8,1105.51,1232.29,1105.51,1232.29Z"/><path class="cls-16" d="M1081.68,1135.2c-14.94-4.7-57.42,1.77-100.07,10.43l-9-14.69-92.31-6.55s-30,67.73-13,110.63c2.49,6.3,17.86,9.38,17.87,9.38s54.08,0.59,71.91.46c45.88-.32,96.88-32.22,103.5-33.6,10.83-2.25,15.32,19.41,26.33,42.11s102.66,100.14,102.66,100.14,14,0,19.77-2.17c6.2-2.38,8.46-5.42,8.46-5.42S1115.38,1145.81,1081.68,1135.2Z"/><path class="cls-12" d="M960.85,860.09a32.72,32.72,0,0,0-17.77-4.46,53.35,53.35,0,0,1-8.82-.52c-35-4.45-55.68,46.5-56.81,61.9-2.08,28.39-17.06,32.82-38.06,50.74-42.11,35.93-29.39,77.24-6.12,92.46,14,9.13,38.39-.27,38.39-0.27,0.35,0.24,66.73-37.73,99.46-56.05C1020.33,996.55,980.72,871.73,960.85,860.09Z"/><path class="cls-13" d="M943.48,988.69c0.15,0.09-16.12,5.78-27.06,1-10.29-4.46-18.18-21.29-18-21.3,4.67-.25,9.76-4.37,13.52-31.17l2,0.7,33.5,11.79s-2.35,10.74-3.84,21C942.29,979.28,941.64,987.49,943.48,988.69Z"/><path class="cls-30" d="M947.39,949.74S946,957.27,944,968c-19.22-3.32-27.31-19.71-30.09-30.07Z"/><path class="cls-13" d="M952.44,960.35s-45.76-5.81-41.7-34.25,0.89-48.35,30.27-45.84,33.5,14.17,34.46,24S964.45,961.13,952.44,960.35Z"/><path class="cls-12" d="M973.7,888.69s-29.09,25.43-49,27.6-27.47-4.16-27.47-4.16a77.73,77.73,0,0,0,18.61-25.6,14,14,0,0,1,11.48-8.33C941.55,876.87,968.49,876.12,973.7,888.69Z"/><path class="cls-12" d="M955.39,886.56s9.86,9.4,13,16.4c3,6.75,4,23,1.71,29.41,0,0,15-29.77,6.31-44.12C967.13,873,955.39,886.56,955.39,886.56Z"/><path class="cls-11" d="M982.45,1055.77c-0.73,92.55.14,73.21-9.92,82.06-2.42,2.13-9.27,3.44-18.29,4.1-28.36,2.08-78.28-2.24-80.21-7.47-6.67-18.1-2.09-23.77-7.75-51.51-0.59-3-1.32-6.14-2.17-9.62-4.69-19-9.16-25.51,6.77-56.27,14.45-27.87,29.51-50.51,30.89-49.71,38.81,22.67,41.79,3.36,41.79,3.36S982.81,1010.62,982.45,1055.77Z"/><path class="cls-16" d="M1083.18,1293.68L1054,1373.85a48.13,48.13,0,0,1-15.79-1.33c-7.12-2-15.32-7.32-15.32-7.32s7.64-85.91,22.69-135.3Z"/><path class="cls-11" d="M943.55,970.7s39.81,6.46,44.61,23.55,33,117.55,33,117.55-20.19,3.77-29.6-5.5-33.11-86.42-33.11-86.42Z"/><path class="cls-31" d="M954.23,1141.92c-28.36,2.08-78.28-2.24-80.21-7.47-6.67-18.1-2.09-23.77-7.75-51.51l13.41-38.64s-2,42.93,10.78,54.13,52,21.42,58.19,30.81C951.65,1133.76,953.64,1138.28,954.23,1141.92Z"/><path class="cls-13" d="M921.59,1124.1s28-6.43,32.49-4,15.64,11.42,17,14.56-10.07-2.32-13.8-3.29c-2.41-.63-8.74,1.62-11.87,2.69-13.18,4.5-21.29,2.29-21.29,2.29Z"/><path class="cls-11" d="M901.74,967.32s-37.57,2.58-50.46,20.82c-18.14,25.68-53.71,134.81-32.78,149.19,23.57,16.19,106.77,3.52,106.77,3.52s2.68-13-1.22-19.21-66.64-15.92-69.55-18.79,35.76-56.65,35.69-65.33S901.74,967.32,901.74,967.32Z"/><path class="cls-13" d="M955.49,1127.91s5.92,7.52,7.85,8.41a5.73,5.73,0,0,0,3.17.66l-4-7.09Z"/><path class="cls-13" d="M954.08,1120.12l17.11,8.16a3,3,0,0,1-2.82,1.11c-2.1-.08-7.41-2-7.41-2Z"/><polygon class="cls-12" points="959.69 1148.53 1094.59 1147.58 1134.46 1046.38 999.76 1047.33 959.69 1148.53"/><polygon class="cls-12" points="1096.14 1143.64 918 1144.9 918.03 1148.83 1094.59 1147.58 1096.14 1143.64"/><path class="cls-2" d="M1060.18,1097.36c1-3.55-1.08-6.42-4.63-6.39a9.2,9.2,0,0,0-8.22,6.48c-1,3.55,1.08,6.42,4.63,6.39A9.2,9.2,0,0,0,1060.18,1097.36Z"/><path class="cls-32" d="M2178,1470.95c-17.08-5.67-28.91,1.49-28.91,1.49-49.19,2-51,52.44-45.24,71.2,8.11,26.35-20.58,47.13,11.24,57.8,36.92,12.37,67.91-7.16,65.79-.79C2297.65,1609.84,2216.85,1483.85,2178,1470.95Z"/><path class="cls-9" d="M2127,1716.16a128.93,128.93,0,0,1-13.15,19.89c-10.22,12.8-63.85-17.58-59.23-19.89s30.74-76.44,41.79-89.58a47.07,47.07,0,0,1,24.48-14.94Z"/><path class="cls-33" d="M2308,2239.78s14.8,13.51,11.91,23.11-16.24,16-18.05,27.73-9,18.13-15.52,18.13h-31s-4.78-8.26,6.77-10.74,15.91-16.27,15.19-29.07,1.08-29.86,1.08-29.86l24.55-5.69Z"/><path class="cls-33" d="M2182.67,2245.51s5.32,57.22-1.17,60.42l-83.16-.17s0-9.6,13.36-11.73,36.82-10,40.79-27.37S2182.67,2245.51,2182.67,2245.51Z"/><path class="cls-9" d="M2246.64,1677.56a331.35,331.35,0,0,1,0,38.44c-0.82,13.9-14.88,32.51-16.88,37.12-5,11.55-10.65,13.43-10.65,13.43l-43.67,10.7L2160.1,1781l-48.41-14.46s-22.05-61.55-13.2-96.2,22.38-58.71,22.38-58.71,32.9-7.4,90.95-3.28Z"/><path class="cls-34" d="M2250.8,1716.49c-0.82,13.9-19,32-21,36.63-5,11.55-10.65,13.43-10.65,13.43l-43.67,10.7-11.65-16.43s70.69-19.66,57.3-82Z"/><path class="cls-29" d="M2114.76,1775.89s-24,74.63-25.52,100,45.83,361,47.74,372.66c1.8,11,15.5,18.07,15.5,18.07s6.3,3.72,15.3,1.18c12.48-3.52,16.43-7.74,16.43-7.74s18.66-239.31,7.11-324.8a1353.88,1353.88,0,0,1-11.69-159.41h-64.87Z"/><path class="cls-16" d="M2216.35,1773.66s36.57,49.07,40,82.25,5.35,149.69,12.61,182,34,94.57,34,195.44c0,0-2.77,5.78-11.34,8.86a93.42,93.42,0,0,1-10,2.76,15.68,15.68,0,0,1-17.53-8.32c-18-36.33-75.52-153.5-78.47-177.82-2.09-17.21-20.23-131.13-59.82-198-9.5-16,5.83-79.87,5.83-79.87Z"/><path class="cls-34" d="M2110.94,1764.37s9.63,7.61,28.75,8c22.84,0.46,79.43-5.82,79.43-5.82a46.82,46.82,0,0,1,2.41,14.44s-69.12,17.44-109.17,2.55C2112.36,1783.54,2107.19,1773.82,2110.94,1764.37Z"/><path class="cls-1" d="M2134.2,1792.05c-5.75,0-10.42-5.29-10.42-11.8s4.68-11.8,10.42-11.8,10.42,5.29,10.42,11.8S2139.95,1792.05,2134.2,1792.05Zm0-20.14c-3.84,0-7,3.74-7,8.34s3.13,8.34,7,8.34,7-3.74,7-8.34S2138,1771.91,2134.2,1771.91Z"/><polygon class="cls-35" points="2184.14 1813.51 2080.25 1814.48 2029.13 1694.34 2133.01 1693.37 2184.14 1813.51"/><path class="cls-13" d="M2170.55,1759.22l-7.61-9.36s-5.15-4.6-8.89-5.38-11.64-5.34-12.4-4.05,6.07,10.44,6.07,10.44l0.35,0.05c-7.84,5.9-27.65.69-30.09,3.1-3,2.92,4.08,9.22,7.86,12.76s14.58,9.44,23,6.82c6.16-1.92,15.84-3.87,15.84-3.87Z"/><path class="cls-13" d="M2036.94,1715.47s6.53-7.42,10.68-3.86-1.09,21.07-5,19.29S2034.67,1717.65,2036.94,1715.47Z"/><path class="cls-9" d="M2211.82,1608.36s34.64,2.43,47.92,34.71,37.69,85.41,32.44,107.67c-2.09,8.87-27.33,39.61-132.58,20.08,0,0,.86-11,8-16.17,0,0,74.16-23.81,74-28.55-0.24-9-10-16.7-51.45-58.14C2178.89,1656.7,2211.82,1608.36,2211.82,1608.36Z"/><path class="cls-13" d="M2188.93,1609.93c1-1.37-.29-5.74-1.93-13.88-1.48-7.37-4-18.77-3.94-31.59l-2.19.37L2144,1571s0.84,9.86.86,19.14c0,0.08,0,.15,0,0.23,0,8.06-2.18,20.25.54,21.84C2159.39,1620.42,2185,1615.21,2188.93,1609.93Z"/><path class="cls-36" d="M2144,1571s0.73,13.9.76,23.18c20.63-.49,31.63-20.52,36.1-29.38Z"/><path class="cls-13" d="M2141.79,1587.6s48.32-6.88,43.57-36.91-1.71-51.14-32.76-48-35.22,15.53-36.07,25.94S2129.1,1588.62,2141.79,1587.6Z"/><path class="cls-32" d="M2130.53,1505.44s18.81,33.12,39.89,35.1,29-4.84,29-4.84a58.08,58.08,0,0,1-24.15-30.89S2137.82,1487.09,2130.53,1505.44Z"/><path class="cls-32" d="M2134.26,1507.78s-9.2,5.22-12.09,13a49.13,49.13,0,0,0-2.12,28.6s-13.76-22.36-4.74-37.68C2124.86,1495.45,2134.26,1507.78,2134.26,1507.78Z"/></svg>